<?xml version="1.0" encoding="UTF-8"?>
<svg id="Layer_1" data-name="Layer 1" xmlns="http://www.w3.org/2000/svg" viewBox="0 0 938.01 1330.9">
  <defs>
    <style>
      .cls-1 {
        opacity: .2;
      }

      .cls-1, .cls-2, .cls-3 {
        fill: none;
      }

      .cls-4 {
        fill: #7aceb4;
      }

      .cls-5 {
        fill: #b2eada;
      }

      .cls-2 {
        stroke: #98e2c7;
        stroke-miterlimit: 10;
      }

      .cls-3 {
        opacity: .56;
      }
    </style>
  </defs>
  <g id="Layer_1-2" data-name="Layer 1">
    <g id="lines" class="cls-3">
      <line class="cls-2" x1="874.39" y1="942.49" x2="777.72" y2="1048.31"/>
      <line class="cls-2" x1="1047.66" y1="925.88" x2="922.21" y2="876.06"/>
      <line class="cls-2" x1="326.59" y1="1233.81" x2="212.57" y2="1255.59"/>
      <line class="cls-2" x1="1047.66" y1="925.88" x2="874.39" y2="942.49"/>
      <line class="cls-2" x1="326.59" y1="1233.81" x2="228" y2="1343.08"/>
      <line class="cls-2" x1="896.9" y1="1232.17" x2="938.59" y2="1117.21"/>
      <line class="cls-2" x1="922.21" y1="876.06" x2="874.39" y2="942.49"/>
      <line class="cls-2" x1="326.59" y1="1233.81" x2="293.09" y2="1187.72"/>
      <line class="cls-2" x1="404.09" y1="1234.6" x2="326.59" y2="1233.81"/>
      <line class="cls-2" x1="665.46" y1="1122.92" x2="636.59" y2="1131.49"/>
      <line class="cls-2" x1="101.02" y1="1055.81" x2="194.96" y2="1088.89"/>
      <line class="cls-2" x1="972.81" y1="1125.91" x2="896.9" y2="1232.17"/>
      <line class="cls-2" x1="101.02" y1="1055.81" x2="231.09" y2="1019.89"/>
      <line class="cls-2" x1="228" y1="1343.08" x2="212.57" y2="1255.59"/>
      <line class="cls-2" x1="212.57" y1="1255.59" x2="293.09" y2="1187.72"/>
      <line class="cls-2" x1="142.44" y1="664.15" x2="166.94" y2="724.22"/>
      <line class="cls-2" x1="731.57" y1="1112.68" x2="665.46" y2="1122.92"/>
      <line class="cls-2" x1="404.09" y1="1234.6" x2="293.09" y2="1187.72"/>
      <line class="cls-2" x1="314.42" y1="915.26" x2="231.09" y2="1019.89"/>
      <line class="cls-2" x1="101.02" y1="1055.81" x2="154.4" y2="1061.75"/>
      <line class="cls-2" x1="943.31" y1="1005.84" x2="874.39" y2="942.49"/>
      <line class="cls-2" x1="896.9" y1="1232.17" x2="758.05" y2="1200.28"/>
      <line class="cls-2" x1="202.99" y1="1297.96" x2="212.57" y2="1255.59"/>
      <line class="cls-2" x1="383.09" y1="926.36" x2="314.42" y2="915.26"/>
      <line class="cls-2" x1="228" y1="1343.08" x2="202.99" y2="1297.96"/>
      <line class="cls-2" x1="142.44" y1="664.15" x2="138.29" y2="663.43"/>
      <line class="cls-2" x1="142.44" y1="664.15" x2="-33.01" y2="746.62"/>
      <line class="cls-2" x1="231.09" y1="1019.89" x2="194.96" y2="1088.89"/>
      <line class="cls-2" x1="202.99" y1="1297.96" x2="293.09" y2="1187.72"/>
      <line class="cls-2" x1="212.57" y1="1255.59" x2="202.97" y2="1316.64"/>
      <line class="cls-2" x1="896.9" y1="1232.17" x2="847.47" y2="1235.28"/>
      <line class="cls-2" x1="282.38" y1="1104.1" x2="293.09" y2="1187.72"/>
      <line class="cls-2" x1="404.09" y1="1234.6" x2="282.38" y2="1104.1"/>
      <line class="cls-2" x1="164.91" y1="1152.1" x2="194.96" y2="1088.89"/>
      <line class="cls-2" x1="383.09" y1="926.36" x2="231.09" y2="1019.89"/>
      <line class="cls-2" x1="282.38" y1="1104.1" x2="194.96" y2="1088.89"/>
      <line class="cls-2" x1="228" y1="1343.08" x2="202.97" y2="1316.64"/>
      <line class="cls-2" x1="731.57" y1="1112.68" x2="750.15" y2="1046.66"/>
      <line class="cls-2" x1="231.09" y1="1019.89" x2="282.38" y2="1104.1"/>
      <line class="cls-2" x1="731.57" y1="1112.68" x2="739.96" y2="1170.5"/>
      <line class="cls-2" x1="758.05" y1="1200.28" x2="731.57" y2="1112.68"/>
      <line class="cls-2" x1="154.4" y1="1061.75" x2="194.96" y2="1088.89"/>
      <line class="cls-2" x1="142.44" y1="664.15" x2="40.61" y2="624.35"/>
      <line class="cls-2" x1="164.91" y1="1152.1" x2="63.6" y2="1217.49"/>
      <line class="cls-2" x1="750.15" y1="1046.66" x2="739.96" y2="1170.5"/>
      <line class="cls-2" x1="242.5" y1="1051.75" x2="194.96" y2="1088.89"/>
      <line class="cls-2" x1="338.75" y1="1234.98" x2="293.09" y2="1187.72"/>
      <line class="cls-2" x1="338.75" y1="1234.98" x2="404.09" y2="1234.6"/>
      <line class="cls-2" x1="166.94" y1="724.22" x2="138.29" y2="663.43"/>
      <line class="cls-2" x1="242.5" y1="1051.75" x2="231.09" y2="1019.89"/>
      <line class="cls-2" x1="758.05" y1="1200.28" x2="739.96" y2="1170.5"/>
      <line class="cls-2" x1="202.99" y1="1297.96" x2="202.97" y2="1316.64"/>
      <line class="cls-2" x1="54.91" y1="980.34" x2="121.77" y2="907.87"/>
      <line class="cls-2" x1="164.91" y1="1152.1" x2="154.4" y2="1061.75"/>
      <line class="cls-2" x1="618.78" y1="1061.49" x2="750.15" y2="1046.66"/>
      <line class="cls-2" x1="150.56" y1="945.42" x2="121.77" y2="907.87"/>
      <line class="cls-2" x1="242.5" y1="1051.75" x2="282.38" y2="1104.1"/>
      <line class="cls-2" x1="63.6" y1="1217.49" x2="142.17" y2="1121.17"/>
      <line class="cls-2" x1="164.91" y1="1152.1" x2="142.17" y2="1121.17"/>
      <line class="cls-2" x1="847.47" y1="1235.28" x2="739.96" y2="1170.5"/>
      <line class="cls-2" x1="338.75" y1="1234.98" x2="282.38" y2="1104.1"/>
      <line class="cls-2" x1="54.91" y1="980.34" x2="150.56" y2="945.42"/>
      <line class="cls-2" x1="758.05" y1="1200.28" x2="847.47" y2="1235.28"/>
      <line class="cls-2" x1="-33.01" y1="746.62" x2="138.29" y2="663.43"/>
      <line class="cls-2" x1="242.5" y1="1051.75" x2="154.4" y2="1061.75"/>
      <line class="cls-2" x1="166.94" y1="724.22" x2="40.61" y2="624.35"/>
      <line class="cls-2" x1="1018.71" y1="1278.95" x2="847.47" y2="1235.28"/>
      <line class="cls-2" x1="154.4" y1="1061.75" x2="142.17" y2="1121.17"/>
      <line class="cls-2" x1="796.98" y1="1138.48" x2="739.96" y2="1170.5"/>
      <line class="cls-2" x1="758.05" y1="1200.28" x2="796.98" y2="1138.48"/>
      <line class="cls-2" x1="40.61" y1="624.35" x2="-99.46" y2="717.48"/>
      <line class="cls-2" x1="63.6" y1="1217.49" x2="-17.72" y2="1182.59"/>
      <line class="cls-2" x1="102.28" y1="929.77" x2="121.77" y2="907.87"/>
      <line class="cls-2" x1="63.6" y1="1217.49" x2="73.8" y2="1279.84"/>
      <line class="cls-2" x1="780.52" y1="986.16" x2="750.15" y2="1046.66"/>
      <line class="cls-2" x1="54.91" y1="980.34" x2="102.28" y2="929.77"/>
      <line class="cls-2" x1="40.61" y1="624.35" x2="138.29" y2="663.43"/>
      <line class="cls-2" x1="686.39" y1="1174.59" x2="739.96" y2="1170.5"/>
      <line class="cls-2" x1="40.61" y1="624.35" x2="-33.01" y2="746.62"/>
      <line class="cls-2" x1="54.91" y1="980.34" x2="111.99" y2="975.87"/>
      <line class="cls-2" x1="73.8" y1="1279.84" x2="202.97" y2="1316.64"/>
      <line class="cls-2" x1="796.98" y1="1138.48" x2="847.47" y2="1235.28"/>
      <line class="cls-2" x1="150.56" y1="945.42" x2="102.28" y2="929.77"/>
      <line class="cls-2" x1="956.53" y1="1307.35" x2="847.47" y2="1235.28"/>
      <line class="cls-2" x1="18.71" y1="1098.88" x2="142.17" y2="1121.17"/>
      <line class="cls-2" x1="111.99" y1="975.87" x2="150.56" y2="945.42"/>
      <line class="cls-2" x1="150.56" y1="945.42" x2="199.28" y2="927.78"/>
      <line class="cls-2" x1="18.71" y1="1098.88" x2="-17.72" y2="1182.59"/>
      <line class="cls-2" x1="142.17" y1="1121.17" x2="114.03" y2="1106.8"/>
      <line class="cls-2" x1="142.17" y1="1121.17" x2="95.54" y2="1060.42"/>
      <line class="cls-2" x1="439.89" y1="1110.62" x2="445.8" y2="1072.5"/>
      <line class="cls-2" x1="796.98" y1="1138.48" x2="686.39" y2="1174.59"/>
      <line class="cls-2" x1="618.78" y1="1061.49" x2="583.61" y2="1064.83"/>
      <line class="cls-2" x1="73.8" y1="1279.84" x2="-17.72" y2="1182.59"/>
      <line class="cls-2" x1="618.78" y1="1061.49" x2="606.02" y2="1047.15"/>
      <line class="cls-2" x1="111.99" y1="975.87" x2="102.28" y2="929.77"/>
      <line class="cls-2" x1="434.25" y1="977.21" x2="445.8" y2="1072.5"/>
      <line class="cls-2" x1="465.83" y1="1208.05" x2="445.8" y2="1072.5"/>
      <line class="cls-2" x1="454.44" y1="1025.07" x2="445.8" y2="1072.5"/>
      <line class="cls-2" x1="102.28" y1="929.77" x2="199.28" y2="927.78"/>
      <line class="cls-2" x1="18.71" y1="1098.88" x2="114.03" y2="1106.8"/>
      <line class="cls-2" x1="18.71" y1="1098.88" x2="95.54" y2="1060.42"/>
      <line class="cls-2" x1="111.99" y1="975.87" x2="199.28" y2="927.78"/>
      <line class="cls-2" x1="491.07" y1="1104.99" x2="445.8" y2="1072.5"/>
      <line class="cls-2" x1="465.83" y1="1208.05" x2="439.89" y2="1110.62"/>
      <line class="cls-2" x1="111.99" y1="975.87" x2="95.54" y2="1060.42"/>
      <line class="cls-2" x1="404.81" y1="1325.08" x2="338.75" y2="1234.98"/>
      <line class="cls-2" x1="248.14" y1="997.36" x2="199.28" y2="927.78"/>
      <line class="cls-2" x1="439.89" y1="1110.62" x2="491.07" y2="1104.99"/>
      <line class="cls-2" x1="434.25" y1="977.21" x2="454.44" y2="1025.07"/>
      <line class="cls-2" x1="95.54" y1="1060.42" x2="114.03" y2="1106.8"/>
      <line class="cls-2" x1="465.83" y1="1208.05" x2="491.07" y2="1104.99"/>
      <line class="cls-2" x1="434.25" y1="977.21" x2="454.35" y2="963.81"/>
      <line class="cls-2" x1="282.54" y1="784.43" x2="300.3" y2="691.25"/>
      <line class="cls-2" x1="454.35" y1="963.81" x2="454.44" y2="1025.07"/>
      <line class="cls-2" x1="1002.16" y1="811.42" x2="920.1" y2="802.53"/>
      <line class="cls-2" x1="197.15" y1="1303.74" x2="73.8" y2="1279.84"/>
      <line class="cls-2" x1="990.67" y1="666.48" x2="856.44" y2="589.5"/>
      <line class="cls-2" x1="583.61" y1="1064.83" x2="491.07" y2="1104.99"/>
      <line class="cls-2" x1="192.07" y1="946.29" x2="199.28" y2="927.78"/>
      <line class="cls-2" x1="606.02" y1="1047.15" x2="583.61" y2="1064.83"/>
      <line class="cls-2" x1="117.69" y1="841.88" x2="199.28" y2="927.78"/>
      <line class="cls-2" x1="856.44" y1="589.5" x2="726.98" y2="709.77"/>
      <line class="cls-2" x1="192.07" y1="946.29" x2="248.14" y2="997.36"/>
      <line class="cls-2" x1="465.83" y1="1208.05" x2="404.81" y2="1325.08"/>
      <line class="cls-2" x1="780.52" y1="986.16" x2="881.75" y2="1044.33"/>
      <line class="cls-2" x1="279.37" y1="538.45" x2="300.3" y2="691.25"/>
      <line class="cls-2" x1="620.55" y1="961.26" x2="583.61" y2="1064.83"/>
      <line class="cls-2" x1="620.55" y1="961.26" x2="606.02" y2="1047.15"/>
      <line class="cls-2" x1="722.74" y1="1077.11" x2="686.39" y2="1174.59"/>
      <line class="cls-2" x1="434.25" y1="977.21" x2="445.32" y2="990.19"/>
      <line class="cls-2" x1="454.35" y1="963.81" x2="538.82" y2="985.5"/>
      <line class="cls-2" x1="282.54" y1="784.43" x2="192.99" y2="856.38"/>
      <line class="cls-2" x1="722.74" y1="1077.11" x2="780.52" y2="986.16"/>
      <line class="cls-2" x1="173.3" y1="1049.12" x2="248.14" y2="997.36"/>
      <line class="cls-2" x1="179.68" y1="671.94" x2="300.3" y2="691.25"/>
      <line class="cls-2" x1="454.44" y1="1025.07" x2="445.32" y2="990.19"/>
      <line class="cls-2" x1="179.68" y1="671.94" x2="282.54" y2="784.43"/>
      <line class="cls-2" x1="880.22" y1="1143.07" x2="938.67" y2="1168.8"/>
      <line class="cls-2" x1="880.22" y1="1143.07" x2="965.63" y2="1086.34"/>
      <line class="cls-2" x1="538.82" y1="985.5" x2="620.55" y2="961.26"/>
      <line class="cls-2" x1="686.39" y1="1174.59" x2="648.48" y2="1195.32"/>
      <line class="cls-2" x1="881.75" y1="1044.33" x2="965.63" y2="1086.34"/>
      <line class="cls-2" x1="454.35" y1="963.81" x2="445.32" y2="990.19"/>
      <line class="cls-2" x1="722.74" y1="1077.11" x2="606.02" y2="1047.15"/>
      <line class="cls-2" x1="967.93" y1="1321.68" x2="930.25" y2="1464.01"/>
      <line class="cls-2" x1="967.93" y1="1321.68" x2="851.57" y2="1377.33"/>
      <line class="cls-2" x1="726.98" y1="709.77" x2="810.35" y2="793.6"/>
      <line class="cls-2" x1="192.07" y1="946.29" x2="192.99" y2="856.38"/>
      <line class="cls-2" x1="192.99" y1="856.38" x2="117.69" y2="841.88"/>
      <line class="cls-2" x1="880.22" y1="1143.07" x2="881.75" y2="1044.33"/>
      <line class="cls-2" x1="279.37" y1="538.45" x2="179.68" y2="671.94"/>
      <line class="cls-2" x1="300.3" y1="691.25" x2="246.01" y2="819.52"/>
      <line class="cls-2" x1="282.54" y1="784.43" x2="246.01" y2="819.52"/>
      <line class="cls-2" x1="347.78" y1="907.27" x2="417.54" y2="895.63"/>
      <line class="cls-2" x1="173.3" y1="1049.12" x2="192.07" y2="946.29"/>
      <line class="cls-2" x1="726.98" y1="709.77" x2="613.79" y2="826.58"/>
      <line class="cls-2" x1="538.82" y1="985.5" x2="445.32" y2="990.19"/>
      <line class="cls-2" x1="880.22" y1="1143.07" x2="943.13" y2="1124.86"/>
      <line class="cls-2" x1="136.15" y1="860.93" x2="192.07" y2="946.29"/>
      <line class="cls-2" x1="136.15" y1="860.93" x2="117.69" y2="841.88"/>
      <line class="cls-2" x1="881.75" y1="1044.33" x2="943.13" y2="1124.86"/>
      <line class="cls-2" x1="346.02" y1="1051.68" x2="445.32" y2="990.19"/>
      <line class="cls-2" x1="404.81" y1="1325.08" x2="335.46" y2="1251.05"/>
      <line class="cls-2" x1="197.15" y1="1303.74" x2="335.46" y2="1251.05"/>
      <line class="cls-2" x1="136.15" y1="860.93" x2="192.99" y2="856.38"/>
      <line class="cls-2" x1="920.1" y1="802.53" x2="881.75" y2="757.24"/>
      <line class="cls-2" x1="407.79" y1="1011.35" x2="346.02" y2="1051.68"/>
      <line class="cls-2" x1="920.1" y1="802.53" x2="810.35" y2="793.6"/>
      <line class="cls-2" x1="920.1" y1="802.53" x2="955.92" y2="718.3"/>
      <line class="cls-2" x1="197.15" y1="1303.74" x2="149.55" y2="1458.41"/>
      <line class="cls-2" x1="192.99" y1="856.38" x2="246.01" y2="819.52"/>
      <line class="cls-2" x1="578.32" y1="978.89" x2="620.55" y2="961.26"/>
      <line class="cls-2" x1="-90.69" y1="1211.32" x2="55.97" y2="1159.05"/>
      <line class="cls-2" x1="651.11" y1="1256.97" x2="753.12" y2="1363.83"/>
      <line class="cls-2" x1="404.81" y1="1325.08" x2="432.99" y2="1136.51"/>
      <line class="cls-2" x1="407.79" y1="1011.35" x2="445.32" y2="990.19"/>
      <line class="cls-2" x1="197.15" y1="1303.74" x2="238.35" y2="1153.52"/>
      <line class="cls-2" x1="179.68" y1="671.94" x2="246.01" y2="819.52"/>
      <line class="cls-2" x1="920.1" y1="802.53" x2="1039.02" y2="821.96"/>
      <line class="cls-2" x1="851.57" y1="1377.33" x2="964.71" y2="1286.61"/>
      <line class="cls-2" x1="578.32" y1="978.89" x2="538.82" y2="985.5"/>
      <line class="cls-2" x1="173.3" y1="1049.12" x2="78.29" y2="1062.81"/>
      <line class="cls-2" x1="753.12" y1="1363.83" x2="648.48" y2="1195.32"/>
      <line class="cls-2" x1="722.74" y1="1077.11" x2="648.48" y2="1195.32"/>
      <line class="cls-2" x1="136.15" y1="860.93" x2="246.01" y2="819.52"/>
      <line class="cls-2" x1="881.75" y1="757.24" x2="810.35" y2="793.6"/>
      <line class="cls-2" x1="651.11" y1="1256.97" x2="648.48" y2="1195.32"/>
      <line class="cls-2" x1="955.92" y1="718.3" x2="881.75" y2="757.24"/>
      <line class="cls-2" x1="78.29" y1="1062.81" x2="55.97" y2="1159.05"/>
      <line class="cls-2" x1="335.46" y1="1251.05" x2="238.35" y2="1153.52"/>
      <line class="cls-2" x1="41.51" y1="933.47" x2="117.69" y2="841.88"/>
      <line class="cls-2" x1="60.21" y1="706.64" x2="117.69" y2="841.88"/>
      <line class="cls-2" x1="335.46" y1="1251.05" x2="432.99" y2="1136.51"/>
      <line class="cls-2" x1="869.1" y1="1049.01" x2="880.22" y2="1143.07"/>
      <line class="cls-2" x1="869.1" y1="1049.01" x2="881.75" y2="1044.33"/>
      <line class="cls-2" x1="179.68" y1="671.94" x2="60.21" y2="706.64"/>
      <line class="cls-2" x1="869.1" y1="1049.01" x2="943.13" y2="1124.86"/>
      <line class="cls-2" x1="173.3" y1="1049.12" x2="220.72" y2="1015.06"/>
      <line class="cls-2" x1="407.79" y1="1011.35" x2="329.93" y2="958.21"/>
      <line class="cls-2" x1="329.93" y1="958.21" x2="417.54" y2="895.63"/>
      <line class="cls-2" x1="50.11" y1="1260.94" x2="-90.69" y2="1211.32"/>
      <line class="cls-2" x1="50.11" y1="1260.94" x2="55.97" y2="1159.05"/>
      <line class="cls-2" x1="41.51" y1="933.47" x2="78.29" y2="1062.81"/>
      <line class="cls-2" x1="440.14" y1="1121.87" x2="432.99" y2="1136.51"/>
      <line class="cls-2" x1="618.38" y1="1188.5" x2="651.11" y2="1256.97"/>
      <line class="cls-2" x1="50.11" y1="1260.94" x2="78.29" y2="1062.81"/>
      <line class="cls-2" x1="149.55" y1="1458.41" x2="50.11" y2="1260.94"/>
      <line class="cls-2" x1="561.07" y1="1129.66" x2="648.48" y2="1195.32"/>
      <line class="cls-2" x1="618.38" y1="1188.5" x2="648.48" y2="1195.32"/>
      <line class="cls-2" x1="329.93" y1="958.21" x2="220.72" y2="1015.06"/>
      <line class="cls-2" x1="280.21" y1="913.06" x2="246.01" y2="819.52"/>
      <line class="cls-2" x1="613.79" y1="826.58" x2="613.6" y2="962.9"/>
      <line class="cls-2" x1="578.32" y1="978.89" x2="613.6" y2="962.9"/>
      <line class="cls-2" x1="561.07" y1="1129.66" x2="440.14" y2="1121.87"/>
      <line class="cls-2" x1="358.14" y1="684.8" x2="246.01" y2="819.52"/>
      <line class="cls-2" x1="892.14" y1="1082.65" x2="943.13" y2="1124.86"/>
      <line class="cls-2" x1="280.21" y1="913.06" x2="329.93" y2="958.21"/>
      <line class="cls-2" x1="586.9" y1="1142.03" x2="648.48" y2="1195.32"/>
      <line class="cls-2" x1="280.21" y1="913.06" x2="220.72" y2="1015.06"/>
      <line class="cls-2" x1="613.79" y1="826.58" x2="572.13" y2="926.27"/>
      <line class="cls-2" x1="561.07" y1="1129.66" x2="618.38" y2="1188.5"/>
      <line class="cls-2" x1="578.32" y1="978.89" x2="572.13" y2="926.27"/>
      <line class="cls-2" x1="420.81" y1="994.58" x2="329.93" y2="958.21"/>
      <line class="cls-2" x1="313.56" y1="1084.77" x2="440.14" y2="1121.87"/>
      <line class="cls-2" x1="313.56" y1="1084.77" x2="220.72" y2="1015.06"/>
      <line class="cls-2" x1="406.27" y1="1195.38" x2="432.99" y2="1136.51"/>
      <line class="cls-2" x1="613.6" y1="962.9" x2="737.12" y2="952.85"/>
      <line class="cls-2" x1="892.14" y1="1082.65" x2="995.3" y2="1180.31"/>
      <line class="cls-2" x1="892.14" y1="1082.65" x2="869.1" y2="1049.01"/>
      <line class="cls-2" x1="561.07" y1="1129.66" x2="586.9" y2="1142.03"/>
      <line class="cls-2" x1="406.27" y1="1195.38" x2="440.14" y2="1121.87"/>
      <line class="cls-2" x1="618.38" y1="1188.5" x2="586.9" y2="1142.03"/>
      <line class="cls-2" x1="613.6" y1="962.9" x2="572.13" y2="926.27"/>
      <line class="cls-2" x1="280.21" y1="913.06" x2="398.32" y2="891.21"/>
      <line class="cls-2" x1="737.12" y1="952.85" x2="572.13" y2="926.27"/>
      <line class="cls-2" x1="358.14" y1="684.8" x2="398.32" y2="891.21"/>
      <line class="cls-2" x1="539.67" y1="703.81" x2="398.32" y2="891.21"/>
      <line class="cls-2" x1="420.81" y1="994.58" x2="398.32" y2="891.21"/>
      <line class="cls-2" x1="539.67" y1="703.81" x2="358.14" y2="684.8"/>
      <line class="cls-2" x1="313.56" y1="1084.77" x2="420.81" y2="994.58"/>
      <line class="cls-2" x1="572.13" y1="926.27" x2="420.81" y2="994.58"/>
      <line class="cls-2" x1="959.25" y1="1076.78" x2="869.1" y2="1049.01"/>
      <line class="cls-2" x1="313.56" y1="1084.77" x2="406.27" y2="1195.38"/>
      <line class="cls-2" x1="571.2" y1="992.27" x2="613.6" y2="962.9"/>
      <line class="cls-2" x1="406.27" y1="1195.38" x2="427.64" y2="1344.73"/>
      <line class="cls-2" x1="571.2" y1="992.27" x2="420.81" y2="994.58"/>
      <line class="cls-2" x1="571.2" y1="992.27" x2="572.13" y2="926.27"/>
      <line class="cls-2" x1="571.2" y1="992.27" x2="586.9" y2="1142.03"/>
      <line class="cls-2" x1="892.14" y1="1082.65" x2="959.25" y2="1076.78"/>
    </g>
  </g>
  <g id="Layer_2" data-name="Layer 2">
    <g id="circles" class="cls-3">
      <circle class="cls-5" cx="777.72" cy="1048.31" r="9.65"/>
      <path class="cls-5" d="m28.3,1244.29c4.42-.32,8.18,2.94,8.5,7.36s-2.94,8.18-7.36,8.5-8.18-2.94-8.5-7.36,2.94-8.18,7.36-8.5Z"/>
      <circle class="cls-5" cx="326.59" cy="1233.81" r="9.09"/>
      <path class="cls-5" d="m100.48,1048.34c4.08-.29,7.72,2.86,8.02,6.94s-2.86,7.72-6.94,8.02c-4.08.29-7.72-2.86-8.02-6.94s2.75-7.71,6.94-8.02Z"/>
      <circle class="cls-5" cx="922.21" cy="876.06" r="9.65"/>
      <circle class="cls-5" cx="682.08" cy="815.04" r="6.93"/>
      <circle class="cls-5" cx="896.78" cy="1232.18" r="7.84"/>
      <circle class="cls-5" cx="938.59" cy="1117.21" r="6.36"/>
      <path class="cls-5" d="m141.96,657.47c3.74-.27,7.02,2.57,7.29,6.31s-2.57,7.02-6.31,7.29-7.02-2.57-7.29-6.31,2.57-7.02,6.31-7.29Z"/>
      <circle class="cls-5" cx="636.59" cy="1131.49" r="7.95"/>
      <circle class="cls-5" cx="665.34" cy="1122.81" r="8.52"/>
      <path class="cls-5" d="m212.12,1249.25c3.51-.25,6.55,2.37,6.8,5.89s-2.37,6.55-5.89,6.8-6.55-2.37-6.8-5.89,2.37-6.55,5.89-6.8Z"/>
      <circle class="cls-5" cx="874.55" cy="942.37" r="8.29" transform="translate(-326.26 483.09) rotate(-26.21)"/>
      <path class="cls-5" d="m313.91,908.23c3.85-.28,7.25,2.67,7.53,6.52s-2.67,7.25-6.52,7.53c-3.85.28-7.25-2.67-7.53-6.52-.39-3.84,2.55-7.24,6.52-7.53Z"/>
      <circle class="cls-5" cx="293.19" cy="1187.6" r="9.31" transform="translate(-84.73 24.19) rotate(-4.13)"/>
      <circle class="cls-5" cx="404.09" cy="1234.6" r="10.68"/>
      <circle class="cls-5" cx="194.96" cy="1088.89" r="6.7"/>
      <circle class="cls-5" cx="231.09" cy="1019.89" r="8.86" transform="translate(-72.82 19.28) rotate(-4.13)"/>
      <circle class="cls-5" cx="166.94" cy="724.22" r="7.38"/>
      <circle class="cls-5" cx="731.57" cy="1112.68" r="4.43"/>
      <path class="cls-5" d="m942.79,998.7c3.97-.29,7.48,2.65,7.77,6.73.29,4.08-2.65,7.48-6.73,7.77s-7.48-2.65-7.77-6.73,2.76-7.49,6.73-7.77Z"/>
      <circle class="cls-5" cx="202.99" cy="1297.96" r="11.24"/>
      <circle class="cls-5" cx="383.09" cy="926.36" r="7.72" transform="translate(-65.69 29.98) rotate(-4.13)"/>
      <circle class="cls-5" cx="750.15" cy="1046.66" r="6.82"/>
      <circle class="cls-5" cx="63.6" cy="1217.49" r="9.88" transform="translate(-87.47 7.74) rotate(-4.13)"/>
      <path class="cls-5" d="m121.4,902.77c2.83-.2,5.26,1.9,5.47,4.73s-1.9,5.26-4.73,5.47c-2.83.2-5.26-1.9-5.47-4.73s1.9-5.26,4.73-5.47Z"/>
      <circle class="cls-5" cx="165.03" cy="1152.2" r="8.41"/>
      <circle class="cls-5" cx="739.96" cy="1170.5" r="7.38"/>
      <circle class="cls-5" cx="282.27" cy="1104.11" r="11.24"/>
      <circle class="cls-5" cx="757.94" cy="1200.29" r="8.63"/>
      <circle class="cls-5" cx="54.91" cy="980.34" r="7.95"/>
      <circle class="cls-5" cx="202.97" cy="1316.64" r="7.84"/>
      <circle class="cls-5" cx="154.4" cy="1061.75" r="7.38"/>
      <circle class="cls-5" cx="138.29" cy="663.43" r="12.27"/>
      <circle class="cls-5" cx="242.5" cy="1051.75" r="6.13"/>
      <circle class="cls-5" cx="150.56" cy="945.42" r="4.32"/>
      <circle class="cls-5" cx="618.78" cy="1061.49" r="8.18"/>
      <path class="cls-5" d="m141.64,1113.81c4.08-.29,7.6,2.75,7.9,6.83s-2.75,7.6-6.83,7.9-7.6-2.75-7.9-6.83,2.75-7.6,6.83-7.9Z"/>
      <path class="cls-5" d="m847.02,1229.05c3.4-.25,6.44,2.38,6.68,5.78s-2.38,6.44-5.78,6.68-6.44-2.38-6.68-5.78,2.38-6.44,5.78-6.68Z"/>
      <circle class="cls-5" cx="338.75" cy="1234.98" r="6.47" transform="translate(-88.02 27.59) rotate(-4.13)"/>
      <circle class="cls-5" cx="941.79" cy="905.85" r="9.65"/>
      <path class="cls-5" d="m796.65,1133.84c2.61-.19,4.79,1.7,4.98,4.31s-1.7,4.79-4.31,4.98-4.79-1.7-4.98-4.31,1.7-4.79,4.31-4.98Z"/>
      <path class="cls-5" d="m445.3,1065.58c3.85-.28,7.13,2.56,7.41,6.41s-2.56,7.13-6.41,7.41c-3.85.28-7.13-2.56-7.41-6.41s2.56-7.13,6.41-7.41Z"/>
      <circle class="cls-5" cx="18.71" cy="1098.88" r="8.52"/>
      <path class="cls-5" d="m40.23,619.03c2.95-.21,5.61,1.99,5.83,5.05s-1.99,5.61-5.05,5.83-5.61-1.99-5.83-5.05,2.1-5.62,5.05-5.83Z"/>
      <circle class="cls-5" cx="102.28" cy="929.77" r="9.09"/>
      <circle class="cls-5" cx="73.8" cy="1279.84" r="6.82"/>
      <circle class="cls-5" cx="111.99" cy="975.87" r="6.7"/>
      <circle class="cls-5" cx="440.01" cy="1110.61" r="5.22"/>
      <path class="cls-5" d="m685.92,1168.13c3.51-.25,6.66,2.37,6.92,5.99s-2.37,6.66-5.99,6.92-6.66-2.37-6.92-5.99,2.48-6.67,5.99-6.92Z"/>
      <circle class="cls-5" cx="199.17" cy="927.79" r="10.34"/>
      <path class="cls-5" d="m780.18,981.4c2.61-.19,4.91,1.81,5.1,4.41s-1.81,4.91-4.41,5.1-4.91-1.81-5.1-4.41,1.81-4.91,4.41-5.1Z"/>
      <circle class="cls-5" cx="434.25" cy="977.21" r="6.47" transform="translate(-69.22 33.79) rotate(-4.13)"/>
      <circle class="cls-5" cx="465.83" cy="1208.05" r="5.34"/>
      <circle class="cls-5" cx="114.03" cy="1106.8" r="11.81"/>
      <circle class="cls-5" cx="95.54" cy="1060.42" r="8.97"/>
      <circle class="cls-5" cx="248.15" cy="997.48" r="9.88" transform="translate(-71.16 20.45) rotate(-4.13)"/>
      <path class="cls-5" d="m453.92,1017.82c3.97-.29,7.48,2.65,7.77,6.73s-2.65,7.48-6.73,7.77-7.48-2.65-7.77-6.73,2.76-7.49,6.73-7.77Z"/>
      <path class="cls-5" d="m726.49,702.97c3.74-.27,7.02,2.57,7.29,6.31s-2.57,7.02-6.31,7.29-7.02-2.57-7.29-6.31,2.45-7.01,6.31-7.29Z"/>
      <circle class="cls-5" cx="300.3" cy="691.25" r="9.77"/>
      <circle class="cls-5" cx="282.54" cy="784.43" r="7.16"/>
      <path class="cls-5" d="m583.08,1057.58c3.97-.29,7.49,2.76,7.77,6.73s-2.76,7.49-6.73,7.77-7.49-2.76-7.77-6.73c-.29-3.97,2.76-7.49,6.73-7.77Z"/>
      <circle class="cls-5" cx="491.19" cy="1104.98" r="6.93"/>
      <path class="cls-5" d="m605.59,1041.26c3.29-.24,6.08,2.18,6.32,5.47s-2.18,6.08-5.47,6.32c-3.29.24-6.08-2.18-6.32-5.47s2.18-6.08,5.47-6.32Z"/>
      <path class="cls-5" d="m453.78,955.88c4.42-.32,8.18,2.94,8.5,7.36s-2.94,8.18-7.36,8.5-8.18-2.94-8.5-7.36,2.94-8.18,7.36-8.5Z"/>
      <circle class="cls-5" cx="347.78" cy="907.27" r="8.18"/>
      <circle class="cls-5" cx="938.67" cy="1168.8" r="7.72"/>
      <circle class="cls-5" cx="856.44" cy="589.5" r="10.45" transform="translate(-40.21 63.18) rotate(-4.13)"/>
      <circle class="cls-5" cx="620.55" cy="961.26" r="8.29" transform="translate(-67.59 47.16) rotate(-4.13)"/>
      <circle class="cls-5" cx="279.37" cy="538.45" r="8.06"/>
      <path class="cls-5" d="m191.71,941.31c2.72-.2,5.15,1.91,5.34,4.63s-1.91,5.15-4.63,5.34-5.15-1.91-5.34-4.63,1.79-5.14,4.63-5.34Z"/>
      <path class="cls-5" d="m117.36,837.35c2.49-.18,4.68,1.71,4.86,4.2s-1.71,4.68-4.2,4.86-4.68-1.71-4.86-4.2,1.71-4.68,4.2-4.86h0Z"/>
      <circle class="cls-5" cx="538.82" cy="985.5" r="9.65"/>
      <circle class="cls-5" cx="404.69" cy="1325.09" r="8.41"/>
      <circle class="cls-5" cx="880.2" cy="1142.84" r="9.2"/>
      <circle class="cls-5" cx="881.74" cy="1044.22" r="10.34"/>
      <circle class="cls-5" cx="197.15" cy="1303.74" r="6.25"/>
      <circle class="cls-5" cx="346.02" cy="1051.68" r="10.22"/>
      <circle class="cls-5" cx="920.1" cy="802.53" r="11.13" transform="translate(-55.38 68.31) rotate(-4.13)"/>
      <circle class="cls-5" cx="192.99" cy="856.38" r="8.97"/>
      <circle class="cls-5" cx="179.68" cy="671.94" r="4.88"/>
      <circle class="cls-5" cx="173.3" cy="1049.12" r="14.54" transform="translate(-75.07 15.2) rotate(-4.13)"/>
      <circle class="cls-5" cx="943.13" cy="1124.86" r="8.18"/>
      <circle class="cls-5" cx="445.32" cy="990.19" r="8.18"/>
      <circle class="cls-5" cx="722.63" cy="1077.11" r="9.54"/>
      <path class="cls-5" d="m651.04,1255.95c.57-.04,1.05.38,1.09.95s-.38,1.05-.95,1.09-1.05-.38-1.09-.95.38-1.05.95-1.09Z"/>
      <circle class="cls-5" cx="136.15" cy="860.93" r="7.84"/>
      <circle class="cls-5" cx="335.46" cy="1251.05" r="5"/>
      <path class="cls-5" d="m881.22,749.88c4.08-.29,7.71,2.75,8.02,6.94s-2.75,7.71-6.94,8.02c-4.08.29-7.71-2.75-8.02-6.94-.3-4.19,2.86-7.72,6.94-8.02Z"/>
      <path class="cls-5" d="m407.04,1001.04c5.66-.41,10.64,3.9,11.05,9.57s-3.9,10.64-9.57,11.05c-5.66.41-10.64-3.9-11.05-9.57s3.9-10.64,9.57-11.05Z"/>
      <path class="cls-5" d="m417.02,888.38c3.97-.29,7.49,2.76,7.77,6.73s-2.76,7.49-6.73,7.77-7.49-2.76-7.77-6.73,2.76-7.49,6.73-7.77Z"/>
      <circle class="cls-5" cx="55.97" cy="1159.05" r="5.57"/>
      <circle class="cls-5" cx="810.35" cy="793.6" r="10.79"/>
      <circle class="cls-5" cx="246.13" cy="819.52" r="11.36"/>
      <circle class="cls-5" cx="78.29" cy="1062.81" r="8.06"/>
      <circle class="cls-5" cx="648.48" cy="1195.32" r="9.31"/>
      <circle class="cls-5" cx="238.34" cy="1153.4" r="12.84" transform="translate(-82.41 20.15) rotate(-4.13)"/>
      <circle class="cls-5" cx="432.98" cy="1136.4" r="10.22"/>
      <circle class="cls-5" cx="613.78" cy="826.46" r="9.2"/>
      <circle class="cls-5" cx="578.32" cy="979" r="9.31"/>
      <path class="cls-5" d="m329.56,953c2.95-.21,5.38,2,5.59,4.84s-2,5.38-4.84,5.59-5.38-2-5.59-4.84c-.2-2.83,1.89-5.37,4.84-5.59Z"/>
      <circle class="cls-5" cx="440.14" cy="1121.87" r="12.15"/>
      <path class="cls-5" d="m868.54,1041.3c4.19-.3,7.95,2.84,8.26,7.15s-2.84,7.95-7.15,8.26c-4.31.31-7.95-2.84-8.26-7.15s2.96-7.96,7.15-8.26Z"/>
      <circle class="cls-5" cx="220.72" cy="1015.06" r="8.86" transform="translate(-72.5 18.52) rotate(-4.13)"/>
      <circle class="cls-5" cx="41.52" cy="933.59" r="9.09"/>
      <circle class="cls-5" cx="60.21" cy="706.64" r="10.68"/>
      <circle class="cls-5" cx="50.11" cy="1260.94" r="12.04"/>
      <path class="cls-5" d="m560.63,1123.54c3.4-.25,6.31,2.28,6.56,5.68s-2.28,6.31-5.68,6.56-6.31-2.28-6.56-5.68,2.28-6.31,5.68-6.56Z"/>
      <path class="cls-5" d="m618.05,1183.85c2.49-.18,4.68,1.71,4.86,4.2s-1.71,4.68-4.2,4.86-4.68-1.71-4.86-4.2,1.71-4.68,4.2-4.86Z"/>
      <path class="cls-5" d="m613.28,958.37c2.49-.18,4.68,1.71,4.86,4.2s-1.71,4.68-4.2,4.86-4.68-1.71-4.86-4.2,1.71-4.68,4.2-4.86Z"/>
      <path class="cls-5" d="m279.79,907.28c3.17-.23,5.97,2.19,6.19,5.36s-2.19,5.97-5.36,6.19c-3.17.23-5.97-2.19-6.19-5.36s2.08-5.96,5.36-6.19Z"/>
      <circle class="cls-5" cx="737.12" cy="952.85" r="10.22"/>
      <circle class="cls-5" cx="398.32" cy="891.21" r="8.52"/>
      <circle class="cls-5" cx="313.67" cy="1084.76" r="8.97"/>
      <path class="cls-5" d="m357.9,681.4c1.93-.14,3.51,1.34,3.64,3.15s-1.34,3.51-3.15,3.64c-1.93.14-3.51-1.34-3.64-3.15s1.23-3.5,3.15-3.64Z"/>
      <circle class="cls-5" cx="539.67" cy="703.81" r="10.79"/>
      <circle class="cls-5" cx="420.81" cy="994.58" r="10.34"/>
      <circle class="cls-5" cx="572.13" cy="926.27" r="11.81"/>
      <path class="cls-5" d="m586.66,1138.63c1.93-.14,3.51,1.34,3.64,3.15.14,1.93-1.34,3.51-3.15,3.64s-3.51-1.34-3.64-3.15c-.25-1.92,1.23-3.5,3.15-3.64Z"/>
      <path class="cls-5" d="m891.58,1074.94c4.19-.3,7.84,2.85,8.14,7.04s-2.85,7.84-7.04,8.14-7.84-2.85-8.14-7.04c-.3-4.19,2.85-7.84,7.04-8.14Z"/>
      <circle class="cls-5" cx="427.64" cy="1344.73" r="14.31"/>
      <path class="cls-5" d="m405.78,1188.69c3.74-.27,6.9,2.46,7.17,6.2s-2.46,6.9-6.2,7.17c-3.74.27-6.9-2.46-7.17-6.2-.27-3.74,2.46-6.9,6.2-7.17Z"/>
      <circle class="cls-5" cx="571.2" cy="992.27" r="11.02"/>
    </g>
  </g>
  <g id="Layer_3" data-name="Layer 3">
    <g id="bg-points" class="cls-1">
      <path class="cls-4" d="m747.67,1272.66c1.7-.12,3.16,1.14,3.28,2.84s-1.14,3.16-2.84,3.28-3.16-1.14-3.28-2.84c0-1.71,1.25-3.17,2.84-3.28Z"/>
      <path class="cls-4" d="m396.99,1166.21c2.04-.15,3.74,1.32,3.89,3.36s-1.32,3.74-3.36,3.89-3.74-1.32-3.89-3.36c-.15-2.04,1.44-3.75,3.36-3.89Z"/>
      <path class="cls-4" d="m854.93,978.85c1.59-.11,3.04,1.15,3.16,2.73.12,1.7-1.15,3.04-2.73,3.16-1.7.12-3.04-1.15-3.16-2.73-.24-1.69,1.03-3.04,2.73-3.16Z"/>
      <circle class="cls-4" cx="96.79" cy="727.46" r="3.29"/>
      <path class="cls-4" d="m165.34,915.08c2.83-.2,5.26,1.9,5.47,4.73s-1.9,5.26-4.73,5.47c-2.83.2-5.26-1.9-5.47-4.73s1.9-5.26,4.73-5.47Z"/>
      <path class="cls-4" d="m594.74,1129.16c2.61-.19,4.91,1.81,5.1,4.41s-1.81,4.91-4.41,5.1-4.91-1.81-5.1-4.41c-.19-2.61,1.81-4.91,4.41-5.1Z"/>
      <path class="cls-4" d="m545.19,784.95c1.81-.13,3.39,1.24,3.52,3.05s-1.24,3.39-3.05,3.52-3.39-1.24-3.52-3.05,1.12-3.38,3.05-3.52Z"/>
      <path class="cls-4" d="m43.3,989.83c1.93-.14,3.5,1.23,3.64,3.15s-1.23,3.5-3.15,3.64-3.5-1.23-3.64-3.15,1.34-3.51,3.15-3.64Z"/>
      <path class="cls-4" d="m679.83,850.17c1.25-.09,2.34.86,2.43,2.1s-.86,2.34-2.1,2.43-2.34-.86-2.43-2.1.86-2.34,2.1-2.43Z"/>
      <path class="cls-4" d="m631.63,900.22c1.13-.08,2.1.76,2.19,1.89s-.76,2.1-1.89,2.19-2.1-.76-2.19-1.89.76-2.1,1.89-2.19Z"/>
      <path class="cls-4" d="m666.88,916.92c2.15-.16,4.1,1.53,4.25,3.68s-1.53,4.1-3.68,4.25-4.1-1.53-4.25-3.68,1.41-4.09,3.68-4.25Z"/>
      <path class="cls-4" d="m140.51,943.52c2.15-.16,4.1,1.53,4.25,3.68.16,2.27-1.53,4.1-3.68,4.25-2.27.16-4.1-1.53-4.25-3.68s1.53-4.1,3.68-4.25Z"/>
      <circle class="cls-4" cx="811.2" cy="431.4" r="4.66"/>
      <circle class="cls-4" cx="95.63" cy="869.21" r="3.18"/>
      <path class="cls-4" d="m575.06,976.39c2.15-.16,4.09,1.41,4.25,3.68s-1.41,4.09-3.68,4.25-4.09-1.41-4.25-3.68c-.04-2.16,1.53-4.1,3.68-4.25Z"/>
      <path class="cls-4" d="m674.06,918.57c1.25-.09,2.34.86,2.43,2.1s-.86,2.34-2.1,2.43-2.34-.86-2.43-2.1.86-2.34,2.1-2.43Z"/>
      <circle class="cls-4" cx="508.15" cy="1158.53" r="3.18"/>
      <path class="cls-4" d="m623.42,1056.26c2.83-.2,5.38,2,5.59,4.84s-2,5.38-4.84,5.59c-2.83.2-5.38-2-5.59-4.84s2-5.38,4.84-5.59Z"/>
      <path class="cls-4" d="m710.8,805.91c1.47-.11,2.81,1.05,2.92,2.52s-1.05,2.81-2.52,2.92-2.81-1.05-2.92-2.52,1.05-2.81,2.52-2.92Z"/>
      <path class="cls-4" d="m391.57,707.78c2.72-.2,4.91,1.81,5.1,4.41s-1.81,4.91-4.41,5.1-4.91-1.81-5.1-4.41,1.81-4.91,4.41-5.1Z"/>
      <path class="cls-4" d="m261.38,447.05c2.49-.18,4.68,1.71,4.86,4.2s-1.71,4.68-4.2,4.86-4.68-1.71-4.86-4.2,1.71-4.68,4.2-4.86Z"/>
      <path class="cls-4" d="m813.55,1140.82c2.83-.2,5.26,1.9,5.47,4.73s-1.9,5.26-4.73,5.47-5.26-1.9-5.47-4.73,1.9-5.26,4.73-5.47Z"/>
      <path class="cls-4" d="m734.64,664.46c1.13-.08,2.1.76,2.19,1.89s-.76,2.1-1.89,2.19-2.1-.76-2.19-1.89c-.08-1.13.76-2.1,1.89-2.19Z"/>
      <path class="cls-4" d="m401.54,774.82c1.93-.14,3.63,1.33,3.77,3.26s-1.33,3.63-3.26,3.77-3.63-1.33-3.77-3.26,1.33-3.63,3.26-3.77Z"/>
      <path class="cls-4" d="m331.24,704.96c1.81-.13,3.28,1.24,3.4,2.94s-1.24,3.28-2.94,3.4-3.28-1.24-3.4-2.94,1.24-3.28,2.94-3.4Z"/>
      <circle class="cls-4" cx="686" cy="519.13" r="5"/>
      <path class="cls-4" d="m678.06,683.57c1.02-.07,1.87.66,1.94,1.68s-.66,1.87-1.68,1.94-1.87-.66-1.94-1.68c-.07-1.02.66-1.87,1.68-1.94Z"/>
      <path class="cls-4" d="m465.98,1109.19c3.74-.27,7.02,2.57,7.29,6.31s-2.57,7.02-6.31,7.29-7.02-2.57-7.29-6.31,2.45-7.01,6.31-7.29Z"/>
      <path class="cls-4" d="m795.81,978.68c3.29-.24,6.2,2.29,6.44,5.57s-2.29,6.2-5.57,6.44-6.2-2.29-6.44-5.57,2.29-6.2,5.57-6.44Z"/>
      <path class="cls-4" d="m178.42,326.29c2.15-.16,4.1,1.53,4.25,3.68s-1.53,4.1-3.68,4.25-4.1-1.53-4.25-3.68,1.41-4.09,3.68-4.25Z"/>
      <circle class="cls-4" cx="38.61" cy="1265.64" r="3.41"/>
      <path class="cls-4" d="m422.14,454.36c2.15-.16,3.97,1.42,4.13,3.57s-1.42,3.97-3.57,4.13-3.97-1.42-4.13-3.57c-.04-2.16,1.53-3.98,3.57-4.13Z"/>
      <circle class="cls-4" cx="905.3" cy="996.74" r="7.04"/>
      <path class="cls-4" d="m629.29,943.55c2.04-.15,3.74,1.32,3.89,3.36s-1.32,3.74-3.36,3.89-3.74-1.32-3.89-3.36,1.44-3.75,3.36-3.89Z"/>
      <path class="cls-4" d="m776.59,985.3c3.51-.25,6.66,2.37,6.92,5.99s-2.37,6.66-5.99,6.92-6.66-2.37-6.92-5.99,2.48-6.67,5.99-6.92Z"/>
      <path class="cls-4" d="m347.56,661.3c1.93-.14,3.51,1.34,3.64,3.15s-1.34,3.51-3.15,3.64-3.51-1.34-3.64-3.15,1.23-3.5,3.15-3.64Z"/>
      <path class="cls-4" d="m616.21,1068.4c.79-.06,1.52.57,1.58,1.37s-.57,1.52-1.37,1.58-1.52-.57-1.58-1.37.57-1.52,1.37-1.58Z"/>
      <path class="cls-4" d="m174.57,1104.6c1.13-.08,2.1.76,2.19,1.89s-.76,2.1-1.89,2.19-2.1-.76-2.19-1.89.76-2.1,1.89-2.19Z"/>
      <path class="cls-4" d="m445.69,818.55c1.81-.13,3.39,1.24,3.52,3.05s-1.24,3.39-3.05,3.52-3.39-1.24-3.52-3.05,1.24-3.39,3.05-3.52Z"/>
      <circle class="cls-4" cx="166.43" cy="1271.11" r="3.86"/>
      <path class="cls-4" d="m621.05,868.87c2.83-.2,5.26,1.9,5.47,4.73s-1.9,5.26-4.73,5.47-5.26-1.9-5.47-4.73,1.9-5.26,4.73-5.47Z"/>
      <path class="cls-4" d="m776.78,580.9c1.36-.1,2.46.96,2.55,2.21s-.96,2.46-2.21,2.55c-1.36.1-2.46-.96-2.55-2.21s.96-2.46,2.21-2.55Z"/>
      <path class="cls-4" d="m247.97,1151.23c3.4-.25,6.2,2.29,6.44,5.57s-2.29,6.2-5.57,6.44-6.2-2.29-6.44-5.57c-.24-3.29,2.29-6.2,5.57-6.44Z"/>
      <path class="cls-4" d="m801.19,1299.32c2.83-.2,5.26,1.9,5.47,4.73s-1.9,5.26-4.73,5.47-5.26-1.9-5.47-4.73,1.9-5.26,4.73-5.47Z"/>
      <path class="cls-4" d="m853.92,897.05c2.72-.2,5.15,1.91,5.34,4.63s-1.91,5.15-4.63,5.34-5.15-1.91-5.34-4.63,1.91-5.15,4.63-5.34Z"/>
      <path class="cls-4" d="m747.29,921.82c1.7-.12,3.16,1.14,3.28,2.84s-1.14,3.16-2.84,3.28-3.16-1.14-3.28-2.84,1.25-3.17,2.84-3.28Z"/>
      <path class="cls-4" d="m786.99,911.67c2.61-.19,4.8,1.82,4.98,4.31s-1.82,4.8-4.31,4.98-4.91-1.81-5.09-4.3,1.93-4.81,4.42-4.99Z"/>
      <path class="cls-4" d="m30.33,731.23c2.15-.16,4.1,1.53,4.25,3.68s-1.53,4.1-3.68,4.25c-2.15.16-4.1-1.53-4.25-3.68-.16-2.27,1.53-4.1,3.68-4.25Z"/>
      <path class="cls-4" d="m136.28,652.87c2.72-.2,5.03,1.8,5.22,4.52s-1.8,5.03-4.52,5.22-5.03-1.8-5.22-4.52,1.8-5.03,4.52-5.22Z"/>
      <path class="cls-4" d="m584.39,1223.97c2.72-.2,5.14,1.79,5.34,4.63s-1.79,5.14-4.63,5.34-5.14-1.79-5.34-4.63c-.08-2.73,1.91-5.15,4.63-5.34Z"/>
      <path class="cls-4" d="m258.78,1177.89c2.72-.2,5.03,1.8,5.22,4.52s-1.8,5.03-4.52,5.22-5.03-1.8-5.22-4.52,1.8-5.03,4.52-5.22Z"/>
      <path class="cls-4" d="m452.87,731.83c2.49-.18,4.68,1.71,4.86,4.2s-1.71,4.68-4.2,4.86-4.68-1.71-4.86-4.2c-.07-2.5,1.71-4.68,4.2-4.86Z"/>
      <path class="cls-4" d="m57.74,1065.2c2.49-.18,4.57,1.72,4.74,4.1s-1.72,4.57-4.1,4.74-4.57-1.72-4.74-4.1,1.61-4.56,4.1-4.74Z"/>
      <path class="cls-4" d="m860.22,1101.12c1.13-.08,2.1.76,2.19,1.89s-.76,2.1-1.89,2.19-2.1-.76-2.19-1.89c.03-1.14.87-2.11,1.89-2.19Z"/>
      <circle class="cls-4" cx="39.18" cy="1259.34" r="3.41"/>
      <path class="cls-4" d="m304.36,908.47c1.81-.13,3.39,1.24,3.52,3.05s-1.24,3.39-3.05,3.52-3.39-1.24-3.52-3.05,1.12-3.38,3.05-3.52Z"/>
      <path class="cls-4" d="m395.54,1258.22c1.93-.14,3.51,1.34,3.64,3.15s-1.34,3.51-3.15,3.64c-1.93.14-3.51-1.34-3.64-3.15s1.34-3.51,3.15-3.64Z"/>
      <circle class="cls-4" cx="778.75" cy="1020" r="5"/>
      <path class="cls-4" d="m746.86,1303.92c1.7-.12,3.28,1.24,3.4,2.94s-1.24,3.28-2.94,3.4-3.28-1.24-3.4-2.94,1.13-3.27,2.94-3.4Z"/>
      <circle class="cls-4" cx="654.97" cy="1084.84" r="2.61"/>
      <circle class="cls-4" cx="290.15" cy="1118.58" r="4.32" transform="translate(-79.77 23.79) rotate(-4.13)"/>
      <path class="cls-4" d="m695,596.49c1.93-.14,3.5,1.23,3.64,3.15s-1.23,3.5-3.15,3.64-3.5-1.23-3.64-3.15,1.23-3.5,3.15-3.64Z"/>
      <path class="cls-4" d="m326.81,949.67c2.27-.16,4.32,1.51,4.49,3.89s-1.51,4.32-3.89,4.49-4.32-1.51-4.49-3.89c-.05-2.27,1.62-4.33,3.89-4.49Z"/>
      <path class="cls-4" d="m637.83,1175.48c1.93-.14,3.74,1.32,3.89,3.36.14,1.93-1.32,3.74-3.36,3.89s-3.74-1.32-3.89-3.36c-.15-2.04,1.32-3.74,3.36-3.89Z"/>
      <path class="cls-4" d="m104.43,1027.44c1.47-.11,2.69.94,2.79,2.42s-.94,2.69-2.42,2.79-2.69-.94-2.79-2.42.94-2.69,2.42-2.79Z"/>
      <path class="cls-4" d="m560.7,1223.98c1.59-.11,2.92,1.04,3.04,2.63s-1.04,2.92-2.63,3.04-2.92-1.04-3.04-2.63,1.04-2.92,2.63-3.04Z"/>
      <path class="cls-4" d="m550.45,1178.14c2.15-.16,3.97,1.42,4.13,3.57s-1.42,3.97-3.57,4.13-3.97-1.42-4.13-3.57,1.53-3.98,3.57-4.13Z"/>
      <circle class="cls-4" cx="586.55" cy="715.91" r="6.13"/>
      <circle class="cls-4" cx="414.46" cy="849.73" r="4.66"/>
      <circle class="cls-4" cx="68.22" cy="1216.81" r="6.02" transform="translate(-87.41 8.07) rotate(-4.13)"/>
      <path class="cls-4" d="m921.75,680.33c2.27-.16,4.21,1.52,4.37,3.78s-1.52,4.21-3.78,4.37-4.21-1.52-4.37-3.78,1.52-4.21,3.78-4.37Z"/>
      <path class="cls-4" d="m705.97,1316.55c.79-.06,1.52.57,1.58,1.37s-.57,1.52-1.37,1.58-1.52-.57-1.58-1.37c-.06-.79.57-1.52,1.37-1.58Z"/>
      <path class="cls-4" d="m402.59,324.01c3.29-.24,6.2,2.29,6.44,5.57s-2.29,6.2-5.57,6.44-6.2-2.29-6.44-5.57,2.29-6.2,5.57-6.44Z"/>
      <circle class="cls-4" cx="94.53" cy="989.55" r=".91"/>
      <path class="cls-4" d="m558.77,335.74c1.59-.11,3.04,1.15,3.16,2.73s-1.15,3.04-2.73,3.16-3.04-1.15-3.16-2.73,1.03-3.04,2.73-3.16Z"/>
      <circle class="cls-4" cx="622.55" cy="777.66" r="5.79"/>
      <path class="cls-4" d="m861.97,1109.54c1.25-.09,2.45.85,2.55,2.21s-.85,2.45-2.21,2.55-2.45-.85-2.55-2.21.85-2.45,2.21-2.55Z"/>
      <path class="cls-4" d="m871.29,721.1c1.7-.12,3.28,1.24,3.4,2.94s-1.24,3.28-2.94,3.4c-1.81.13-3.28-1.24-3.4-2.94s1.13-3.27,2.94-3.4Z"/>
      <path class="cls-4" d="m143.62,955.03c2.61-.19,4.91,1.81,5.1,4.41s-1.81,4.91-4.41,5.1-4.91-1.81-5.1-4.41,1.81-4.91,4.41-5.1Z"/>
      <path class="cls-4" d="m871.65,1089.02c.57-.04,1.05.38,1.09.95s-.38,1.05-.95,1.09-1.05-.38-1.09-.95.38-1.05.95-1.09Z"/>
      <path class="cls-4" d="m437.58,988.59c2.95-.21,5.5,1.99,5.71,4.94s-1.99,5.5-4.94,5.71-5.5-1.99-5.71-4.94c-.21-2.95,1.99-5.5,4.94-5.71Z"/>
      <path class="cls-4" d="m298.33,807.55c1.13-.08,2.1.76,2.19,1.89s-.76,2.1-1.89,2.19-2.1-.76-2.19-1.89.87-2.11,1.89-2.19Z"/>
      <path class="cls-4" d="m731.33,482.83c1.59-.11,2.92,1.04,3.04,2.63s-1.04,2.92-2.63,3.04-2.92-1.04-3.04-2.63,1.04-2.92,2.63-3.04Z"/>
      <path class="cls-4" d="m303.41,1330.8c2.38-.17,4.56,1.61,4.74,4.1s-1.61,4.56-4.1,4.74-4.56-1.61-4.74-4.1c-.17-2.38,1.61-4.56,4.1-4.74Z"/>
      <path class="cls-4" d="m894.86,1238.69c2.49-.18,4.68,1.71,4.86,4.2s-1.71,4.68-4.2,4.86-4.68-1.71-4.86-4.2,1.71-4.68,4.2-4.86Z"/>
      <circle class="cls-4" cx="728.83" cy="1325.49" r="6.02"/>
      <path class="cls-4" d="m807.12,851.34c1.93-.14,3.63,1.33,3.77,3.26s-1.33,3.63-3.26,3.77-3.63-1.33-3.77-3.26,1.33-3.63,3.26-3.77Z"/>
      <path class="cls-4" d="m251.9,1093.55c2.38-.17,4.44,1.62,4.62,3.99s-1.62,4.44-3.99,4.62-4.44-1.62-4.62-3.99,1.73-4.45,3.99-4.62Z"/>
      <path class="cls-4" d="m91.42,1096.36c1.25-.09,2.45.85,2.55,2.21s-.85,2.45-2.21,2.55c-1.25.09-2.45-.85-2.55-2.21s.96-2.46,2.21-2.55Z"/>
      <path class="cls-4" d="m418.43,955.24c2.49-.18,4.56,1.61,4.74,4.1s-1.61,4.56-4.1,4.74-4.56-1.61-4.74-4.1,1.61-4.56,4.1-4.74Z"/>
      <path class="cls-4" d="m421.48,904.46c1.25-.09,2.23.86,2.31,2s-.86,2.23-2,2.31c-1.25.09-2.23-.86-2.31-2s.86-2.23,2-2.31Z"/>
      <path class="cls-4" d="m815.25,1259.13c2.04-.15,3.86,1.43,4.01,3.47s-1.43,3.86-3.47,4.01-3.86-1.43-4.01-3.47,1.43-3.86,3.47-4.01Z"/>
      <path class="cls-4" d="m630.73,1261.74c3.06-.22,5.73,2.09,5.95,5.15s-2.09,5.73-5.15,5.95-5.73-2.09-5.95-5.15,2.09-5.73,5.15-5.95Z"/>
      <path class="cls-4" d="m730.7,1091.11c1.36-.1,2.57.95,2.67,2.31s-.95,2.57-2.31,2.67-2.57-.95-2.67-2.31c0-1.48.95-2.57,2.31-2.67Z"/>
      <circle class="cls-4" cx="219.24" cy="974.06" r="6.02"/>
      <path class="cls-4" d="m741.44,1317.18c1.02-.07,1.87.66,1.94,1.68s-.66,1.87-1.68,1.94-1.87-.66-1.94-1.68.78-1.88,1.68-1.94Z"/>
      <path class="cls-4" d="m817.41,807.78c3.74-.27,6.9,2.58,7.17,6.2s-2.58,6.9-6.2,7.17c-3.63.26-6.9-2.58-7.17-6.2s2.58-6.9,6.2-7.17Z"/>
      <path class="cls-4" d="m901.29,942.71c1.36-.1,2.46.96,2.55,2.21.1,1.36-.96,2.46-2.21,2.55-1.36.1-2.46-.96-2.55-2.21s.96-2.46,2.21-2.55Z"/>
      <path class="cls-4" d="m890.83,1201.74c2.15-.16,4.1,1.53,4.25,3.68s-1.53,4.1-3.68,4.25-4.1-1.53-4.25-3.68c-.16-2.27,1.53-4.1,3.68-4.25Z"/>
      <path class="cls-4" d="m202.99,819.78c2.61-.19,4.91,1.81,5.1,4.41s-1.81,4.91-4.41,5.1-4.91-1.81-5.1-4.41,1.81-4.91,4.41-5.1Z"/>
      <circle class="cls-4" cx="815.73" cy="756.09" r="3.18" transform="translate(-52.31 60.68) rotate(-4.13)"/>
      <circle class="cls-4" cx="795.51" cy="994.99" r="4.2"/>
      <path class="cls-4" d="m428,1201.44c1.36-.1,2.45.85,2.55,2.21s-.85,2.45-2.21,2.55-2.45-.85-2.55-2.21c-.09-1.25.85-2.45,2.21-2.55Z"/>
      <path class="cls-4" d="m842.04,1055.97c2.38-.17,4.56,1.61,4.74,4.1s-1.61,4.56-4.1,4.74-4.56-1.61-4.74-4.1c-.18-2.49,1.61-4.56,4.1-4.74Z"/>
      <path class="cls-4" d="m939.04,642.19c3.17-.23,5.97,2.19,6.19,5.36s-2.19,5.97-5.36,6.19-5.97-2.19-6.19-5.36,2.19-5.97,5.36-6.19Z"/>
      <path class="cls-4" d="m876,1221.95c1.81-.13,3.39,1.24,3.52,3.05s-1.24,3.39-3.05,3.52-3.39-1.24-3.52-3.05c-.24-1.8,1.12-3.38,3.05-3.52Z"/>
      <circle class="cls-4" cx="551.4" cy="773.23" r="6.36"/>
      <path class="cls-4" d="m285.43,1103.77c1.59-.11,2.81,1.05,2.92,2.52.11,1.59-1.05,2.81-2.52,2.92-1.59.11-2.81-1.05-2.92-2.52-.22-1.46.94-2.8,2.52-2.92Z"/>
      <circle class="cls-4" cx="296.95" cy="1277.52" r="3.07" transform="translate(-91.19 24.69) rotate(-4.13)"/>
      <circle class="cls-4" cx="739.44" cy="549.55" r="7.72" transform="translate(-37.64 54.65) rotate(-4.13)"/>
      <path class="cls-4" d="m65.91,1266.75c1.25-.09,2.34.86,2.43,2.1s-.86,2.34-2.1,2.43-2.34-.86-2.43-2.1.86-2.34,2.1-2.43Z"/>
    </g>
  </g>
</svg>