<?xml version="1.0" encoding="utf-8"?>
<!-- Generator: Adobe Illustrator 27.6.1, SVG Export Plug-In . SVG Version: 6.00 Build 0)  -->
<svg version="1.1" id="Layer_1" xmlns="http://www.w3.org/2000/svg" xmlns:xlink="http://www.w3.org/1999/xlink" x="0px" y="0px"
	 viewBox="0 0 2874.9 1296.7" style="enable-background:new 0 0 2874.9 1296.7;" xml:space="preserve">
<style type="text/css">
	.st0{opacity:0.35;}
	.st1{fill:none;stroke:#26C49E;stroke-miterlimit:10;}
	.st2{opacity:0.5;}
	.st3{fill:#26C49E;}
</style>
<g id="lines" class="st0">
	<line class="st1" x1="1404.3" y1="1204.4" x2="1419.2" y2="1223.1"/>
	<line class="st1" x1="601.4" y1="1120.6" x2="659.5" y2="1169.5"/>
	<line class="st1" x1="1667.9" y1="1058.9" x2="1659.4" y2="924.4"/>
	<path class="st1" d="M1399,1362.4"/>
	<line class="st1" x1="166.5" y1="1292.2" x2="225.1" y2="1258.3"/>
	<line class="st1" x1="708.7" y1="1140" x2="659.5" y2="1169.5"/>
	<line class="st1" x1="2122" y1="1160.8" x2="2045.7" y2="1079.3"/>
	<line class="st1" x1="2414.4" y1="1365.1" x2="2510" y2="1282.9"/>
	<line class="st1" x1="2770.7" y1="1159.6" x2="2644.8" y2="1070.6"/>
	<line class="st1" x1="2676.7" y1="906.9" x2="2542.8" y2="792.1"/>
	<line class="st1" x1="154.3" y1="830.4" x2="329.4" y2="802.3"/>
	<line class="st1" x1="1341.1" y1="662.9" x2="1625.2" y2="530.4"/>
	<line class="st1" x1="2469.6" y1="1239.1" x2="2288.4" y2="1290.4"/>
	<line class="st1" x1="2023.1" y1="952.6" x2="2045.7" y2="1079.3"/>
	<line class="st1" x1="1252.3" y1="1257.8" x2="1219.8" y2="1151.7"/>
	<line class="st1" x1="1419.2" y1="1223.1" x2="1322.4" y2="1169.9"/>
	<line class="st1" x1="627.6" y1="1287.9" x2="663.8" y2="1248.6"/>
	<line class="st1" x1="166.5" y1="1292.2" x2="70.6" y2="1311.9"/>
	<line class="st1" x1="848.9" y1="1352.9" x2="956.5" y2="1417"/>
	<line class="st1" x1="1767.2" y1="1172.7" x2="1892.4" y2="1233"/>
	<line class="st1" x1="2542.8" y1="792.1" x2="2423.9" y2="770.7"/>
	<line class="st1" x1="2834.2" y1="826" x2="2676.7" y2="906.9"/>
	<line class="st1" x1="2556.7" y1="1329.7" x2="2469.6" y2="1239.1"/>
	<line class="st1" x1="1013.4" y1="1206.5" x2="960.9" y2="1281.3"/>
	<line class="st1" x1="1425.8" y1="1252.2" x2="1419.2" y2="1223.1"/>
	<line class="st1" x1="2834.2" y1="826" x2="2764.1" y2="1001.7"/>
	<line class="st1" x1="920.2" y1="1350.8" x2="960.9" y2="1281.3"/>
	<line class="st1" x1="2211.2" y1="754" x2="2230.6" y2="733.4"/>
	<line class="st1" x1="132.2" y1="1344.6" x2="70.6" y2="1311.9"/>
	<line class="st1" x1="1492.3" y1="1311.1" x2="1404.3" y2="1204.4"/>
	<line class="st1" x1="1900.1" y1="1349.2" x2="1767.2" y2="1172.7"/>
	<path class="st1" d="M1505.3,1275.2"/>
	<line class="st1" x1="1252.3" y1="1257.8" x2="1280.1" y2="1231.2"/>
	<line class="st1" x1="1219.8" y1="1151.7" x2="1322.4" y2="1169.9"/>
	<line class="st1" x1="853.4" y1="1022.4" x2="659.5" y2="1169.5"/>
	<line class="st1" x1="848.9" y1="1352.9" x2="960.9" y2="1281.3"/>
	<line class="st1" x1="2676.7" y1="906.9" x2="2499.9" y2="897"/>
	<line class="st1" x1="708.7" y1="1140" x2="663.8" y2="1248.6"/>
	<line class="st1" x1="1404.3" y1="1204.4" x2="1322.4" y2="1169.9"/>
	<line class="st1" x1="1795" y1="815.8" x2="1754.7" y2="894.8"/>
	<line class="st1" x1="1404.3" y1="1204.4" x2="1280.1" y2="1231.2"/>
	<line class="st1" x1="2293.4" y1="892.8" x2="2329.5" y2="972"/>
	<line class="st1" x1="1933.4" y1="1019.2" x2="2045.7" y2="1079.3"/>
	<line class="st1" x1="1667.9" y1="1058.9" x2="1767.2" y2="1172.7"/>
	<line class="st1" x1="2469.6" y1="1239.1" x2="2510" y2="1282.9"/>
	<line class="st1" x1="2770.1" y1="1235.5" x2="2510" y2="1282.9"/>
	<line class="st1" x1="1013.4" y1="1206.5" x2="1219.8" y2="1151.7"/>
	<path class="st1" d="M1111.2,1343.6"/>
	<line class="st1" x1="663.8" y1="1248.6" x2="659.5" y2="1169.5"/>
	<line class="st1" x1="1786.2" y1="1186" x2="1892.4" y2="1233"/>
	<line class="st1" x1="1425.8" y1="1252.2" x2="1404.3" y2="1204.4"/>
	<line class="st1" x1="2477.2" y1="1014.8" x2="2329.5" y2="972"/>
	<line class="st1" x1="1933.4" y1="1019.2" x2="2023.1" y2="952.6"/>
	<line class="st1" x1="1195" y1="1190.4" x2="1219.8" y2="1151.7"/>
	<line class="st1" x1="1795" y1="815.8" x2="1659.4" y2="924.4"/>
	<path class="st1" d="M1399,1362.4"/>
	<line class="st1" x1="1278.9" y1="1123.6" x2="1219.8" y2="1151.7"/>
	<line class="st1" x1="2499.9" y1="897" x2="2423.9" y2="770.7"/>
	<line class="st1" x1="2477.2" y1="1014.8" x2="2499.9" y2="897"/>
	<line class="st1" x1="2414.4" y1="1365.1" x2="2469.6" y2="1239.1"/>
	<line class="st1" x1="2764.1" y1="1001.7" x2="2676.7" y2="906.9"/>
	<line class="st1" x1="1795" y1="815.8" x2="1793.3" y2="664.8"/>
	<line class="st1" x1="1280.1" y1="1231.2" x2="1322.4" y2="1169.9"/>
	<path class="st1" d="M145.2,1308.7"/>
	<line class="st1" x1="1900.1" y1="1349.2" x2="1786.2" y2="1186"/>
	<line class="st1" x1="2770.7" y1="1159.6" x2="2764.1" y2="1001.7"/>
	<line class="st1" x1="1425.8" y1="1252.2" x2="1492.3" y2="1311.1"/>
	<path class="st1" d="M268.7,1380.9"/>
	<line class="st1" x1="1098.2" y1="1379.6" x2="920.2" y2="1350.8"/>
	<path class="st1" d="M1111.2,1343.6"/>
	<line class="st1" x1="132.2" y1="1344.6" x2="166.5" y2="1292.2"/>
	<line class="st1" x1="1656.5" y1="424.7" x2="1625.2" y2="530.4"/>
	<line class="st1" x1="1195" y1="1190.4" x2="1322.4" y2="1169.9"/>
	<line class="st1" x1="1278.9" y1="1123.6" x2="1322.4" y2="1169.9"/>
	<line class="st1" x1="1195" y1="1190.4" x2="1280.1" y2="1231.2"/>
	<line class="st1" x1="1278.9" y1="1123.6" x2="1280.1" y2="1231.2"/>
	<line class="st1" x1="804.6" y1="1047.8" x2="659.5" y2="1169.5"/>
	<line class="st1" x1="2293.4" y1="892.8" x2="2423.9" y2="770.7"/>
	<line class="st1" x1="1013.4" y1="1206.5" x2="920.2" y2="1350.8"/>
	<line class="st1" x1="2770.7" y1="1159.6" x2="2770.1" y2="1235.5"/>
	<path class="st1" d="M268.7,1380.9"/>
	<line class="st1" x1="1933.4" y1="1019.2" x2="1923.5" y2="1021.7"/>
	<line class="st1" x1="2411" y1="992.6" x2="2329.5" y2="972"/>
	<line class="st1" x1="-20" y1="1240.2" x2="166.5" y2="1292.2"/>
	<line class="st1" x1="1195" y1="1190.4" x2="1278.9" y2="1123.6"/>
	<line class="st1" x1="2770.1" y1="1235.5" x2="2469.6" y2="1239.1"/>
	<line class="st1" x1="-20" y1="1240.2" x2="132.2" y2="1344.6"/>
	<line class="st1" x1="804.6" y1="1047.8" x2="853.4" y2="1022.4"/>
	<line class="st1" x1="2644.8" y1="1225.8" x2="2679.7" y2="1290.3"/>
	<line class="st1" x1="1786.2" y1="1186" x2="1767.2" y2="1172.7"/>
	<line class="st1" x1="1724" y1="547.9" x2="1625.2" y2="530.4"/>
	<line class="st1" x1="255.7" y1="1416.8" x2="132.2" y2="1344.6"/>
	<line class="st1" x1="2423.9" y1="770.7" x2="2230.6" y2="733.4"/>
	<line class="st1" x1="1431.4" y1="1297.6" x2="1492.3" y2="1311.1"/>
	<line class="st1" x1="663.8" y1="1248.6" x2="442.9" y2="1274.1"/>
	<line class="st1" x1="2293.4" y1="892.8" x2="2411" y2="992.6"/>
	<line class="st1" x1="1431.4" y1="1297.6" x2="1280.1" y2="1231.2"/>
	<line class="st1" x1="2293.4" y1="892.8" x2="2155.5" y2="844.6"/>
	<line class="st1" x1="689.7" y1="1163.8" x2="659.5" y2="1169.5"/>
	<line class="st1" x1="2477.2" y1="1014.8" x2="2411" y2="992.6"/>
	<line class="st1" x1="1425.8" y1="1252.2" x2="1431.4" y2="1297.6"/>
	<line class="st1" x1="1069.4" y1="952.5" x2="853.4" y2="1022.4"/>
	<line class="st1" x1="168.2" y1="1282.9" x2="166.5" y2="1292.2"/>
	<line class="st1" x1="353.1" y1="1206.2" x2="442.9" y2="1274.1"/>
	<line class="st1" x1="848.9" y1="1352.9" x2="917.9" y2="1350.8"/>
	<line class="st1" x1="1281.8" y1="1066.7" x2="1322.4" y2="1169.9"/>
	<path class="st1" d="M145.2,1308.7"/>
	<line class="st1" x1="1724" y1="547.9" x2="1656.5" y2="424.7"/>
	<line class="st1" x1="358.3" y1="1195.1" x2="442.9" y2="1274.1"/>
	<line class="st1" x1="353.1" y1="1206.2" x2="358.3" y2="1195.1"/>
	<line class="st1" x1="2230.6" y1="733.4" x2="2155.5" y2="844.6"/>
	<line class="st1" x1="2723.9" y1="963.8" x2="2676.7" y2="906.9"/>
	<line class="st1" x1="353.1" y1="1206.2" x2="251" y2="1132"/>
	<line class="st1" x1="1281.8" y1="1068.5" x2="1278.9" y2="1123.6"/>
	<line class="st1" x1="1418.2" y1="1134.6" x2="1278.9" y2="1123.6"/>
	<line class="st1" x1="2723.9" y1="963.8" x2="2764.1" y2="1001.7"/>
	<path class="st1" d="M268.7,1380.9"/>
	<path class="st1" d="M902.1,1317"/>
	<line class="st1" x1="353.1" y1="1206.2" x2="168.2" y2="1282.9"/>
	<line class="st1" x1="2506.9" y1="1046.7" x2="2477.2" y2="1014.8"/>
	<line class="st1" x1="251" y1="1132" x2="358.3" y2="1195.1"/>
	<line class="st1" x1="1069.4" y1="952.5" x2="804.6" y2="1047.8"/>
	<line class="st1" x1="2506.9" y1="1046.7" x2="2469.6" y2="1239.1"/>
	<line class="st1" x1="-21" y1="1271.5" x2="132.2" y2="1344.6"/>
	<line class="st1" x1="507.7" y1="1346.8" x2="663.8" y2="1248.6"/>
	<line class="st1" x1="2723.9" y1="963.8" x2="2477.2" y2="1014.8"/>
	<line class="st1" x1="1786.2" y1="1186" x2="1898.6" y2="1265.4"/>
	<line class="st1" x1="1795" y1="815.8" x2="1994.8" y2="840.9"/>
	<line class="st1" x1="473.8" y1="1081.1" x2="358.3" y2="1195.1"/>
	<line class="st1" x1="804.6" y1="1047.8" x2="689.7" y2="1163.8"/>
	<line class="st1" x1="1513.5" y1="953" x2="1418.2" y2="1134.6"/>
	<line class="st1" x1="-21" y1="1271.5" x2="-20" y2="1240.2"/>
	<line class="st1" x1="251" y1="1132" x2="168.2" y2="1282.9"/>
	<line class="st1" x1="101.4" y1="1017.6" x2="358.3" y2="1195.1"/>
	<line class="st1" x1="507.7" y1="1346.8" x2="442.9" y2="1274.1"/>
	<line class="st1" x1="1431.4" y1="1297.6" x2="1418.2" y2="1134.6"/>
	<path class="st1" d="M181.2,1247"/>
	<line class="st1" x1="473.8" y1="1081.1" x2="251" y2="1132"/>
	<line class="st1" x1="2506.9" y1="1046.7" x2="2411" y2="992.6"/>
	<line class="st1" x1="902.4" y1="814.1" x2="804.6" y2="1047.8"/>
	<line class="st1" x1="2023.1" y1="952.6" x2="1994.8" y2="840.9"/>
	<line class="st1" x1="101.4" y1="1017.6" x2="251" y2="1132"/>
	<line class="st1" x1="1994.8" y1="840.9" x2="2155.5" y2="844.6"/>
	<line class="st1" x1="1529.1" y1="911.5" x2="1513.5" y2="953"/>
	<line class="st1" x1="101.4" y1="1017.6" x2="168.2" y2="1282.9"/>
	<line class="st1" x1="1281.8" y1="1068.5" x2="1418.2" y2="1134.6"/>
	<line class="st1" x1="473.8" y1="1081.1" x2="689.7" y2="1163.8"/>
	<line class="st1" x1="1069.4" y1="952.5" x2="902.4" y2="814.1"/>
	<line class="st1" x1="-21" y1="1271.5" x2="168.2" y2="1282.9"/>
	<line class="st1" x1="1994.8" y1="840.9" x2="2006" y2="655"/>
	<line class="st1" x1="2155.5" y1="844.6" x2="2131.3" y2="839.7"/>
	<line class="st1" x1="507.7" y1="1346.8" x2="689.7" y2="1163.8"/>
	<path class="st1" d="M1534.6,1372.3"/>
	<line class="st1" x1="2723.9" y1="963.8" x2="2506.9" y2="1046.7"/>
	<line class="st1" x1="1069.4" y1="952.5" x2="1076.7" y2="825.7"/>
	<line class="st1" x1="2131.3" y1="839.7" x2="2006" y2="655"/>
	<line class="st1" x1="1994.8" y1="840.9" x2="2131.3" y2="839.7"/>
	<line class="st1" x1="902.4" y1="814.1" x2="1076.7" y2="825.7"/>
	<line class="st1" x1="1898.6" y1="1265.4" x2="1951.5" y2="1321.4"/>
	<line class="st1" x1="1898.6" y1="1265.4" x2="1914.6" y2="1318.1"/>
	<line class="st1" x1="1521.6" y1="1408.2" x2="1609.3" y2="1373.6"/>
	<line class="st1" x1="1609.3" y1="1373.6" x2="1951.5" y2="1321.4"/>
	<line class="st1" x1="1529.1" y1="911.5" x2="1469.3" y2="882.8"/>
	<line class="st1" x1="1914.6" y1="1318.1" x2="1951.5" y2="1321.4"/>
	<line class="st1" x1="1609.3" y1="1373.6" x2="1914.6" y2="1318.1"/>
	<path class="st1" d="M348.6,1253.6"/>
	<line class="st1" x1="1508.4" y1="1270.4" x2="1434.9" y2="1338.1"/>
	<line class="st1" x1="335.6" y1="1289.6" x2="148.7" y2="1357.5"/>
	<line class="st1" x1="2275.5" y1="961.9" x2="2108.3" y2="1047.4"/>
	<line class="st1" x1="335.6" y1="1289.6" x2="276.4" y2="1394.4"/>
	<path class="st1" d="M161.7,1321.6"/>
	<path class="st1" d="M289.4,1358.5"/>
	<line class="st1" x1="1508.4" y1="1270.4" x2="1356" y2="1243.2"/>
	<path class="st1" d="M1447.9,1302.2"/>
	<line class="st1" x1="2275.5" y1="961.9" x2="2181.3" y2="945.3"/>
	<line class="st1" x1="2275.5" y1="961.9" x2="2239.7" y2="1050.1"/>
	<line class="st1" x1="1434.9" y1="1338.1" x2="1213.9" y2="1347.2"/>
	<line class="st1" x1="2108.3" y1="1047.4" x2="2311.7" y2="1070.4"/>
	<line class="st1" x1="2275.5" y1="961.9" x2="2298.1" y2="989.5"/>
	<line class="st1" x1="2108.3" y1="1047.4" x2="2181.3" y2="945.3"/>
	<line class="st1" x1="2108.3" y1="1047.4" x2="2239.7" y2="1050.1"/>
	<line class="st1" x1="1434.9" y1="1338.1" x2="1356" y2="1243.2"/>
	<line class="st1" x1="1983.5" y1="706.2" x2="1994.4" y2="867.5"/>
	<line class="st1" x1="276.4" y1="1394.4" x2="148.7" y2="1357.5"/>
	<line class="st1" x1="498.8" y1="1176.8" x2="485.3" y2="1160.5"/>
	<line class="st1" x1="1762.4" y1="814.3" x2="1707.4" y2="863.4"/>
	<line class="st1" x1="622.1" y1="813.9" x2="669.2" y2="881.6"/>
	<path class="st1" d="M161.7,1321.6"/>
	<line class="st1" x1="669.2" y1="881.6" x2="400.1" y2="827.8"/>
	<path class="st1" d="M289.4,1358.5"/>
	<line class="st1" x1="2239.7" y1="1050.1" x2="2311.7" y2="1070.4"/>
	<line class="st1" x1="1847.2" y1="835.9" x2="1762.4" y2="814.3"/>
	<line class="st1" x1="2181.3" y1="945.3" x2="2239.7" y2="1050.1"/>
	<line class="st1" x1="1651.5" y1="1017.9" x2="1775.9" y2="1152.7"/>
	<path class="st1" d="M289.4,1358.5"/>
	<line class="st1" x1="2265.3" y1="672.6" x2="2046.7" y2="622"/>
	<line class="st1" x1="2311.7" y1="1070.4" x2="2298.1" y2="989.5"/>
	<line class="st1" x1="2302.3" y1="1219.9" x2="2311.7" y2="1070.4"/>
	<line class="st1" x1="498.8" y1="1176.8" x2="654.8" y2="1256.1"/>
	<line class="st1" x1="2181.3" y1="945.3" x2="2298.1" y2="989.5"/>
	<line class="st1" x1="1742.8" y1="1272.3" x2="1651.4" y2="1356.3"/>
	<line class="st1" x1="1920.8" y1="925" x2="1994.4" y2="867.5"/>
	<line class="st1" x1="1775.9" y1="1152.7" x2="1742.8" y2="1272.3"/>
	<line class="st1" x1="2407.3" y1="599.3" x2="2265.3" y2="672.6"/>
	<line class="st1" x1="2239.7" y1="1050.1" x2="2298.1" y2="989.5"/>
	<line class="st1" x1="669.2" y1="881.6" x2="383.2" y2="904.2"/>
	<line class="st1" x1="1356" y1="1243.2" x2="1213.9" y2="1347.2"/>
	<line class="st1" x1="622.1" y1="813.9" x2="400.1" y2="827.8"/>
	<line class="st1" x1="2265.3" y1="672.6" x2="2106.7" y2="634.2"/>
	<line class="st1" x1="2876.6" y1="1147.4" x2="2711.5" y2="1185.3"/>
	<line class="st1" x1="669.2" y1="881.6" x2="580.8" y2="972.6"/>
	<line class="st1" x1="1762.4" y1="814.3" x2="1891" y2="890.9"/>
	<line class="st1" x1="1719.3" y1="1288.4" x2="1742.8" y2="1272.3"/>
	<line class="st1" x1="498.8" y1="1176.8" x2="381.2" y2="1168.9"/>
	<line class="st1" x1="1651.5" y1="1017.9" x2="1787.6" y2="1100.9"/>
	<line class="st1" x1="1994.4" y1="867.5" x2="1891" y2="890.9"/>
	<line class="st1" x1="2181.3" y1="945.3" x2="2046.9" y2="957.2"/>
	<line class="st1" x1="1895.4" y1="900.1" x2="1847.2" y2="835.9"/>
	<line class="st1" x1="2812" y1="1085.9" x2="2569.5" y2="1138.9"/>
	<line class="st1" x1="1587.6" y1="832.4" x2="1762.4" y2="814.3"/>
	<line class="st1" x1="1920.8" y1="925" x2="1895.4" y2="900.1"/>
	<line class="st1" x1="2302.3" y1="1219.9" x2="2111.5" y2="1202.8"/>
	<path class="st1" d="M1226.9,1311.3"/>
	<path class="st1" d="M2642.1,1332.8"/>
	<line class="st1" x1="2384.1" y1="1098.7" x2="2311.7" y2="1070.4"/>
	<path class="st1" d="M1732.2,1252.4"/>
	<line class="st1" x1="1719.3" y1="1288.4" x2="1775.9" y2="1152.7"/>
	<line class="st1" x1="2812" y1="1085.9" x2="2635.7" y2="1000.2"/>
	<line class="st1" x1="400.1" y1="827.8" x2="383.2" y2="904.2"/>
	<line class="st1" x1="622.1" y1="813.9" x2="580.8" y2="972.6"/>
	<line class="st1" x1="2629.1" y1="1368.7" x2="2479.7" y2="1365"/>
	<line class="st1" x1="1356" y1="1243.2" x2="1249.1" y2="1219.7"/>
	<line class="st1" x1="1847.2" y1="835.9" x2="1891" y2="890.9"/>
	<line class="st1" x1="2046.9" y1="957.2" x2="1920.8" y2="925"/>
	<line class="st1" x1="1587.6" y1="832.4" x2="1707.4" y2="863.4"/>
	<line class="st1" x1="485.3" y1="1160.5" x2="381.2" y2="1168.9"/>
	<line class="st1" x1="2673.9" y1="904.4" x2="2635.7" y2="1000.2"/>
	<line class="st1" x1="498.8" y1="1176.8" x2="434.9" y2="1129.7"/>
	<line class="st1" x1="2046.7" y1="622" x2="2106.7" y2="634.2"/>
	<line class="st1" x1="1920.8" y1="925" x2="1891" y2="890.9"/>
	<line class="st1" x1="1920.8" y1="925" x2="1885.1" y2="973.7"/>
	<line class="st1" x1="2812" y1="1085.9" x2="2712.1" y2="1026"/>
	<line class="st1" x1="1787.6" y1="1100.9" x2="1775.9" y2="1152.7"/>
	<line class="st1" x1="2149.7" y1="851.2" x2="2181.3" y2="945.3"/>
	<line class="st1" x1="1895.4" y1="900.1" x2="1891" y2="890.9"/>
	<line class="st1" x1="1895.4" y1="900.1" x2="1885.1" y2="973.7"/>
	<line class="st1" x1="1213.9" y1="1347.2" x2="1239.6" y2="1342.4"/>
	<line class="st1" x1="2812" y1="1085.9" x2="2744.1" y2="948.4"/>
	<line class="st1" x1="2384.1" y1="1098.7" x2="2302.3" y2="1219.9"/>
	<line class="st1" x1="622.1" y1="813.9" x2="365.4" y2="775.3"/>
	<line class="st1" x1="2407.3" y1="599.3" x2="2106.7" y2="634.2"/>
	<line class="st1" x1="899.9" y1="1200.9" x2="720.3" y2="1129.4"/>
	<line class="st1" x1="899.9" y1="1200.9" x2="732.2" y2="1161.5"/>
	<line class="st1" x1="2075.8" y1="580.8" x2="2046.7" y2="622"/>
	<line class="st1" x1="2140.6" y1="701.2" x2="2046.7" y2="622"/>
	<line class="st1" x1="654.8" y1="1256.1" x2="720.3" y2="1129.4"/>
	<line class="st1" x1="1775.9" y1="1152.7" x2="1555.1" y2="1157.7"/>
	<line class="st1" x1="365.4" y1="775.3" x2="400.1" y2="827.8"/>
	<path class="st1" d="M388.6,1351.9"/>
	<line class="st1" x1="654.8" y1="1256.1" x2="732.2" y2="1161.5"/>
	<line class="st1" x1="2673.9" y1="904.4" x2="2744.1" y2="948.4"/>
	<line class="st1" x1="2569.5" y1="1138.9" x2="2635.7" y2="1000.2"/>
	<line class="st1" x1="1356" y1="1243.2" x2="1239.6" y2="1342.4"/>
	<line class="st1" x1="2046.9" y1="957.2" x2="1885.1" y2="973.7"/>
	<line class="st1" x1="732.2" y1="1161.5" x2="720.3" y2="1129.4"/>
	<line class="st1" x1="485.3" y1="1160.5" x2="336.8" y2="1105.6"/>
	<line class="st1" x1="1975.2" y1="459.1" x2="2046.7" y2="622"/>
	<line class="st1" x1="1885.1" y1="973.7" x2="1891" y2="890.9"/>
	<line class="st1" x1="2569.5" y1="1138.9" x2="2575.5" y2="1094.8"/>
	<line class="st1" x1="654.8" y1="1256.1" x2="647.3" y2="1344.5"/>
	<line class="st1" x1="2075.8" y1="580.8" x2="2106.7" y2="634.2"/>
	<line class="st1" x1="2140.6" y1="701.2" x2="2106.7" y2="634.2"/>
	<line class="st1" x1="580.8" y1="972.6" x2="383.2" y2="904.2"/>
	<line class="st1" x1="2569.5" y1="1138.9" x2="2384.1" y2="1098.7"/>
	<path class="st1" d="M388.6,1351.9"/>
	<line class="st1" x1="1761.1" y1="491.4" x2="1940.8" y2="595.3"/>
	<line class="st1" x1="2046.7" y1="622" x2="1940.8" y2="595.3"/>
	<line class="st1" x1="2575.5" y1="1094.8" x2="2635.7" y2="1000.2"/>
	<path class="st1" d="M2492.7,1329"/>
	<line class="st1" x1="2140.6" y1="701.2" x2="2075.8" y2="580.8"/>
	<line class="st1" x1="899.9" y1="1200.9" x2="1009.1" y2="1327.9"/>
	<line class="st1" x1="2302.3" y1="1219.9" x2="2288.4" y2="1290.4"/>
	<line class="st1" x1="2712.1" y1="1026" x2="2635.7" y2="1000.2"/>
	<line class="st1" x1="365.4" y1="775.3" x2="383.2" y2="904.2"/>
	<line class="st1" x1="2149.7" y1="851.2" x2="2046.9" y2="957.2"/>
	<line class="st1" x1="2179.4" y1="538.7" x2="2046.7" y2="622"/>
	<line class="st1" x1="2083" y1="1330.5" x2="2111.5" y2="1202.8"/>
	<line class="st1" x1="2045.3" y1="950" x2="2046.9" y2="957.2"/>
	<line class="st1" x1="1249.1" y1="1219.7" x2="1239.6" y2="1342.4"/>
	<line class="st1" x1="2635.7" y1="1000.2" x2="2744.1" y2="948.4"/>
	<line class="st1" x1="2575.5" y1="1094.8" x2="2712.1" y2="1026"/>
	<line class="st1" x1="1975.2" y1="459.1" x2="2075.8" y2="580.8"/>
	<line class="st1" x1="2045.3" y1="950" x2="1885.1" y2="973.7"/>
	<path class="st1" d="M2642.1,1332.8"/>
	<line class="st1" x1="2407.3" y1="599.3" x2="2179.4" y2="538.7"/>
	<path class="st1" d="M1526.7,1374.7"/>
	<line class="st1" x1="2501" y1="733.8" x2="2407.3" y2="599.3"/>
	<path class="st1" d="M1598.9,1375.6"/>
	<line class="st1" x1="2629.1" y1="1368.7" x2="2556.7" y2="1329.7"/>
	<line class="st1" x1="2075.8" y1="580.8" x2="1940.8" y2="595.3"/>
	<line class="st1" x1="1719.3" y1="1288.4" x2="1583.6" y2="1267.5"/>
	<line class="st1" x1="2179.4" y1="538.7" x2="2106.7" y2="634.2"/>
	<line class="st1" x1="1068.2" y1="1264.2" x2="1239.6" y2="1342.4"/>
	<path class="st1" d="M1252.6,1306.5"/>
	<line class="st1" x1="654.8" y1="1256.1" x2="505.2" y2="1277.5"/>
	<line class="st1" x1="2712.1" y1="1026" x2="2744.1" y2="948.4"/>
	<line class="st1" x1="1068.2" y1="1264.2" x2="1009.1" y2="1327.9"/>
	<line class="st1" x1="1961" y1="1087.6" x2="1787.6" y2="1100.9"/>
	<line class="st1" x1="720.3" y1="1129.4" x2="630.7" y2="1118.6"/>
	<line class="st1" x1="2706" y1="1052.1" x2="2835.5" y2="968.3"/>
	<line class="st1" x1="1249.1" y1="1219.7" x2="1278.9" y2="1123.6"/>
	<line class="st1" x1="732.2" y1="1161.5" x2="630.7" y2="1118.6"/>
	<line class="st1" x1="1975.2" y1="459.1" x2="1940.8" y2="595.3"/>
	<line class="st1" x1="2179.4" y1="538.7" x2="2075.8" y2="580.8"/>
	<line class="st1" x1="154.3" y1="830.4" x2="383.2" y2="904.2"/>
	<line class="st1" x1="2569.5" y1="1138.9" x2="2644.8" y2="1070.6"/>
	<path class="st1" d="M660.3,1308.6"/>
	<line class="st1" x1="2149.7" y1="851.2" x2="2045.3" y2="950"/>
	<line class="st1" x1="2211.2" y1="754" x2="2106.7" y2="634.2"/>
	<line class="st1" x1="580.8" y1="972.6" x2="630.7" y2="1118.6"/>
	<line class="st1" x1="1513.8" y1="1410.6" x2="1454.5" y2="1370.8"/>
	<line class="st1" x1="1585.9" y1="1411.5" x2="1454.5" y2="1370.8"/>
	<line class="st1" x1="336.8" y1="1105.6" x2="381.2" y2="1168.9"/>
	<line class="st1" x1="647.3" y1="1344.5" x2="505.2" y2="1277.5"/>
	<line class="st1" x1="1483.1" y1="1319.5" x2="1454.5" y2="1370.8"/>
	<path class="st1" d="M1252.6,1306.5"/>
	<line class="st1" x1="1448.9" y1="1318.5" x2="1454.5" y2="1370.8"/>
	<line class="st1" x1="2706" y1="1052.1" x2="2711.5" y2="1185.3"/>
	<line class="st1" x1="2556.7" y1="1329.7" x2="2479.7" y2="1365"/>
	<line class="st1" x1="1975.2" y1="459.1" x2="2179.4" y2="538.7"/>
	<line class="st1" x1="2644.8" y1="1070.6" x2="2635.7" y2="1000.2"/>
	<line class="st1" x1="1585.9" y1="1411.5" x2="1513.8" y2="1410.6"/>
	<line class="st1" x1="1483.1" y1="1319.5" x2="1513.8" y2="1410.6"/>
	<line class="st1" x1="434.9" y1="1129.7" x2="381.2" y2="1168.9"/>
	<line class="st1" x1="1583.6" y1="1267.5" x2="1555.1" y2="1157.7"/>
	<line class="st1" x1="1585.9" y1="1411.5" x2="1483.1" y2="1319.5"/>
	<line class="st1" x1="1249.1" y1="1219.7" x2="1190" y2="1150.7"/>
	<line class="st1" x1="1448.9" y1="1318.5" x2="1513.8" y2="1410.6"/>
	<line class="st1" x1="2211.2" y1="754" x2="2140.6" y2="701.2"/>
	<line class="st1" x1="2111.5" y1="1202.8" x2="2181.4" y2="1217.9"/>
	<line class="st1" x1="2575.5" y1="1094.8" x2="2644.8" y2="1070.6"/>
	<line class="st1" x1="1754.7" y1="894.8" x2="1891" y2="890.9"/>
	<line class="st1" x1="1448.9" y1="1318.5" x2="1483.1" y2="1319.5"/>
	<line class="st1" x1="1754.7" y1="894.8" x2="1885.1" y2="973.7"/>
	<path class="st1" d="M1235.1,1293.1"/>
	<line class="st1" x1="2835.5" y1="968.3" x2="2678.2" y2="1015.9"/>
	<line class="st1" x1="647.3" y1="1344.5" x2="627.6" y2="1287.9"/>
	<path class="st1" d="M969.5,1381.1"/>
	<line class="st1" x1="381.2" y1="1168.9" x2="475.3" y2="1171.6"/>
	<line class="st1" x1="2712.1" y1="1026" x2="2644.8" y2="1070.6"/>
	<path class="st1" d="M969.5,1381.1"/>
	<line class="st1" x1="1483.1" y1="1319.5" x2="1583.6" y2="1267.5"/>
	<line class="st1" x1="365.4" y1="775.3" x2="154.3" y2="830.4"/>
	<line class="st1" x1="2479.7" y1="1365" x2="2510" y2="1282.9"/>
	<line class="st1" x1="1448.9" y1="1318.5" x2="1583.6" y2="1267.5"/>
	<line class="st1" x1="1222.1" y1="1329" x2="1239.6" y2="1342.4"/>
	<path class="st1" d="M388.6,1351.9"/>
	<path class="st1" d="M2569.7,1293.7"/>
	<line class="st1" x1="2288.4" y1="1290.4" x2="2083" y2="1330.5"/>
	<line class="st1" x1="107.2" y1="1117.5" x2="120.5" y2="1215.7"/>
	<line class="st1" x1="2211.2" y1="754" x2="2149.7" y2="851.2"/>
	<line class="st1" x1="1961" y1="1087.6" x2="2139.6" y2="1104.4"/>
	<line class="st1" x1="2711.5" y1="1185.3" x2="2678.2" y2="1015.9"/>
	<path class="st1" d="M1235.1,1293.1"/>
	<line class="st1" x1="1761.1" y1="491.4" x2="1625.2" y2="530.4"/>
	<line class="st1" x1="406.2" y1="1287.3" x2="375.6" y2="1387.8"/>
	<line class="st1" x1="434.9" y1="1129.7" x2="336.8" y2="1105.6"/>
	<line class="st1" x1="1068.2" y1="1264.2" x2="960.9" y2="1281.3"/>
	<line class="st1" x1="375.6" y1="1387.8" x2="383.4" y2="1349.8"/>
	<line class="st1" x1="1009.1" y1="1327.9" x2="956.5" y2="1417"/>
	<line class="st1" x1="2045.3" y1="950" x2="2009.1" y2="1012.8"/>
	<path class="st1" d="M2742.2,1356.6"/>
	<line class="st1" x1="2706" y1="1052.1" x2="2678.2" y2="1015.9"/>
	<path class="st1" d="M660.3,1308.6"/>
	<line class="st1" x1="1386" y1="1398.3" x2="1454.5" y2="1370.8"/>
	<line class="st1" x1="107.2" y1="1117.5" x2="54.9" y2="1259.7"/>
	<line class="st1" x1="2868.6" y1="945.5" x2="2835.5" y2="968.3"/>
	<line class="st1" x1="1667.9" y1="1058.9" x2="1787.6" y2="1100.9"/>
	<line class="st1" x1="336.8" y1="1105.6" x2="475.3" y2="1171.6"/>
	<line class="st1" x1="1961" y1="1087.6" x2="2009.1" y2="1012.8"/>
	<line class="st1" x1="1587.6" y1="832.4" x2="1659.4" y2="924.4"/>
	<line class="st1" x1="406.2" y1="1287.3" x2="505.2" y2="1277.5"/>
	<line class="st1" x1="505.2" y1="1277.5" x2="383.4" y2="1349.8"/>
	<line class="st1" x1="214.1" y1="1253.4" x2="120.5" y2="1215.7"/>
	<path class="st1" d="M396.3,1313.9"/>
	<line class="st1" x1="1009.1" y1="1327.9" x2="960.9" y2="1281.3"/>
	<line class="st1" x1="120.5" y1="1215.7" x2="225.1" y2="1258.3"/>
	<line class="st1" x1="475.3" y1="1171.6" x2="505.2" y2="1277.5"/>
	<line class="st1" x1="434.9" y1="1129.7" x2="475.3" y2="1171.6"/>
	<line class="st1" x1="2834.2" y1="826" x2="2744.1" y2="948.4"/>
	<line class="st1" x1="2542.8" y1="792.1" x2="2501" y2="733.8"/>
	<line class="st1" x1="2083" y1="1330.5" x2="2181.4" y2="1217.9"/>
	<line class="st1" x1="54.9" y1="1259.7" x2="120.5" y2="1215.7"/>
	<line class="st1" x1="627.6" y1="1287.9" x2="505.2" y2="1277.5"/>
	<line class="st1" x1="376.3" y1="1346.9" x2="375.6" y2="1387.8"/>
	<path class="st1" d="M2427.3,1329.2"/>
	<line class="st1" x1="1793.3" y1="664.8" x2="1940.8" y2="595.3"/>
	<line class="st1" x1="406.2" y1="1287.3" x2="383.4" y2="1349.8"/>
	<line class="st1" x1="-0.3" y1="1411.1" x2="88.2" y2="1403.1"/>
	<line class="st1" x1="214.1" y1="1253.4" x2="225.1" y2="1258.3"/>
	<line class="st1" x1="1900.1" y1="1349.2" x2="2083" y2="1330.5"/>
	<line class="st1" x1="70.6" y1="1311.9" x2="88.2" y2="1403.1"/>
	<line class="st1" x1="214.1" y1="1253.4" x2="54.9" y2="1259.7"/>
	<line class="st1" x1="601.4" y1="1120.6" x2="630.7" y2="1118.6"/>
	<line class="st1" x1="1961" y1="1087.6" x2="2045.7" y2="1079.3"/>
	<line class="st1" x1="2122" y1="1160.8" x2="1961" y2="1087.6"/>
	<line class="st1" x1="2288.4" y1="1290.4" x2="2181.4" y2="1217.9"/>
	<line class="st1" x1="2139.6" y1="1104.4" x2="2181.4" y2="1217.9"/>
	<line class="st1" x1="336.8" y1="1105.6" x2="374.1" y2="1072.8"/>
	<path class="st1" d="M389.3,1311"/>
	<line class="st1" x1="708.7" y1="1140" x2="630.7" y2="1118.6"/>
	<line class="st1" x1="2510" y1="1282.9" x2="2288.4" y2="1290.4"/>
	<path class="st1" d="M101.1,1367.2"/>
	<line class="st1" x1="956.5" y1="1417" x2="960.9" y2="1281.3"/>
	<line class="st1" x1="376.3" y1="1346.9" x2="406.2" y2="1287.3"/>
	<line class="st1" x1="2045.7" y1="1079.3" x2="2139.6" y2="1104.4"/>
	<line class="st1" x1="2122" y1="1160.8" x2="2139.6" y2="1104.4"/>
	<line class="st1" x1="376.3" y1="1346.9" x2="383.4" y2="1349.8"/>
	<line class="st1" x1="601.4" y1="1120.6" x2="475.3" y2="1171.6"/>
	<line class="st1" x1="2644.8" y1="1225.8" x2="2711.5" y2="1185.3"/>
	<path class="st1" d="M2742.2,1356.6"/>
	<line class="st1" x1="54.9" y1="1259.7" x2="70.6" y2="1311.9"/>
	<line class="st1" x1="2414.4" y1="1365.1" x2="2288.4" y2="1290.4"/>
	<line class="st1" x1="2556.7" y1="1329.7" x2="2510" y2="1282.9"/>
	<line class="st1" x1="374.1" y1="1072.8" x2="475.3" y2="1171.6"/>
	<line class="st1" x1="1754.7" y1="894.8" x2="1659.4" y2="924.4"/>
	<line class="st1" x1="1252.3" y1="1257.8" x2="1222.1" y2="1329"/>
	<line class="st1" x1="2868.6" y1="945.5" x2="2678.2" y2="1015.9"/>
	<line class="st1" x1="2834.2" y1="826" x2="2542.8" y2="792.1"/>
	<path class="st1" d="M640.6,1252"/>
	<line class="st1" x1="365.4" y1="775.3" x2="329.4" y2="802.3"/>
	<line class="st1" x1="2045.7" y1="1079.3" x2="2009.1" y2="1012.8"/>
	<line class="st1" x1="70.6" y1="1311.9" x2="-0.3" y2="1411.1"/>
	<line class="st1" x1="1900.1" y1="1349.2" x2="1892.4" y2="1233"/>
	<line class="st1" x1="2556.7" y1="1329.7" x2="2414.4" y2="1365.1"/>
	<line class="st1" x1="627.6" y1="1287.9" x2="659.5" y2="1169.5"/>
	<line class="st1" x1="708.7" y1="1140" x2="601.4" y2="1120.6"/>
	<line class="st1" x1="1219.8" y1="1151.7" x2="1190" y2="1150.7"/>
	<line class="st1" x1="2023.1" y1="952.6" x2="2009.1" y2="1012.8"/>
	<path class="st1" d="M12.7,1375.2"/>
	<line class="st1" x1="2542.8" y1="792.1" x2="2499.9" y2="897"/>
	<line class="st1" x1="2122" y1="1160.8" x2="2181.4" y2="1217.9"/>
	<line class="st1" x1="853.4" y1="1022.4" x2="961.4" y2="1066.7"/>
	<line class="st1" x1="1098.2" y1="1379.6" x2="1222.1" y2="1329"/>
</g>
<g id="dots" class="st2">
	<path class="st3" d="M2265.8,602.6c4.7,0,8.4,2.8,8.4,6.2c0,3.5-3.8,6.2-8.4,6.2s-8.4-2.8-8.4-6.2
		C2257.3,605.4,2261.1,602.6,2265.8,602.6z"/>
	<path class="st3" d="M2297.3,1064.4c3.4,0,6.1,2,6.1,4.5c0,2.5-2.7,4.5-6.1,4.5c-3.4,0-6.1-2-6.1-4.5
		C2291.2,1066.5,2293.9,1064.4,2297.3,1064.4z"/>
	<path class="st3" d="M591.2,1097.8c6.4,0,11.6,3.8,11.6,8.6c0,4.7-5.2,8.6-11.6,8.6c-6.4,0-11.6-3.8-11.6-8.6
		C579.6,1101.6,584.8,1097.8,591.2,1097.8z"/>
	<path class="st3" d="M2827.6,1380.2"/>
	<path class="st3" d="M473.6,778.6c3.5,0,6.4,2.1,6.4,4.7s-2.8,4.7-6.4,4.7s-6.4-2.1-6.4-4.7S470,778.6,473.6,778.6z"/>
	<path class="st3" d="M1688.1,1018.2c5.1,0,9.3,3.1,9.3,6.9c0,3.8-4.1,6.9-9.3,6.9c-5.1,0-9.3-3.1-9.3-6.9
		C1678.8,1021.3,1683,1018.2,1688.1,1018.2z"/>
	<path class="st3" d="M1266.4,1016.8c2.2,0,4.1,1.3,4.1,3c0,1.7-1.8,3-4.1,3c-2.2,0-4.1-1.3-4.1-3
		C1262.4,1018.2,1264.2,1016.8,1266.4,1016.8z"/>
	<path class="st3" d="M1273.5,1378c0-1.8,2-3.3,4.4-3.3c2.4,0,4.4,1.5,4.4,3.3"/>
	<ellipse class="st3" cx="1985" cy="763.8" rx="11.3" ry="8.4"/>
	<path class="st3" d="M930.1,1313.5c1.8,0,3.4,1.1,3.4,2.5s-1.5,2.5-3.4,2.5c-1.8,0-3.4-1.1-3.4-2.5
		C926.7,1314.6,928.2,1313.5,930.1,1313.5z"/>
	<path class="st3" d="M1907.4,1244.1c1.4,0,2.6,0.9,2.6,1.9c0,1.1-1.2,1.9-2.6,1.9c-1.4,0-2.6-0.9-2.6-1.9
		C1904.8,1244.9,1906,1244.1,1907.4,1244.1z"/>
	<path class="st3" d="M2071.4,1039.7c5.4,0,9.9,3.3,9.9,7.3c0,4-4.4,7.3-9.9,7.3c-5.4,0-9.9-3.3-9.9-7.3
		C2061.6,1043,2066,1039.7,2071.4,1039.7z"/>
	<path class="st3" d="M2179.3,926.4c2,0,3.6,1.2,3.6,2.6c0,1.5-1.6,2.6-3.6,2.6s-3.6-1.2-3.6-2.6
		C2175.7,927.5,2177.3,926.4,2179.3,926.4z"/>
	<path class="st3" d="M2136.8,779.8c3.2,0,5.7,1.9,5.7,4.3c0,2.4-2.6,4.3-5.7,4.3s-5.7-1.9-5.7-4.3
		C2131,781.7,2133.6,779.8,2136.8,779.8z"/>
	<path class="st3" d="M2220.2,1132.5c3.6,0,6.5,2.2,6.5,4.8s-2.9,4.8-6.5,4.8c-3.6,0-6.5-2.2-6.5-4.8S2216.6,1132.5,2220.2,1132.5z"
		/>
	<path class="st3" d="M1908.6,1353.9c2.2,0,4,1.3,4,3c0,1.7-1.8,3-4,3s-4-1.3-4-3C1904.6,1355.2,1906.4,1353.9,1908.6,1353.9z"/>
	<path class="st3" d="M1342.5,764.8c4.6,0,8.4,2.7,8.4,6.1c0,3.4-3.8,6.1-8.4,6.1s-8.4-2.7-8.4-6.1
		C1334.1,767.5,1337.9,764.8,1342.5,764.8z"/>
	<path class="st3" d="M1176.3,1220c3.8,0,6.9,2.3,6.9,5.1c0,2.8-3.1,5.1-6.9,5.1c-3.8,0-6.9-2.3-6.9-5.1
		C1169.4,1222.3,1172.5,1220,1176.3,1220z"/>
	<path class="st3" d="M2357.7,1101.4c2.7,0,4.9,1.6,4.9,3.6s-2.2,3.6-4.9,3.6s-4.9-1.6-4.9-3.6S2355.1,1101.4,2357.7,1101.4z"/>
	<path class="st3" d="M2244.2,526c3.2,0,5.7,1.9,5.7,4.3c0,2.3-2.6,4.3-5.7,4.3s-5.7-1.9-5.7-4.3
		C2238.5,527.9,2241.1,526,2244.2,526z"/>
	<path class="st3" d="M1417.7,550.3c5.1,0,9.2,3,9.2,6.8s-4.1,6.8-9.2,6.8s-9.2-3-9.2-6.8S1412.6,550.3,1417.7,550.3z"/>
	<path class="st3" d="M656.8,802.2c3.7,0,6.7,2.2,6.7,4.9c0,2.7-3,4.9-6.7,4.9s-6.7-2.2-6.7-4.9
		C650.1,804.4,653.1,802.2,656.8,802.2z"/>
	<path class="st3" d="M1463.5,652.8c1.9,0,3.5,1.1,3.5,2.6c0,1.4-1.5,2.6-3.5,2.6s-3.5-1.1-3.5-2.6
		C1460,654,1461.6,652.8,1463.5,652.8z"/>
	<path class="st3" d="M224.2,821.4c2.8,0,5,1.7,5,3.7s-2.2,3.7-5,3.7c-2.8,0-5-1.7-5-3.7S221.4,821.4,224.2,821.4z"/>
	<path class="st3" d="M2081.1,625.9c3.5,0,6.4,2.1,6.4,4.8c0,2.6-2.9,4.8-6.4,4.8s-6.4-2.1-6.4-4.8
		C2074.7,628,2077.5,625.9,2081.1,625.9z"/>
	<path class="st3" d="M2844.4,1111.9c-1.6,0.7-3.4,0.3-4-0.8c-0.6-1.2,0.2-2.7,1.8-3.4c1.6-0.7,3.4-0.3,4,0.8
		C2846.8,1109.7,2846,1111.2,2844.4,1111.9z"/>
	<path class="st3" d="M10.6,988.2c2.8,0,5.1,1.7,5.1,3.8c0,2.1-2.3,3.8-5.1,3.8S5.5,994,5.5,992C5.5,989.9,7.8,988.2,10.6,988.2z"/>
	<path class="st3" d="M2433.8,810.7c-3,1.3-6.4,0.6-7.5-1.6c-1.1-2.2,0.4-5.1,3.4-6.5c3-1.3,6.4-0.6,7.5,1.6
		C2438.3,806.5,2436.8,809.4,2433.8,810.7z"/>
	<path class="st3" d="M1316.4,575.9c1.6,0,3,1,3,2.2s-1.3,2.2-3,2.2c-1.6,0-3-1-3-2.2S1314.7,575.9,1316.4,575.9z"/>
	<path class="st3" d="M2138.8,1028.5c3.6,0,6.6,2.2,6.6,4.9c0,2.7-3,4.9-6.6,4.9c-3.6,0-6.6-2.2-6.6-4.9
		C2132.2,1030.7,2135.2,1028.5,2138.8,1028.5z"/>
	<path class="st3" d="M2789.6,962.2c-2.6,1.2-5.5,0.5-6.4-1.4c-1-1.9,0.3-4.4,2.9-5.6c2.6-1.2,5.5-0.5,6.4,1.4
		C2793.4,958.5,2792.1,961,2789.6,962.2z"/>
	<path class="st3" d="M2051.8,549.6c2.9,0,5.2,1.7,5.2,3.9c0,2.1-2.3,3.9-5.2,3.9c-2.9,0-5.2-1.7-5.2-3.9
		C2046.6,551.3,2048.9,549.6,2051.8,549.6z"/>
	<path class="st3" d="M985,1315.1c1.9,0,3.5,1.1,3.5,2.6c0,1.4-1.5,2.6-3.5,2.6c-1.9,0-3.5-1.1-3.5-2.6
		C981.6,1316.3,983.1,1315.1,985,1315.1z"/>
	<path class="st3" d="M1475.4,1237.8c3.6,0,6.5,2.1,6.5,4.8s-2.9,4.8-6.5,4.8c-3.6,0-6.5-2.1-6.5-4.8S1471.9,1237.8,1475.4,1237.8z"
		/>
	<path class="st3" d="M2729.7,1298.5c1.9,0,3.5,1.1,3.5,2.6c0,1.4-1.5,2.6-3.5,2.6s-3.5-1.1-3.5-2.6
		C2726.3,1299.7,2727.8,1298.5,2729.7,1298.5z"/>
	<path class="st3" d="M2666.4,1377.6c0-2.5,2.7-4.5,6.1-4.5c3.4,0,6.1,2,6.1,4.5"/>
	<path class="st3" d="M1485.3,385.7c1.8,0,3.2,1.1,3.2,2.4c0,1.3-1.4,2.4-3.2,2.4s-3.2-1.1-3.2-2.4
		C1482.1,386.8,1483.5,385.7,1485.3,385.7z"/>
	<path class="st3" d="M423.4,909.8c2.9,0,5.2,1.7,5.2,3.8c0,2.1-2.3,3.8-5.2,3.8c-2.9,0-5.2-1.7-5.2-3.8
		C418.2,911.5,420.5,909.8,423.4,909.8z"/>
	<path class="st3" d="M2855.4,1147.8c3.5,0,6.4,2.1,6.4,4.8c0,2.6-2.9,4.8-6.4,4.8c-3.5,0-6.4-2.1-6.4-4.8
		C2849,1149.9,2851.9,1147.8,2855.4,1147.8z"/>
	<path class="st3" d="M1915.6,718.3c2,0,3.6,1.2,3.6,2.7s-1.6,2.7-3.6,2.7s-3.6-1.2-3.6-2.7S1913.6,718.3,1915.6,718.3z"/>
	<path class="st3" d="M1183.7,934.1c4.9,0,8.9,2.9,8.9,6.6c0,3.6-4,6.6-8.9,6.6s-8.9-2.9-8.9-6.6
		C1174.9,937.1,1178.8,934.1,1183.7,934.1z"/>
	<path class="st3" d="M151.3,1255.9c3.5,0,6.3,2.1,6.3,4.7c0,2.6-2.8,4.7-6.3,4.7c-3.5,0-6.3-2.1-6.3-4.7
		C145,1258,147.8,1255.9,151.3,1255.9z"/>
	<path class="st3" d="M650.6,972.3c2.2,0,4,1.3,4,3s-1.8,3-4,3c-2.2,0-4-1.3-4-3C646.6,973.6,648.4,972.3,650.6,972.3z"/>
	<path class="st3" d="M2762.1,1382.4c-4.3,1.9-9.1,0.9-10.8-2.3c-1.6-3.2,0.6-7.3,4.9-9.3c4.3-1.9,9.1-0.9,10.8,2.3
		C2768.6,1376.4,2766.4,1380.5,2762.1,1382.4z"/>
	<path class="st3" d="M2496.5,1396.9c1.9,0,3.5,1.2,3.5,2.6s-1.6,2.6-3.5,2.6s-3.5-1.2-3.5-2.6S2494.6,1396.9,2496.5,1396.9z"/>
	<path class="st3" d="M2263.2,1167.2c2.4,0,4.4,1.5,4.4,3.2c0,1.8-2,3.2-4.4,3.2c-2.4,0-4.4-1.5-4.4-3.2
		S2260.8,1167.2,2263.2,1167.2z"/>
	<path class="st3" d="M1992.8,1257c4,0,7.2,2.4,7.2,5.4s-3.2,5.4-7.2,5.4c-4,0-7.2-2.4-7.2-5.4S1988.9,1257,1992.8,1257z"/>
	<path class="st3" d="M2771.2,855.2c-3.6,1.6-7.5,0.7-8.9-1.9s0.5-6.1,4-7.6c3.6-1.6,7.5-0.7,8.9,1.9
		C2776.6,850.2,2774.8,853.7,2771.2,855.2z"/>
	<path class="st3" d="M882.8,992.5c3.3,0,6,2,6,4.5c0,2.5-2.7,4.5-6,4.5c-3.3,0-6-2-6-4.5C876.8,994.5,879.5,992.5,882.8,992.5z"/>
	<path class="st3" d="M475.1,1382.4c4.5,0,8.2,2.7,8.2,6.1s-3.7,6.1-8.2,6.1c-4.5,0-8.2-2.7-8.2-6.1S470.6,1382.4,475.1,1382.4z"/>
	<path class="st3" d="M2762.2,1220.3c3.4,0,6.1,2,6.1,4.5c0,2.5-2.7,4.5-6.1,4.5c-3.4,0-6.1-2-6.1-4.5
		C2756.1,1222.4,2758.8,1220.3,2762.2,1220.3z"/>
	<path class="st3" d="M2798.3,913.8c-2.6,1.2-5.5,0.5-6.5-1.4c-1-1.9,0.3-4.4,2.9-5.6c2.6-1.2,5.5-0.5,6.5,1.4
		C2802.3,910.2,2801,912.7,2798.3,913.8z"/>
	<path class="st3" d="M1916.6,925.1c2.6,0,4.6,1.5,4.6,3.4c0,1.9-2.1,3.4-4.6,3.4c-2.6,0-4.6-1.5-4.6-3.4
		C1912,926.6,1914,925.1,1916.6,925.1z"/>
	<path class="st3" d="M1806.1,543.9c2.1,0,3.8,1.3,3.8,2.8s-1.7,2.8-3.8,2.8s-3.8-1.3-3.8-2.8S1804,543.9,1806.1,543.9z"/>
	<path class="st3" d="M477.7,1150.4c2.5,0,4.5,1.5,4.5,3.3c0,1.8-2,3.3-4.5,3.3c-2.5,0-4.5-1.5-4.5-3.3
		C473.3,1151.9,475.2,1150.4,477.7,1150.4z"/>
	<path class="st3" d="M807.2,1153.6c1.2,0,2.2,0.7,2.2,1.6c0,0.9-1,1.6-2.2,1.6s-2.2-0.7-2.2-1.6
		C805,1154.4,806,1153.6,807.2,1153.6z"/>
	<path class="st3" d="M1342.9,1280c3.3,0,6,2,6,4.5c0,2.5-2.7,4.5-6,4.5c-3.3,0-6-2-6-4.5C1336.8,1282,1339.5,1280,1342.9,1280z"/>
	<path class="st3" d="M2850.3,858.7c-3.7,1.6-7.8,0.8-9.2-2c-1.4-2.7,0.5-6.3,4.2-8c3.7-1.6,7.8-0.8,9.2,2S2854,857,2850.3,858.7z"
		/>
	<path class="st3" d="M2605.2,648.3c3.3,0,6,2,6,4.5c0,2.5-2.7,4.5-6,4.5s-6-2-6-4.5C2599.2,650.3,2601.9,648.3,2605.2,648.3z"/>
	<path class="st3" d="M1771.5,1191.5c2.9,0,5.2,1.7,5.2,3.9s-2.4,3.9-5.2,3.9c-2.9,0-5.2-1.7-5.2-3.9S1768.6,1191.5,1771.5,1191.5z"
		/>
	<path class="st3" d="M1011.1,1177.6c2.1,0,3.9,1.3,3.9,2.9c0,1.6-1.7,2.9-3.9,2.9c-2.1,0-3.9-1.3-3.9-2.9
		C1007.3,1178.9,1009,1177.6,1011.1,1177.6z"/>
	<path class="st3" d="M2260.4,838.1c2.1,0,3.8,1.3,3.8,2.8c0,1.5-1.7,2.8-3.8,2.8s-3.8-1.3-3.8-2.8
		C2256.6,839.4,2258.3,838.1,2260.4,838.1z"/>
	<path class="st3" d="M1654.2,832.2c2.2,0,4.1,1.4,4.1,3c0,1.7-1.8,3-4.1,3s-4.1-1.4-4.1-3C1650.1,833.6,1652,832.2,1654.2,832.2z"
		/>
	<path class="st3" d="M1644.2,1385.5c3.1,0,5.6,1.9,5.6,4.2s-2.5,4.2-5.6,4.2s-5.6-1.9-5.6-4.2
		C1638.6,1387.4,1641.1,1385.5,1644.2,1385.5z"/>
	<path class="st3" d="M1745.2,1084.2c5,0,9,3,9,6.7c0,3.7-4,6.7-9,6.7c-5,0-9-3-9-6.7C1736.2,1087.2,1740.2,1084.2,1745.2,1084.2z"
		/>
	<path class="st3" d="M1612.7,658c1.4,0,2.6,0.9,2.6,1.9c0,1.1-1.2,1.9-2.6,1.9s-2.6-0.9-2.6-1.9
		C1610.1,658.8,1611.3,658,1612.7,658z"/>
	<path class="st3" d="M1480.9,1204.7c3.8,0,6.8,2.3,6.8,5c0,2.8-3.1,5-6.8,5c-3.8,0-6.8-2.3-6.8-5
		C1474.1,1207,1477.1,1204.7,1480.9,1204.7z"/>
	<path class="st3" d="M2324.9,1309.7c2.6,0,4.7,1.6,4.7,3.5c0,1.9-2.1,3.5-4.7,3.5s-4.7-1.6-4.7-3.5
		C2320.1,1311.3,2322.3,1309.7,2324.9,1309.7z"/>
	<path class="st3" d="M2215.3,1367.1c1.1,0,2,0.6,2,1.4s-0.9,1.4-2,1.4s-2-0.6-2-1.4S2214.2,1367.1,2215.3,1367.1z"/>
	<path class="st3" d="M138.5,1184.7c3.6,0,6.6,2.2,6.6,4.9c0,2.7-2.9,4.9-6.6,4.9c-3.6,0-6.6-2.2-6.6-4.9
		C131.9,1186.8,134.9,1184.7,138.5,1184.7z"/>
	<path class="st3" d="M1314.7,1393.7c1.9,0,3.5,1.1,3.5,2.6c0,1.4-1.5,2.6-3.5,2.6c-1.9,0-3.5-1.1-3.5-2.6
		S1312.8,1393.7,1314.7,1393.7z"/>
	<path class="st3" d="M500.7,1235.2c0.5,0,0.9,0.3,0.9,0.7c0,0.4-0.4,0.7-0.9,0.7s-0.9-0.3-0.9-0.7
		C499.8,1235.5,500.2,1235.2,500.7,1235.2z"/>
	<path class="st3" d="M646.1,1294.5c2.8,0,5.2,1.7,5.2,3.8c0,2.1-2.3,3.8-5.2,3.8c-2.8,0-5.2-1.7-5.2-3.8
		C640.9,1296.2,643.2,1294.5,646.1,1294.5z"/>
	<path class="st3" d="M2236.5,472.2c3.3,0,5.9,2,5.9,4.4c0,2.4-2.7,4.4-5.9,4.4c-3.3,0-5.9-2-5.9-4.4
		C2230.5,474.2,2233.2,472.2,2236.5,472.2z"/>
	<path class="st3" d="M1855.9,1167.9c1.2,0,2.2,0.7,2.2,1.6c0,0.9-1,1.6-2.2,1.6s-2.2-0.7-2.2-1.6
		C1853.7,1168.6,1854.7,1167.9,1855.9,1167.9z"/>
	<ellipse class="st3" cx="2450" cy="1285.7" rx="3.6" ry="2.7"/>
	<path class="st3" d="M24.4,878.5c1.4,0,2.6,0.9,2.6,2.1c0,1.2-1.2,2.1-2.6,2.1c-1.4,0-2.6-0.9-2.6-2.1S22.9,878.5,24.4,878.5z"/>
	<path class="st3" d="M2355.1,527.4c3.1,0,5.6,1.8,5.6,4.1c0,2.3-2.5,4.1-5.6,4.1c-3.1,0-5.6-1.8-5.6-4.1
		C2349.5,529.3,2352,527.4,2355.1,527.4z"/>
	<path class="st3" d="M1518.8,877.4c4.8,0,8.7,2.9,8.7,6.5c0,3.6-3.9,6.5-8.7,6.5c-4.8,0-8.7-2.9-8.7-6.5S1514,877.4,1518.8,877.4z"
		/>
	<path class="st3" d="M1000.7,774.4c0.8,0,1.4,0.5,1.4,1c0,0.6-0.6,1-1.4,1s-1.4-0.5-1.4-1C999.3,774.9,999.9,774.4,1000.7,774.4z"
		/>
	<path class="st3" d="M743,922.3c3.5,0,6.3,2.1,6.3,4.7c0,2.6-2.8,4.7-6.3,4.7s-6.3-2.1-6.3-4.7C736.7,924.4,739.5,922.3,743,922.3z
		"/>
	<path class="st3" d="M2104.4,972c1.9,0,3.4,1.1,3.4,2.5c0,1.4-1.5,2.5-3.4,2.5c-1.9,0-3.4-1.1-3.4-2.5
		C2101,973.1,2102.6,972,2104.4,972z"/>
	<ellipse class="st3" cx="2312" cy="1397.3" rx="4.7" ry="3.5"/>
	<path class="st3" d="M824,1189.5c4.5,0,8.2,2.7,8.2,6.1c0,3.4-3.7,6.1-8.2,6.1c-4.5,0-8.2-2.7-8.2-6.1
		C815.9,1192.2,819.5,1189.5,824,1189.5z"/>
	<path class="st3" d="M2550.1,1039.6c2.9,0,5.2,1.7,5.2,3.9c0,2.1-2.3,3.9-5.2,3.9s-5.2-1.7-5.2-3.9
		C2544.9,1041.4,2547.3,1039.6,2550.1,1039.6z"/>
	<path class="st3" d="M1096.8,841.2c4,0,7.2,2.4,7.2,5.3c0,2.9-3.2,5.3-7.2,5.3c-4,0-7.2-2.4-7.2-5.3
		C1089.6,843.6,1092.8,841.2,1096.8,841.2z"/>
	<path class="st3" d="M-63.2,835.5c1.4,0,2.6,0.9,2.6,1.9s-1.2,1.9-2.6,1.9c-1.4,0-2.6-0.9-2.6-1.9S-64.6,835.5-63.2,835.5z"/>
	<path class="st3" d="M1688.8,1388.5c4,0,7.2,2.4,7.2,5.3s-3.2,5.3-7.2,5.3c-4,0-7.2-2.4-7.2-5.3S1684.8,1388.5,1688.8,1388.5z"/>
	<path class="st3" d="M1549.1,759.1c3.6,0,6.6,2.2,6.6,4.9s-2.9,4.9-6.6,4.9c-3.6,0-6.6-2.2-6.6-4.9S1545.5,759.1,1549.1,759.1z"/>
	<path class="st3" d="M939.3,1298.2c3.6,0,6.5,2.2,6.5,4.8s-2.9,4.8-6.5,4.8c-3.6,0-6.5-2.2-6.5-4.8S935.7,1298.2,939.3,1298.2z"/>
	<path class="st3" d="M2102.9,1211.4c1.6,0,2.9,1,2.9,2.2s-1.3,2.2-2.9,2.2c-1.6,0-2.9-1-2.9-2.2S2101.3,1211.4,2102.9,1211.4z"/>
	<path class="st3" d="M1314.4,1069.1c2.7,0,4.8,1.6,4.8,3.6c0,2-2.2,3.6-4.8,3.6c-2.7,0-4.8-1.6-4.8-3.6
		C1309.6,1070.7,1311.7,1069.1,1314.4,1069.1z"/>
	<path class="st3" d="M60.3,818.3c1.8,0,3.3,1.1,3.3,2.4c0,1.3-1.5,2.4-3.3,2.4s-3.3-1.1-3.3-2.4C57,819.4,58.5,818.3,60.3,818.3z"
		/>
	<path class="st3" d="M1779.4,937c4.2,0,7.5,2.5,7.5,5.6c0,3.1-3.4,5.6-7.5,5.6c-4.2,0-7.5-2.5-7.5-5.6
		C1771.8,939.5,1775.2,937,1779.4,937z"/>
	<path class="st3" d="M-46.4,846.8c2.6,0,4.7,1.6,4.7,3.5s-2.1,3.5-4.7,3.5c-2.6,0-4.7-1.6-4.7-3.5S-49,846.8-46.4,846.8z"/>
	<path class="st3" d="M2475.1,871c2.4,0,4.4,1.5,4.4,3.2s-2,3.2-4.4,3.2c-2.4,0-4.4-1.5-4.4-3.2S2472.7,871,2475.1,871z"/>
	<path class="st3" d="M2115.1,1067.5c4,0,7.3,2.4,7.3,5.4c0,3-3.3,5.4-7.3,5.4c-4,0-7.3-2.4-7.3-5.4
		C2107.8,1070,2111.1,1067.5,2115.1,1067.5z"/>
	<path class="st3" d="M2016.3,1121.8c3.8,0,6.9,2.3,6.9,5.1c0,2.8-3.1,5.1-6.9,5.1c-3.8,0-6.9-2.3-6.9-5.1
		C2009.4,1124,2012.5,1121.8,2016.3,1121.8z"/>
	<path class="st3" d="M934.5,1228.4c3.2,0,5.8,1.9,5.8,4.3s-2.6,4.3-5.8,4.3s-5.8-1.9-5.8-4.3S931.3,1228.4,934.5,1228.4z"/>
	<path class="st3" d="M614.1,826.2c1.7,0,3.1,1,3.1,2.3s-1.4,2.3-3.1,2.3c-1.7,0-3.1-1-3.1-2.3S612.4,826.2,614.1,826.2z"/>
	<path class="st3" d="M2728,1063.4c-3.9,1.7-8.3,0.8-9.8-2.1c-1.5-2.9,0.5-6.7,4.4-8.4c3.9-1.7,8.3-0.8,9.8,2.1
		C2733.9,1057.9,2731.9,1061.6,2728,1063.4z"/>
	<path class="st3" d="M1912.3,1187.9c1.6,0,2.9,1,2.9,2.2c0,1.2-1.3,2.2-2.9,2.2c-1.6,0-2.9-1-2.9-2.2
		C1909.4,1188.9,1910.7,1187.9,1912.3,1187.9z"/>
	<path class="st3" d="M445.2,1329.3c0.5,0,0.8,0.3,0.8,0.6c0,0.3-0.4,0.6-0.8,0.6c-0.5,0-0.8-0.3-0.8-0.6
		C444.3,1329.6,444.7,1329.3,445.2,1329.3z"/>
	<path class="st3" d="M407.9,1151c1.9,0,3.4,1.1,3.4,2.5s-1.5,2.5-3.4,2.5c-1.9,0-3.4-1.1-3.4-2.5C404.5,1152.1,406,1151,407.9,1151
		z"/>
	<path class="st3" d="M232.2,1382.4c3.3,0,6,2,6,4.4c0,2.4-2.7,4.4-6,4.4s-6-2-6-4.4C226.2,1384.4,228.9,1382.4,232.2,1382.4z"/>
	<path class="st3" d="M145.3,924.1c2.1,0,3.8,1.3,3.8,2.8s-1.7,2.8-3.8,2.8c-2.1,0-3.8-1.3-3.8-2.8S143.2,924.1,145.3,924.1z"/>
	<path class="st3" d="M1533.6,645.8c3.1,0,5.6,1.9,5.6,4.1s-2.5,4.1-5.6,4.1c-3.1,0-5.6-1.9-5.6-4.1S1530.5,645.8,1533.6,645.8z"/>
	<path class="st3" d="M182,1397.1c3.4,0,6.1,2,6.1,4.5c0,2.5-2.7,4.5-6.1,4.5c-3.4,0-6.1-2-6.1-4.5
		C175.9,1399.1,178.6,1397.1,182,1397.1z"/>
	<path class="st3" d="M-39.6,754c1.3,0,2.4,0.8,2.4,1.7s-1,1.7-2.4,1.7s-2.4-0.8-2.4-1.7C-41.9,754.8-40.9,754-39.6,754z"/>
	<path class="st3" d="M2833.8,983c3.7,0,6.7,2.2,6.7,4.9c0,2.7-3,4.9-6.7,4.9s-6.7-2.2-6.7-4.9C2827.1,985.2,2830.1,983,2833.8,983z
		"/>
	<path class="st3" d="M1403.2,811.1c2.8,0,5,1.7,5,3.7s-2.2,3.7-5,3.7c-2.8,0-5-1.7-5-3.7S1400.5,811.1,1403.2,811.1z"/>
	<path class="st3" d="M1751.4,769.8c1.2,0,2.1,0.7,2.1,1.6s-0.9,1.6-2.1,1.6c-1.2,0-2.1-0.7-2.1-1.6S1750.2,769.8,1751.4,769.8z"/>
	<path class="st3" d="M1105.1,1393.8c1.7,0,3,1,3,2.2c0,1.2-1.3,2.2-3,2.2c-1.7,0-3-1-3-2.2
		C1102.1,1394.8,1103.4,1393.8,1105.1,1393.8z"/>
	<path class="st3" d="M1529.4,1036c2.6,0,4.7,1.6,4.7,3.5c0,1.9-2.1,3.5-4.7,3.5c-2.6,0-4.7-1.6-4.7-3.5
		C1524.7,1037.6,1526.8,1036,1529.4,1036z"/>
	<path class="st3" d="M1329.6,799c1.8,0,3.3,1.1,3.3,2.4s-1.5,2.4-3.3,2.4c-1.8,0-3.3-1.1-3.3-2.4S1327.8,799,1329.6,799z"/>
	<path class="st3" d="M1712.5,504.9c1.6,0,2.9,1,2.9,2.2c0,1.2-1.3,2.2-2.9,2.2s-2.9-1-2.9-2.2
		C1709.5,505.8,1710.8,504.9,1712.5,504.9z"/>
	<path class="st3" d="M1840.9,1186.1c3.2,0,5.7,1.9,5.7,4.3c0,2.4-2.6,4.3-5.7,4.3s-5.7-1.9-5.7-4.3
		C1835.1,1188.1,1837.7,1186.1,1840.9,1186.1z"/>
	<path class="st3" d="M208.4,1094.3c0.3,0,0.6,0.2,0.6,0.4s-0.3,0.4-0.6,0.4s-0.6-0.2-0.6-0.4S208.1,1094.3,208.4,1094.3z"/>
	<path class="st3" d="M1072.5,1334.1c3.2,0,5.8,1.9,5.8,4.3c0,2.4-2.6,4.3-5.8,4.3c-3.2,0-5.8-1.9-5.8-4.3
		C1066.7,1336.1,1069.3,1334.1,1072.5,1334.1z"/>
	<path class="st3" d="M2101.8,557.9c3.7,0,6.7,2.2,6.7,5c0,2.8-3,5-6.7,5s-6.7-2.2-6.7-5C2095.1,560.2,2098.1,557.9,2101.8,557.9z"
		/>
	<path class="st3" d="M1015,1248.4c2.6,0,4.7,1.6,4.7,3.5c0,1.9-2.1,3.5-4.7,3.5c-2.6,0-4.7-1.6-4.7-3.5
		C1010.2,1250,1012.4,1248.4,1015,1248.4z"/>
	<path class="st3" d="M1701.2,1308.2c3.2,0,5.7,1.9,5.7,4.3c0,2.3-2.6,4.3-5.7,4.3c-3.2,0-5.7-1.9-5.7-4.3
		C1695.4,1310.1,1698,1308.2,1701.2,1308.2z"/>
	<path class="st3" d="M2481.6,878.2c4.8,0,8.6,2.9,8.6,6.4c0,3.5-3.9,6.4-8.6,6.4s-8.6-2.9-8.6-6.4
		C2472.9,881.1,2476.8,878.2,2481.6,878.2z"/>
	<path class="st3" d="M536.3,1374.1c2.9,0,5.2,1.7,5.2,3.9s-2.3,3.9-5.2,3.9c-2.9,0-5.2-1.7-5.2-3.9S533.5,1374.1,536.3,1374.1z"/>
	<path class="st3" d="M1851.2,760.8c1.8,0,3.3,1.1,3.3,2.4c0,1.4-1.5,2.4-3.3,2.4c-1.8,0-3.3-1.1-3.3-2.4
		C1847.9,761.9,1849.3,760.8,1851.2,760.8z"/>
	<path class="st3" d="M2693.4,1175.3c2.7,0,5,1.7,5,3.7c0,2-2.2,3.7-5,3.7c-2.7,0-5-1.7-5-3.7
		C2688.4,1177,2690.6,1175.3,2693.4,1175.3z"/>
	<path class="st3" d="M1584.6,1404.2c2.6,0,4.7,1.5,4.7,3.5c0,1.9-2.1,3.5-4.7,3.5c-2.6,0-4.7-1.5-4.7-3.5
		S1582.1,1404.2,1584.6,1404.2z"/>
	<path class="st3" d="M2787,1270.4c-4.2,1.9-8.9,0.9-10.5-2.3c-1.6-3.1,0.5-7.2,4.8-9.1c4.2-1.9,8.9-0.9,10.5,2.3
		C2793.4,1264.4,2791.2,1268.5,2787,1270.4z"/>
	<path class="st3" d="M1462.4,1130.8c3.9,0,7,2.3,7,5.2s-3.1,5.2-7,5.2s-7-2.3-7-5.2C1455.4,1133.1,1458.6,1130.8,1462.4,1130.8z"/>
	<path class="st3" d="M1300.4,917.4c3.6,0,6.6,2.2,6.6,4.9s-2.9,4.9-6.6,4.9s-6.6-2.2-6.6-4.9
		C1293.8,919.5,1296.8,917.4,1300.4,917.4z"/>
	<path class="st3" d="M305.5,1219.9c2.3,0,4.2,1.4,4.2,3.1c0,1.7-1.9,3.1-4.2,3.1s-4.2-1.4-4.2-3.1
		C301.2,1221.3,303.1,1219.9,305.5,1219.9z"/>
	<path class="st3" d="M406,1275.7c1,0,1.8,0.6,1.8,1.3c0,0.7-0.8,1.3-1.8,1.3c-1,0-1.8-0.6-1.8-1.3
		C404.2,1276.3,405,1275.7,406,1275.7z"/>
	<path class="st3" d="M1966.1,317.9c1.7,0,3,1,3,2.2c0,1.2-1.4,2.2-3,2.2s-3-1-3-2.2C1963,318.9,1964.4,317.9,1966.1,317.9z"/>
	<path class="st3" d="M2766.6,1000.2c-3.4,1.5-7.1,0.7-8.4-1.8c-1.3-2.5,0.4-5.7,3.8-7.2c3.4-1.5,7.1-0.7,8.4,1.8
		C2771.6,995.4,2769.9,998.7,2766.6,1000.2z"/>
	<path class="st3" d="M1469.8,972c2.8,0,5.1,1.7,5.1,3.8s-2.3,3.8-5.1,3.8c-2.8,0-5.1-1.7-5.1-3.8S1467,972,1469.8,972z"/>
	<path class="st3" d="M1375,917.5c2.6,0,4.7,1.5,4.7,3.5s-2.1,3.5-4.7,3.5c-2.6,0-4.7-1.5-4.7-3.5S1372.5,917.5,1375,917.5z"/>
	<path class="st3" d="M428.6,969.5c3.9,0,7,2.3,7,5.2c0,2.9-3.1,5.2-7,5.2s-7-2.3-7-5.2C421.6,971.9,424.7,969.5,428.6,969.5z"/>
	<path class="st3" d="M621.8,1222.4c3.1,0,5.5,1.8,5.5,4.1c0,2.3-2.5,4.1-5.5,4.1c-3.1,0-5.5-1.8-5.5-4.1
		C616.3,1224.3,618.8,1222.4,621.8,1222.4z"/>
	<path class="st3" d="M1910.5,763.7c4,0,7.2,2.4,7.2,5.4c0,3-3.2,5.4-7.2,5.4c-4,0-7.2-2.4-7.2-5.4
		C1903.2,766.2,1906.5,763.7,1910.5,763.7z"/>
	<path class="st3" d="M1561.1,1158.5c1.8,0,3.2,1.1,3.2,2.4c0,1.3-1.4,2.4-3.2,2.4c-1.8,0-3.2-1.1-3.2-2.4
		C1557.9,1159.6,1559.3,1158.5,1561.1,1158.5z"/>
	<path class="st3" d="M2742,1275.2c-3.1,1.4-6.6,0.6-7.8-1.7c-1.2-2.3,0.4-5.3,3.5-6.7c3.1-1.4,6.6-0.6,7.8,1.7
		C2746.7,1270.8,2745.2,1273.8,2742,1275.2z"/>
	<path class="st3" d="M530.8,813c2.7,0,4.9,1.6,4.9,3.6s-2.2,3.6-4.9,3.6s-4.9-1.6-4.9-3.6S528.1,813,530.8,813z"/>
	<path class="st3" d="M1673.2,1184.7c1.7,0,3.2,1,3.2,2.3s-1.4,2.3-3.2,2.3c-1.7,0-3.2-1-3.2-2.3S1671.4,1184.7,1673.2,1184.7z"/>
	<path class="st3" d="M580.1,1200.9c4,0,7.3,2.4,7.3,5.4c0,3-3.3,5.4-7.3,5.4c-4,0-7.3-2.4-7.3-5.4
		C572.8,1203.3,576.1,1200.9,580.1,1200.9z"/>
	<path class="st3" d="M2021.9,1331.3c4.8,0,8.8,2.9,8.8,6.5c0,3.6-3.9,6.5-8.8,6.5s-8.8-2.9-8.8-6.5
		C2013.2,1334.2,2017.1,1331.3,2021.9,1331.3z"/>
	<path class="st3" d="M1192.3,636.8c3.2,0,5.7,1.9,5.7,4.3c0,2.4-2.6,4.3-5.7,4.3s-5.7-1.9-5.7-4.3
		C1186.6,638.7,1189.2,636.8,1192.3,636.8z"/>
	<path class="st3" d="M2861.4,774.9c3.7,0,6.8,2.2,6.8,5c0,2.8-3,5-6.8,5c-3.7,0-6.8-2.2-6.8-5
		C2854.7,777.1,2857.7,774.9,2861.4,774.9z"/>
	<path class="st3" d="M786.6,1299.9c3.6,0,6.5,2.2,6.5,4.9c0,2.7-2.9,4.9-6.5,4.9s-6.5-2.2-6.5-4.9
		C780.1,1302.1,783,1299.9,786.6,1299.9z"/>
	<path class="st3" d="M810.6,749.7c2.2,0,3.9,1.3,3.9,2.9s-1.8,2.9-3.9,2.9c-2.2,0-3.9-1.3-3.9-2.9S808.4,749.7,810.6,749.7z"/>
	<path class="st3" d="M2081.7,1310.5c2.8,0,5,1.7,5,3.7c0,2-2.2,3.7-5,3.7c-2.8,0-5-1.7-5-3.7
		C2076.7,1312.2,2078.9,1310.5,2081.7,1310.5z"/>
	<path class="st3" d="M1921.2,1060.2c2.4,0,4.4,1.5,4.4,3.3c0,1.8-2,3.3-4.4,3.3s-4.4-1.5-4.4-3.3
		C1916.8,1061.6,1918.7,1060.2,1921.2,1060.2z"/>
	<path class="st3" d="M1031.6,1163.6c2.7,0,4.9,1.6,4.9,3.6c0,2-2.2,3.6-4.9,3.6c-2.7,0-4.9-1.6-4.9-3.6
		S1028.9,1163.6,1031.6,1163.6z"/>
	<path class="st3" d="M1111.5,1234.1c4.1,0,7.5,2.5,7.5,5.6c0,3.1-3.4,5.6-7.5,5.6c-4.1,0-7.5-2.5-7.5-5.6
		C1104,1236.6,1107.4,1234.1,1111.5,1234.1z"/>
	<path class="st3" d="M1677.7,1041.7c2.7,0,4.9,1.6,4.9,3.6c0,2-2.2,3.6-4.9,3.6c-2.7,0-4.9-1.6-4.9-3.6
		C1672.8,1043.3,1675,1041.7,1677.7,1041.7z"/>
	<path class="st3" d="M2662.2,1269.5c0.3,0,0.5,0.1,0.5,0.3c0,0.2-0.2,0.3-0.5,0.3c-0.3,0-0.5-0.1-0.5-0.3
		C2661.8,1269.6,2662,1269.5,2662.2,1269.5z"/>
	<path class="st3" d="M335.6,1282.7c5.1,0,9.3,3.1,9.3,6.9c0,3.8-4.1,6.9-9.3,6.9c-5.1,0-9.3-3.1-9.3-6.9
		C326.4,1285.7,330.5,1282.7,335.6,1282.7z"/>
	<path class="st3" d="M1508.4,1258.2c9.1,0,16.5,5.5,16.5,12.3c0,6.8-7.4,12.3-16.5,12.3c-9.1,0-16.5-5.5-16.5-12.3
		C1491.9,1263.7,1499.3,1258.2,1508.4,1258.2z"/>
	<path class="st3" d="M2275.5,955.8c4.6,0,8.3,2.8,8.3,6.2c0,3.4-3.7,6.2-8.3,6.2s-8.3-2.8-8.3-6.2
		C2267.2,958.5,2270.9,955.8,2275.5,955.8z"/>
	<path class="st3" d="M1164.8,1228.4c2.5,0,4.5,1.5,4.5,3.3c0,1.8-2,3.3-4.5,3.3c-2.5,0-4.5-1.5-4.5-3.3
		C1160.3,1229.9,1162.3,1228.4,1164.8,1228.4z"/>
	<path class="st3" d="M1434.9,1328.3c7.3,0,13.2,4.4,13.2,9.8c0,5.4-5.9,9.8-13.2,9.8s-13.2-4.4-13.2-9.8
		C1421.7,1332.7,1427.6,1328.3,1434.9,1328.3z"/>
	<path class="st3" d="M778.4,1371.8c3.8,0,7,2.3,7,5.2s-3.1,5.2-7,5.2s-7-2.3-7-5.2S774.5,1371.8,778.4,1371.8z"/>
	<path class="st3" d="M2108.3,1039.5c5.9,0,10.7,3.6,10.7,7.9s-4.8,7.9-10.7,7.9c-5.9,0-10.7-3.6-10.7-7.9
		S2102.4,1039.5,2108.3,1039.5z"/>
	<path class="st3" d="M2880.7,1155.3c-5.9,2.6-12.5,1.2-14.7-3.2c-2.2-4.4,0.8-10.1,6.7-12.7"/>
	<path class="st3" d="M1983.5,701.3c3.6,0,6.6,2.2,6.6,4.9c0,2.7-3,4.9-6.6,4.9s-6.6-2.2-6.6-4.9
		C1976.9,703.5,1979.9,701.3,1983.5,701.3z"/>
	<path class="st3" d="M498.8,1164.5c9.1,0,16.5,5.5,16.5,12.3c0,6.8-7.4,12.3-16.5,12.3c-9.1,0-16.5-5.5-16.5-12.3
		C482.3,1170,489.7,1164.5,498.8,1164.5z"/>
	<ellipse class="st3" cx="148.7" cy="1357.5" rx="15.4" ry="11.4"/>
	<path class="st3" d="M669.2,873.6c6,0,10.8,3.6,10.8,8s-4.8,8-10.8,8c-6,0-10.8-3.6-10.8-8S663.2,873.6,669.2,873.6z"/>
	<path class="st3" d="M2265.3,662.9c7.2,0,13,4.3,13,9.7s-5.8,9.7-13,9.7c-7.2,0-13-4.3-13-9.7S2258.1,662.9,2265.3,662.9z"/>
	<path class="st3" d="M1762.4,808.6c4.2,0,7.7,2.6,7.7,5.7c0,3.1-3.4,5.7-7.7,5.7c-4.2,0-7.7-2.6-7.7-5.7
		C1754.7,811.1,1758.1,808.6,1762.4,808.6z"/>
	<path class="st3" d="M1651.5,1013.2c3.5,0,6.3,2.1,6.3,4.7c0,2.6-2.8,4.7-6.3,4.7c-3.5,0-6.3-2.1-6.3-4.7
		C1645.2,1015.3,1648,1013.2,1651.5,1013.2z"/>
	<path class="st3" d="M276.4,1391.7c2,0,3.7,1.2,3.7,2.7c0,1.5-1.6,2.7-3.7,2.7c-2,0-3.7-1.2-3.7-2.7
		C272.7,1392.9,274.4,1391.7,276.4,1391.7z"/>
	<path class="st3" d="M1994.4,855.8c8.7,0,15.8,5.2,15.8,11.7s-7.1,11.7-15.8,11.7s-15.8-5.2-15.8-11.7S1985.7,855.8,1994.4,855.8z"
		/>
	<path class="st3" d="M2311.7,1061.7c6.5,0,11.8,3.9,11.8,8.8s-5.3,8.8-11.8,8.8s-11.8-3.9-11.8-8.8S2305.2,1061.7,2311.7,1061.7z"
		/>
	<ellipse class="st3" cx="1742.8" cy="1272.3" rx="18.1" ry="13.4"/>
	<path class="st3" d="M1707.4,856.4c5.2,0,9.4,3.1,9.4,7c0,3.9-4.2,7-9.4,7c-5.2,0-9.4-3.1-9.4-7
		C1698,859.5,1702.2,856.4,1707.4,856.4z"/>
	<path class="st3" d="M2181.3,936.6c6.5,0,11.8,3.9,11.8,8.7s-5.3,8.7-11.8,8.7c-6.5,0-11.8-3.9-11.8-8.7S2174.8,936.6,2181.3,936.6
		z"/>
	<path class="st3" d="M2239.7,1043.9c4.7,0,8.4,2.8,8.4,6.3c0,3.5-3.8,6.3-8.4,6.3c-4.7,0-8.4-2.8-8.4-6.3
		C2231.2,1046.7,2235,1043.9,2239.7,1043.9z"/>
	<path class="st3" d="M1213.9,1335.8c8.5,0,15.5,5.1,15.5,11.5c0,6.3-6.9,11.5-15.5,11.5c-8.5,0-15.5-5.1-15.5-11.5
		C1198.4,1340.9,1205.3,1335.8,1213.9,1335.8z"/>
	<path class="st3" d="M485.3,1147.6c9.6,0,17.4,5.8,17.4,12.9c0,7.1-7.8,12.9-17.4,12.9s-17.4-5.8-17.4-12.9
		C467.9,1153.4,475.7,1147.6,485.3,1147.6z"/>
	<path class="st3" d="M2812,1080.1c4.3,0,7.8,2.6,7.8,5.8s-3.5,5.8-7.8,5.8c-4.3,0-7.8-2.6-7.8-5.8S2807.7,1080.1,2812,1080.1z"/>
	<path class="st3" d="M622.1,806.1c5.8,0,10.5,3.5,10.5,7.8c0,4.3-4.7,7.8-10.5,7.8c-5.8,0-10.5-3.5-10.5-7.8
		C611.6,809.6,616.3,806.1,622.1,806.1z"/>
	<path class="st3" d="M400.1,816c8.8,0,15.9,5.3,15.9,11.8c0,6.5-7.1,11.8-15.9,11.8s-15.9-5.3-15.9-11.8
		C384.2,821.3,391.3,816,400.1,816L400.1,816z"/>
	<ellipse class="st3" cx="2298.1" cy="989.5" rx="12.7" ry="9.4"/>
	<path class="st3" d="M2302.3,1213c5.1,0,9.3,3.1,9.3,6.9s-4.2,6.9-9.3,6.9c-5.1,0-9.3-3.1-9.3-6.9S2297.1,1213,2302.3,1213z"/>
	<ellipse class="st3" cx="1651.4" cy="1356.3" rx="16.2" ry="12"/>
	<path class="st3" d="M1847.2,828.7c5.4,0,9.7,3.2,9.7,7.2s-4.4,7.2-9.7,7.2c-5.4,0-9.7-3.2-9.7-7.2S1841.8,828.7,1847.2,828.7z"/>
	<ellipse class="st3" cx="1356" cy="1243.2" rx="14.5" ry="10.8"/>
	<path class="st3" d="M2629.1,1360.1c6.4,0,11.6,3.8,11.6,8.6c0,4.7-5.2,8.6-11.6,8.6c-6.4,0-11.6-3.8-11.6-8.6
		C2617.5,1364,2622.7,1360.1,2629.1,1360.1z"/>
	<path class="st3" d="M1775.9,1148.3c3.2,0,5.9,2,5.9,4.3c0,2.4-2.6,4.3-5.9,4.3c-3.2,0-5.9-2-5.9-4.3
		C1770,1150.2,1772.7,1148.3,1775.9,1148.3z"/>
	<path class="st3" d="M2673.5,891.2c8.4,0,15.2,5,15.2,11.2c0,6.2-6.8,11.2-15.2,11.2c-8.4,0-15.2-5-15.2-11.2
		C2658.3,896.2,2665.1,891.2,2673.5,891.2z"/>
	<path class="st3" d="M1920.8,920.3c3.5,0,6.3,2.1,6.3,4.7c0,2.6-2.8,4.7-6.3,4.7c-3.5,0-6.3-2.1-6.3-4.7
		C1914.5,922.4,1917.3,920.3,1920.8,920.3z"/>
	<path class="st3" d="M1761.1,485.4c4.5,0,8.1,2.7,8.1,6c0,3.3-3.6,6-8.1,6c-4.5,0-8.1-2.7-8.1-6
		C1753,488.1,1756.6,485.4,1761.1,485.4z"/>
	<path class="st3" d="M1895.4,896.1c3,0,5.4,1.8,5.4,4c0,2.2-2.4,4-5.4,4s-5.4-1.8-5.4-4C1889.9,897.9,1892.4,896.1,1895.4,896.1z"
		/>
	<path class="st3" d="M2046.7,613c6.7,0,12.2,4.1,12.2,9.1s-5.5,9.1-12.2,9.1s-12.2-4.1-12.2-9.1S2040,613,2046.7,613z"/>
	<path class="st3" d="M899.9,1190.1c8,0,14.6,4.8,14.6,10.8c0,6-6.5,10.8-14.6,10.8c-8,0-14.6-4.8-14.6-10.8
		C885.3,1194.9,891.9,1190.1,899.9,1190.1z"/>
	<path class="st3" d="M2111.5,1190.6c9.1,0,16.4,5.5,16.4,12.2c0,6.7-7.4,12.2-16.4,12.2c-9.1,0-16.4-5.5-16.4-12.2
		C2095,1196,2102.4,1190.6,2111.5,1190.6z"/>
	<path class="st3" d="M2407.3,591.7c5.7,0,10.3,3.4,10.3,7.6s-4.6,7.6-10.3,7.6c-5.7,0-10.3-3.4-10.3-7.6
		C2397,595.1,2401.6,591.7,2407.3,591.7z"/>
	<path class="st3" d="M1719.3,1283.5c3.6,0,6.5,2.2,6.5,4.8s-2.9,4.8-6.5,4.8s-6.5-2.2-6.5-4.8S1715.7,1283.5,1719.3,1283.5z"/>
	<path class="st3" d="M654.8,1245.7c7.8,0,14.1,4.7,14.1,10.4c0,5.8-6.3,10.4-14.1,10.4s-14.1-4.7-14.1-10.4
		S647,1245.7,654.8,1245.7z"/>
	<path class="st3" d="M2569.5,1132.3c4.9,0,8.9,3,8.9,6.6s-4,6.6-8.9,6.6c-4.9,0-8.9-3-8.9-6.6S2564.6,1132.3,2569.5,1132.3z"/>
	<path class="st3" d="M2106.7,630.5c2.8,0,5,1.7,5,3.7c0,2-2.2,3.7-5,3.7c-2.8,0-5-1.7-5-3.7
		C2101.7,632.2,2103.9,630.5,2106.7,630.5z"/>
	<path class="st3" d="M2046.9,953.1c3,0,5.4,1.8,5.4,4c0,2.2-2.4,4-5.4,4s-5.4-1.8-5.4-4C2041.5,954.9,2043.9,953.1,2046.9,953.1z"
		/>
	<path class="st3" d="M2479.7,1357.8c5.4,0,9.7,3.2,9.7,7.2c0,4-4.3,7.2-9.7,7.2s-9.7-3.2-9.7-7.2
		C2470,1361,2474.4,1357.8,2479.7,1357.8z"/>
	<path class="st3" d="M383.2,896.8c5.4,0,9.9,3.3,9.9,7.3c0,4-4.4,7.3-9.9,7.3c-5.4,0-9.9-3.3-9.9-7.3
		C373.4,900.1,377.8,896.8,383.2,896.8z"/>
	<path class="st3" d="M720.3,1115.8c10.1,0,18.3,6.1,18.3,13.5s-8.2,13.5-18.3,13.5c-10.1,0-18.3-6.1-18.3-13.5
		S710.2,1115.8,720.3,1115.8z"/>
	<path class="st3" d="M1249.1,1208.5c8.3,0,15,5,15,11.1c0,6.1-6.7,11.1-15,11.1s-15-5-15-11.1
		C1234.1,1213.5,1240.8,1208.5,1249.1,1208.5z"/>
	<path class="st3" d="M732.2,1154.8c5,0,9,3,9,6.7c0,3.7-4,6.7-9,6.7s-9-3-9-6.7C723.2,1157.8,727.2,1154.8,732.2,1154.8z"/>
	<path class="st3" d="M1891,884.1c5.1,0,9.2,3.1,9.2,6.8s-4.1,6.8-9.2,6.8s-9.2-3.1-9.2-6.8S1885.9,884.1,1891,884.1z"/>
	<path class="st3" d="M1885.1,962.7c8.2,0,14.8,4.9,14.8,11c0,6.1-6.6,11-14.8,11c-8.2,0-14.8-4.9-14.8-11
		C1870.4,967.6,1877,962.7,1885.1,962.7z"/>
	<path class="st3" d="M2635.7,990.5c7.2,0,13.1,4.3,13.1,9.7s-5.9,9.7-13.1,9.7c-7.2,0-13.1-4.3-13.1-9.7S2628.5,990.5,2635.7,990.5
		z"/>
	<path class="st3" d="M580.8,968.7c2.9,0,5.2,1.7,5.2,3.8c0,2.1-2.3,3.8-5.2,3.8c-2.9,0-5.2-1.7-5.2-3.8
		C575.7,970.4,578,968.7,580.8,968.7z"/>
	<path class="st3" d="M1787.6,1094.9c4.5,0,8.2,2.7,8.2,6c0,3.3-3.6,6-8.2,6s-8.2-2.7-8.2-6
		C1779.5,1097.6,1783.1,1094.9,1787.6,1094.9z"/>
	<path class="st3" d="M2075.8,572.1c6.5,0,11.8,3.9,11.8,8.7s-5.3,8.7-11.8,8.7s-11.8-3.9-11.8-8.7S2069.3,572.1,2075.8,572.1z"/>
	<path class="st3" d="M2140.6,692c6.9,0,12.5,4.1,12.5,9.2s-5.6,9.2-12.5,9.2c-6.9,0-12.5-4.1-12.5-9.2
		C2128.1,696.1,2133.7,692,2140.6,692z"/>
	<path class="st3" d="M2575.5,1080.2c10.9,0,19.7,6.5,19.7,14.6c0,8-8.8,14.6-19.7,14.6c-10.9,0-19.7-6.5-19.7-14.6
		C2555.8,1086.7,2564.6,1080.2,2575.5,1080.2z"/>
	<path class="st3" d="M647.3,1337c5.6,0,10.1,3.4,10.1,7.5c0,4.1-4.5,7.5-10.1,7.5c-5.6,0-10.1-3.4-10.1-7.5
		C637.2,1340.3,641.7,1337,647.3,1337z"/>
	<path class="st3" d="M2840.5,978c-7.2,3.2-15.3,1.5-18-3.9s0.9-12.3,8.2-15.5c7.2-3.2,15.3-1.5,18,3.9
		C2851.4,967.9,2847.7,974.8,2840.5,978z"/>
	<path class="st3" d="M1068.2,1255.6c6.4,0,11.7,3.9,11.7,8.7s-5.2,8.7-11.7,8.7c-6.4,0-11.7-3.9-11.7-8.7
		S1061.7,1255.6,1068.2,1255.6z"/>
	<path class="st3" d="M2384.1,1091.3c5.5,0,10,3.3,10,7.4s-4.5,7.4-10,7.4s-10-3.3-10-7.4S2378.6,1091.3,2384.1,1091.3z"/>
	<path class="st3" d="M1280,1377.7"/>
	<path class="st3" d="M381.2,1162.8c4.6,0,8.3,2.7,8.3,6.1s-3.7,6.1-8.3,6.1c-4.6,0-8.3-2.7-8.3-6.1
		C372.9,1165.5,376.6,1162.8,381.2,1162.8z"/>
	<path class="st3" d="M2712.1,1019.1c5.2,0,9.4,3.1,9.4,6.9c0,3.8-4.2,6.9-9.4,6.9c-5.2,0-9.4-3.1-9.4-6.9
		C2702.7,1022.2,2706.9,1019.1,2712.1,1019.1z"/>
	<path class="st3" d="M1555.1,1145.1c9.4,0,17,5.6,17,12.6c0,7-7.6,12.6-17,12.6c-9.4,0-17-5.6-17-12.6
		C1538,1150.8,1545.7,1145.1,1555.1,1145.1z"/>
	<path class="st3" d="M1975.2,447.8c8.4,0,15.2,5,15.2,11.2c0,6.2-6.8,11.2-15.2,11.2c-8.4,0-15.2-5-15.2-11.2
		C1960,452.8,1966.8,447.8,1975.2,447.8z"/>
	<path class="st3" d="M1587.6,826.3c4.5,0,8.2,2.7,8.2,6.1c0,3.4-3.7,6.1-8.2,6.1c-4.5,0-8.2-2.7-8.2-6.1
		C1579.4,829,1583.1,826.3,1587.6,826.3z"/>
	<path class="st3" d="M2744.1,936.6c8.8,0,15.9,5.3,15.9,11.8c0,6.5-7.1,11.8-15.9,11.8s-15.9-5.3-15.9-11.8
		C2728.2,941.9,2735.3,936.6,2744.1,936.6z"/>
	<path class="st3" d="M1454.5,1360.8c7.4,0,13.5,4.5,13.5,10c0,5.5-6,10-13.5,10c-7.4,0-13.5-4.5-13.5-10
		C1441,1365.2,1447,1360.8,1454.5,1360.8z"/>
	<path class="st3" d="M365.4,766.2c6.8,0,12.2,4.1,12.2,9.1c0,5-5.5,9.1-12.2,9.1c-6.8,0-12.2-4.1-12.2-9.1
		C353.1,770.3,358.6,766.2,365.4,766.2z"/>
	<path class="st3" d="M1239.6,1337.3c3.8,0,6.9,2.3,6.9,5.1c0,2.8-3.1,5.1-6.9,5.1c-3.8,0-6.9-2.3-6.9-5.1
		C1232.7,1339.6,1235.8,1337.3,1239.6,1337.3z"/>
	
		<ellipse transform="matrix(0.9396 -0.3422 0.3422 0.9396 -241.9837 999.3887)" class="st3" cx="2711.5" cy="1185.5" rx="15.3" ry="11.6"/>
	<path class="st3" d="M2149.7,838.8c9.3,0,16.8,5.6,16.8,12.5c0,6.9-7.5,12.5-16.8,12.5s-16.8-5.6-16.8-12.5
		C2132.9,844.3,2140.5,838.8,2149.7,838.8z"/>
	<ellipse class="st3" cx="2045.3" cy="950" rx="12.7" ry="9.4"/>
	<path class="st3" d="M1940.8,584.2c8.3,0,14.9,5,14.9,11.1s-6.7,11.1-14.9,11.1c-8.3,0-14.9-5-14.9-11.1S1932.6,584.2,1940.8,584.2
		z"/>
	<path class="st3" d="M1009.1,1320.2c5.7,0,10.4,3.5,10.4,7.7c0,4.3-4.7,7.7-10.4,7.7c-5.7,0-10.4-3.5-10.4-7.7
		C998.7,1323.6,1003.3,1320.2,1009.1,1320.2z"/>
	<path class="st3" d="M1582.2,1375.6c0-6.8,7.5-12.4,16.7-12.4s16.7,5.5,16.7,12.4"/>
	<path class="st3" d="M375.6,1381.6c4.7,0,8.4,2.8,8.4,6.3c0,3.5-3.8,6.3-8.4,6.3c-4.7,0-8.4-2.8-8.4-6.3
		C367.2,1384.4,371,1381.6,375.6,1381.6z"/>
	<ellipse class="st3" cx="1483.1" cy="1319.5" rx="15.8" ry="11.7"/>
	<path class="st3" d="M2083,1322c6.3,0,11.5,3.8,11.5,8.5s-5.1,8.5-11.5,8.5c-6.3,0-11.5-3.8-11.5-8.5S2076.7,1322,2083,1322z"/>
	<path class="st3" d="M1448.9,1312.5c4.5,0,8.1,2.7,8.1,6c0,3.3-3.6,6-8.1,6c-4.5,0-8.1-2.7-8.1-6
		C1440.8,1315.2,1444.4,1312.5,1448.9,1312.5z"/>
	<ellipse class="st3" cx="107.2" cy="1117.5" rx="19.3" ry="14.3"/>
	<path class="st3" d="M1961,1082.9c3.5,0,6.3,2.1,6.3,4.7s-2.8,4.7-6.3,4.7c-3.5,0-6.3-2.1-6.3-4.7S1957.6,1082.9,1961,1082.9z"/>
	<path class="st3" d="M336.8,1099.8c4.3,0,7.8,2.6,7.8,5.8c0,3.2-3.5,5.8-7.8,5.8c-4.3,0-7.8-2.6-7.8-5.8
		C329,1102.4,332.5,1099.8,336.8,1099.8L336.8,1099.8z"/>
	<path class="st3" d="M81.8,1367.2c0-7.9,8.7-14.4,19.4-14.4c10.7,0,19.4,6.4,19.4,14.4"/>
	<path class="st3" d="M2179.4,529.1c7.1,0,12.9,4.3,12.9,9.6c0,5.3-5.8,9.6-12.9,9.6s-12.9-4.3-12.9-9.6
		C2166.5,533.4,2172.3,529.1,2179.4,529.1z"/>
	<path class="st3" d="M1583.6,1257.9c7.1,0,12.9,4.3,12.9,9.5c0,5.3-5.8,9.5-12.9,9.5s-12.9-4.3-12.9-9.5
		C1570.7,1262.2,1576.5,1257.9,1583.6,1257.9z"/>
	<ellipse class="st3" cx="2501" cy="733.8" rx="10.9" ry="8.1"/>
	<path class="st3" d="M505.2,1268.9c6.4,0,11.6,3.8,11.6,8.6c0,4.7-5.2,8.6-11.6,8.6c-6.4,0-11.6-3.8-11.6-8.6
		C493.6,1272.8,498.8,1268.9,505.2,1268.9z"/>
	<path class="st3" d="M630.7,1108.1c7.8,0,14.1,4.7,14.1,10.5c0,5.8-6.3,10.5-14.1,10.5c-7.8,0-14.1-4.7-14.1-10.5
		C616.6,1112.8,622.9,1108.1,630.7,1108.1z"/>
	<path class="st3" d="M434.9,1118.7c8.2,0,14.8,4.9,14.8,11s-6.6,11-14.8,11s-14.8-4.9-14.8-11S426.7,1118.7,434.9,1118.7z"/>
	<path class="st3" d="M2288.4,1283.5c5.1,0,9.3,3.1,9.3,6.9c0,3.8-4.2,6.9-9.3,6.9s-9.3-3.1-9.3-6.9
		C2279,1286.6,2283.2,1283.5,2288.4,1283.5z"/>
	<path class="st3" d="M120.5,1207.2c6.4,0,11.5,3.8,11.5,8.5s-5.1,8.5-11.5,8.5c-6.4,0-11.5-3.8-11.5-8.5
		C109,1211,114.1,1207.2,120.5,1207.2z"/>
	<path class="st3" d="M2139.6,1098.1c4.7,0,8.4,2.8,8.4,6.3s-3.8,6.3-8.4,6.3c-4.7,0-8.4-2.8-8.4-6.3S2135,1098.1,2139.6,1098.1z"/>
	<path class="st3" d="M961.4,1057.6c6.8,0,12.3,4.1,12.3,9.1c0,5-5.5,9.1-12.3,9.1s-12.3-4.1-12.3-9.1
		C949.1,1061.6,954.6,1057.6,961.4,1057.6z"/>
	<path class="st3" d="M154.3,822.1c6.2,0,11.2,3.7,11.2,8.3c0,4.6-5,8.3-11.2,8.3s-11.2-3.7-11.2-8.3
		C143.1,825.8,148.1,822.1,154.3,822.1z"/>
	<path class="st3" d="M1222.1,1323.9c3.8,0,6.8,2.3,6.8,5.1c0,2.8-3.1,5.1-6.8,5.1c-3.8,0-6.8-2.3-6.8-5.1
		C1215.2,1326.2,1218.3,1323.9,1222.1,1323.9z"/>
	<path class="st3" d="M2729.2,1384.7c5.8,0,10.5,3.5,10.5,7.8c0,4.3-4.7,7.8-10.5,7.8c-5.8,0-10.5-3.5-10.5-7.8
		C2718.6,1388.2,2723.3,1384.7,2729.2,1384.7z"/>
	<path class="st3" d="M406.2,1275.2c9,0,16.3,5.4,16.3,12.1c0,6.7-7.3,12.1-16.3,12.1c-9,0-16.3-5.4-16.3-12.1
		C389.9,1280.6,397.2,1275.2,406.2,1275.2z"/>
	<path class="st3" d="M214.1,1242c8.5,0,15.4,5.1,15.4,11.4c0,6.3-6.9,11.4-15.4,11.4c-8.5,0-15.4-5.1-15.4-11.4
		C198.7,1247.1,205.6,1242,214.1,1242z"/>
	<path class="st3" d="M383.4,1342.3c5.6,0,10.1,3.4,10.1,7.5s-4.5,7.5-10.1,7.5c-5.6,0-10.1-3.4-10.1-7.5
		C373.2,1345.7,377.8,1342.3,383.4,1342.3z"/>
	<path class="st3" d="M2211.2,741.6c9.2,0,16.7,5.5,16.7,12.4c0,6.8-7.5,12.4-16.7,12.4c-9.2,0-16.7-5.5-16.7-12.4
		C2194.5,747.1,2202,741.6,2211.2,741.6z"/>
	<path class="st3" d="M2644.8,1063.2c5.5,0,9.9,3.3,9.9,7.4s-4.4,7.4-9.9,7.4s-9.9-3.3-9.9-7.4S2639.3,1063.2,2644.8,1063.2z"/>
	<path class="st3" d="M225.1,1250.2c6,0,10.9,3.6,10.9,8.1c0,4.5-4.9,8.1-10.9,8.1c-6,0-10.9-3.6-10.9-8.1
		C214.1,1253.8,219,1250.2,225.1,1250.2z"/>
	<path class="st3" d="M2822.6,1377.2"/>
	<path class="st3" d="M940.8,1417c0-6.4,7-11.6,15.7-11.6c8.7,0,15.7,5.2,15.7,11.6"/>
	<path class="st3" d="M2680.1,1019.7c-2.8,1.3-6,0.6-7.1-1.5c-1.1-2.1,0.4-4.8,3.2-6.1c2.8-1.3,6-0.6,7.1,1.5
		C2684.4,1015.7,2683,1018.5,2680.1,1019.7z"/>
	<path class="st3" d="M54.9,1247.2c9.3,0,16.9,5.6,16.9,12.5c0,6.9-7.6,12.5-16.9,12.5c-9.3,0-16.9-5.6-16.9-12.5
		C38.1,1252.8,45.6,1247.2,54.9,1247.2z"/>
	<path class="st3" d="M2556.7,1322.3c5.5,0,9.9,3.3,9.9,7.3c0,4-4.4,7.3-9.9,7.3c-5.5,0-9.9-3.3-9.9-7.3
		C2546.8,1325.6,2551.2,1322.3,2556.7,1322.3z"/>
	<path class="st3" d="M2009.1,1002c8,0,14.5,4.8,14.5,10.8c0,5.9-6.5,10.8-14.5,10.8c-8,0-14.5-4.8-14.5-10.8
		C1994.6,1006.8,2001.1,1002,2009.1,1002z"/>
	<ellipse class="st3" cx="627.6" cy="1287.9" rx="13.6" ry="10.1"/>
	<path class="st3" d="M2542.8,782.1c7.5,0,13.5,4.5,13.5,10c0,5.5-6,10-13.5,10s-13.5-4.5-13.5-10
		C2529.3,786.6,2535.3,782.1,2542.8,782.1z"/>
	<ellipse class="st3" cx="1190" cy="1150.7" rx="11.1" ry="8.3"/>
	<path class="st3" d="M1754.7,886c6.6,0,11.9,3.9,11.9,8.8s-5.3,8.8-11.9,8.8c-6.6,0-11.9-3.9-11.9-8.8S1748.1,886,1754.7,886z"/>
	<path class="st3" d="M1892.4,1227.7c3.9,0,7.1,2.4,7.1,5.3s-3.2,5.3-7.1,5.3c-3.9,0-7.1-2.4-7.1-5.3S1888.4,1227.7,1892.4,1227.7z"
		/>
	<path class="st3" d="M-0.3,1405.9c3.9,0,7,2.3,7,5.2c0,2.9-3.1,5.2-7,5.2s-7-2.3-7-5.2C-7.2,1408.3-4.1,1405.9-0.3,1405.9z"/>
	<path class="st3" d="M1419.2,1211.5c8.7,0,15.7,5.2,15.7,11.6s-7,11.6-15.7,11.6c-8.7,0-15.7-5.2-15.7-11.6
		C1403.6,1216.7,1410.6,1211.5,1419.2,1211.5z"/>
	<ellipse class="st3" cx="1386" cy="1398.3" rx="12.6" ry="9.3"/>
	<path class="st3" d="M1341.1,658c3.7,0,6.7,2.2,6.7,5s-3,5-6.7,5s-6.7-2.2-6.7-5C1334.4,660.2,1337.4,658,1341.1,658z"/>
	<ellipse class="st3" cx="960.9" cy="1281.3" rx="15.9" ry="11.8"/>
	<path class="st3" d="M2181.4,1207c8.1,0,14.7,4.9,14.7,10.9c0,6-6.6,10.9-14.7,10.9s-14.7-4.9-14.7-10.9
		C2166.7,1211.9,2173.3,1207,2181.4,1207z"/>
	<path class="st3" d="M601.4,1111.2c7,0,12.7,4.2,12.7,9.4s-5.7,9.4-12.7,9.4c-7,0-12.7-4.2-12.7-9.4S594.4,1111.2,601.4,1111.2z"/>
	<path class="st3" d="M70.6,1304.7c5.4,0,9.7,3.2,9.7,7.2c0,4-4.3,7.2-9.7,7.2c-5.4,0-9.7-3.2-9.7-7.2
		C60.9,1308,65.3,1304.7,70.6,1304.7z"/>
	<ellipse class="st3" cx="376.3" cy="1346.9" rx="13.9" ry="10.3"/>
	<path class="st3" d="M1659.4,920.4c3,0,5.4,1.8,5.4,4c0,2.2-2.4,4-5.4,4s-5.4-1.8-5.4-4C1654.1,922.2,1656.5,920.4,1659.4,920.4z"
		/>
	<path class="st3" d="M2510,1271.9c8.2,0,14.9,4.9,14.9,11s-6.7,11-14.9,11c-8.2,0-14.9-4.9-14.9-11S2501.7,1271.9,2510,1271.9z"/>
	<path class="st3" d="M708.7,1132.9c5.3,0,9.5,3.2,9.5,7.1s-4.3,7.1-9.5,7.1c-5.3,0-9.5-3.2-9.5-7.1S703.4,1132.9,708.7,1132.9z"/>
	<path class="st3" d="M1900.1,1343.6c4.1,0,7.5,2.5,7.5,5.6c0,3.1-3.4,5.6-7.5,5.6s-7.5-2.5-7.5-5.6
		C1892.6,1346.1,1895.9,1343.6,1900.1,1343.6z"/>
	<path class="st3" d="M2834.2,819.6c4.7,0,8.5,2.8,8.5,6.3c0,3.5-3.8,6.3-8.5,6.3c-4.7,0-8.5-2.8-8.5-6.3
		C2825.7,822.5,2829.5,819.6,2834.2,819.6z"/>
	<path class="st3" d="M1793.3,660.5c3.2,0,5.8,1.9,5.8,4.3c0,2.4-2.6,4.3-5.8,4.3s-5.8-1.9-5.8-4.3
		C1787.5,662.4,1790.1,660.5,1793.3,660.5z"/>
	<path class="st3" d="M374.1,1066.6c4.7,0,8.4,2.8,8.4,6.3s-3.8,6.3-8.4,6.3s-8.4-2.8-8.4-6.3
		C365.7,1069.4,369.4,1066.6,374.1,1066.6z"/>
	<path class="st3" d="M2045.7,1066.8c9.3,0,16.9,5.6,16.9,12.5c0,6.9-7.6,12.5-16.9,12.5s-16.9-5.6-16.9-12.5
		C2028.8,1072.4,2036.4,1066.8,2045.7,1066.8z"/>
	<path class="st3" d="M2871.6,951.5c-4.5,2-9.4,0.9-11.1-2.4c-1.7-3.3,0.6-7.6,5-9.6c4.5-2,9.4-0.9,11.1,2.4
		C2878.3,945.2,2876.1,949.5,2871.6,951.5z"/>
	<path class="st3" d="M2122,1154.3c4.9,0,8.9,2.9,8.9,6.6c0,3.6-4,6.6-8.9,6.6c-4.9,0-8.9-2.9-8.9-6.6
		C2113.1,1157.2,2117.1,1154.3,2122,1154.3z"/>
	<path class="st3" d="M1667.9,1054.4c3.4,0,6.2,2,6.2,4.6c0,2.5-2.8,4.6-6.2,4.6c-3.4,0-6.2-2-6.2-4.6
		C1661.8,1056.4,1664.5,1054.4,1667.9,1054.4z"/>
	<path class="st3" d="M1252.3,1250.6c5.4,0,9.8,3.2,9.8,7.2c0,4-4.4,7.2-9.8,7.2c-5.4,0-9.8-3.2-9.8-7.2
		S1246.9,1250.6,1252.3,1250.6z"/>
	<path class="st3" d="M2329.5,962.2c7.3,0,13.1,4.4,13.1,9.7c0,5.4-5.9,9.7-13.1,9.7c-7.3,0-13.1-4.4-13.1-9.7
		C2316.3,966.6,2322.2,962.2,2329.5,962.2z"/>
	<path class="st3" d="M659.5,1159.3c7.6,0,13.7,4.6,13.7,10.2c0,5.6-6.2,10.2-13.7,10.2c-7.6,0-13.7-4.6-13.7-10.2
		S651.9,1159.3,659.5,1159.3z"/>
	<path class="st3" d="M1219.8,1145.3c4.8,0,8.7,2.9,8.7,6.4c0,3.5-3.9,6.4-8.7,6.4c-4.8,0-8.7-2.9-8.7-6.4
		C1211.1,1148.1,1215,1145.3,1219.8,1145.3z"/>
	<path class="st3" d="M2414.4,1353.1c8.9,0,16.1,5.4,16.1,12c0,6.6-7.2,12-16.1,12c-8.9,0-16.1-5.4-16.1-12
		C2398.2,1358.5,2405.5,1353.1,2414.4,1353.1z"/>
	<path class="st3" d="M1404.3,1197.4c5.2,0,9.4,3.1,9.4,7c0,3.8-4.2,7-9.4,7c-5.2,0-9.4-3.1-9.4-7
		C1394.9,1200.5,1399.1,1197.4,1404.3,1197.4z"/>
	<path class="st3" d="M2499.9,885.8c8.4,0,15.2,5,15.2,11.3s-6.8,11.3-15.2,11.3c-8.4,0-15.2-5-15.2-11.3S2491.5,885.8,2499.9,885.8
		z"/>
	<path class="st3" d="M2023.1,947.6c3.7,0,6.7,2.2,6.7,4.9c0,2.7-3,4.9-6.7,4.9c-3.7,0-6.7-2.2-6.7-4.9
		C2016.5,949.8,2019.4,947.6,2023.1,947.6z"/>
	<path class="st3" d="M1575.3,1378.5"/>
	<path class="st3" d="M1625.2,522.8c5.7,0,10.2,3.4,10.2,7.6c0,4.2-4.6,7.6-10.2,7.6s-10.2-3.4-10.2-7.6
		C1614.9,526.2,1619.5,522.8,1625.2,522.8z"/>
	<path class="st3" d="M2646.7,1229.7c-2.9,1.3-6.1,0.6-7.2-1.6s0.4-4.9,3.3-6.2c2.9-1.3,6.1-0.6,7.2,1.6
		S2649.7,1228.4,2646.7,1229.7z"/>
	<path class="st3" d="M1098.2,1370.2c7,0,12.6,4.2,12.6,9.4c0,5.2-5.7,9.4-12.6,9.4c-7,0-12.6-4.2-12.6-9.4
		C1085.6,1374.4,1091.2,1370.2,1098.2,1370.2z"/>
	<path class="st3" d="M1322.4,1157.7c9.1,0,16.5,5.5,16.5,12.3c0,6.8-7.4,12.3-16.5,12.3c-9.1,0-16.5-5.5-16.5-12.3
		C1305.9,1163.2,1313.3,1157.7,1322.4,1157.7z"/>
	<path class="st3" d="M166.5,1286.7c4.1,0,7.5,2.5,7.5,5.6c0,3.1-3.4,5.6-7.5,5.6c-4.1,0-7.5-2.5-7.5-5.6
		C159,1289.1,162.4,1286.7,166.5,1286.7z"/>
	<path class="st3" d="M1280.1,1221.1c7.5,0,13.6,4.5,13.6,10.1s-6.1,10.1-13.6,10.1s-13.6-4.5-13.6-10.1
		S1272.6,1221.1,1280.1,1221.1z"/>
	<path class="st3" d="M853.4,1013.3c6.8,0,12.3,4.1,12.3,9.1c0,5-5.5,9.1-12.3,9.1s-12.3-4.1-12.3-9.1
		C841,1017.3,846.6,1013.3,853.4,1013.3z"/>
	<path class="st3" d="M2764.1,991.1c7.9,0,14.2,4.7,14.2,10.6c0,5.8-6.4,10.6-14.2,10.6c-7.9,0-14.2-4.7-14.2-10.6
		C2749.8,995.8,2756.2,991.1,2764.1,991.1z"/>
	<path class="st3" d="M2770.7,1149.7c7.4,0,13.3,4.4,13.3,9.9c0,5.5-6,9.9-13.3,9.9c-7.4,0-13.3-4.4-13.3-9.9
		S2763.3,1149.7,2770.7,1149.7z"/>
	<path class="st3" d="M2293.4,881.3c8.5,0,15.5,5.1,15.5,11.5c0,6.3-6.9,11.5-15.5,11.5c-8.5,0-15.5-5.1-15.5-11.5
		C2277.9,886.4,2284.8,881.3,2293.4,881.3z"/>
	<path class="st3" d="M1767.2,1165.1c5.7,0,10.3,3.4,10.3,7.6c0,4.2-4.6,7.6-10.3,7.6c-5.7,0-10.3-3.4-10.3-7.6
		C1756.9,1168.5,1761.5,1165.1,1767.2,1165.1z"/>
	<path class="st3" d="M1013.4,1194.2c9.2,0,16.6,5.5,16.6,12.4c0,6.8-7.5,12.4-16.6,12.4c-9.2,0-16.6-5.5-16.6-12.4
		C996.7,1199.7,1004.2,1194.2,1013.4,1194.2z"/>
	<ellipse class="st3" cx="329.4" cy="802.3" rx="16.1" ry="12"/>
	<path class="st3" d="M1425.8,1239.9c9.2,0,16.6,5.5,16.6,12.3c0,6.8-7.4,12.3-16.6,12.3c-9.2,0-16.6-5.5-16.6-12.3
		C1409.2,1245.4,1416.6,1239.9,1425.8,1239.9z"/>
	<path class="st3" d="M1927.1,1017c3.5,0,6.3,2.1,6.3,4.7c0,2.6-2.8,4.7-6.3,4.7s-6.3-2.1-6.3-4.7
		C1920.7,1019.1,1923.6,1017,1927.1,1017z"/>
	<path class="st3" d="M132.2,1339.2c4,0,7.3,2.4,7.3,5.4s-3.3,5.4-7.3,5.4c-4,0-7.3-2.4-7.3-5.4
		C125,1341.6,128.2,1339.2,132.2,1339.2L132.2,1339.2z"/>
	<ellipse class="st3" cx="920.2" cy="1350.8" rx="13.4" ry="9.9"/>
	<path class="st3" d="M663.8,1236.1c9.3,0,16.9,5.6,16.9,12.5c0,6.9-7.5,12.5-16.9,12.5c-9.3,0-16.9-5.6-16.9-12.5
		C646.9,1241.6,654.5,1236.1,663.8,1236.1z"/>
	<path class="st3" d="M2423.9,765.5c3.9,0,7.1,2.3,7.1,5.2c0,2.9-3.2,5.2-7.1,5.2s-7.1-2.3-7.1-5.2
		C2416.9,767.8,2420,765.5,2423.9,765.5z"/>
	<path class="st3" d="M2477.2,1007.3c5.6,0,10.1,3.4,10.1,7.5s-4.5,7.5-10.1,7.5s-10.1-3.4-10.1-7.5S2471.6,1007.3,2477.2,1007.3z"
		/>
	<path class="st3" d="M1195,1184.3c4.5,0,8.1,2.7,8.1,6c0,3.3-3.6,6-8.1,6c-4.5,0-8.1-2.7-8.1-6
		C1186.9,1187,1190.6,1184.3,1195,1184.3z"/>
	<path class="st3" d="M1278.9,1114.8c6.5,0,11.8,3.9,11.8,8.8s-5.3,8.8-11.8,8.8s-11.8-3.9-11.8-8.8S1272.4,1114.8,1278.9,1114.8z"
		/>
	<path class="st3" d="M2469.6,1228.9c7.6,0,13.8,4.6,13.8,10.3s-6.2,10.3-13.8,10.3s-13.8-4.6-13.8-10.3
		C2455.8,1233.5,2462,1228.9,2469.6,1228.9z"/>
	<path class="st3" d="M848.9,1341.4c8.6,0,15.6,5.2,15.6,11.5c0,6.4-7,11.5-15.6,11.5s-15.6-5.2-15.6-11.5
		C833.4,1346.5,840.3,1341.4,848.9,1341.4z"/>
	<path class="st3" d="M2770.1,1224.4c8.3,0,14.9,5,14.9,11.1s-6.7,11.1-14.9,11.1s-14.9-5-14.9-11.1
		C2755.2,1229.3,2761.9,1224.4,2770.1,1224.4z"/>
	<path class="st3" d="M1656.5,419.3c4,0,7.2,2.4,7.2,5.4s-3.2,5.4-7.2,5.4c-4,0-7.2-2.4-7.2-5.4S1652.5,419.3,1656.5,419.3z"/>
	<path class="st3" d="M-20,1231.9c6.2,0,11.1,3.7,11.1,8.3s-5,8.3-11.1,8.3s-11.1-3.7-11.1-8.3S-26.1,1231.9-20,1231.9z"/>
	<path class="st3" d="M1795,803.3c9.3,0,16.9,5.6,16.9,12.5c0,6.9-7.6,12.5-16.9,12.5c-9.3,0-16.9-5.6-16.9-12.5
		C1778.2,808.9,1785.7,803.3,1795,803.3z"/>
	<path class="st3" d="M2230.6,723.2c7.6,0,13.8,4.6,13.8,10.2c0,5.7-6.2,10.2-13.8,10.2c-7.6,0-13.8-4.6-13.8-10.2
		C2216.8,727.8,2223,723.2,2230.6,723.2z"/>
	<path class="st3" d="M259.4,1380.9c0-3.8,4.1-6.9,9.3-6.9c5.1,0,9.3,3.1,9.3,6.9"/>
	<path class="st3" d="M442.9,1265.4c6.4,0,11.6,3.8,11.6,8.6c0,4.8-5.2,8.6-11.6,8.6c-6.4,0-11.6-3.8-11.6-8.6
		C431.3,1269.3,436.5,1265.4,442.9,1265.4z"/>
	<path class="st3" d="M353.1,1199.1c5.3,0,9.5,3.2,9.5,7.1c0,3.9-4.3,7.1-9.5,7.1c-5.2,0-9.5-3.2-9.5-7.1S347.9,1199.1,353.1,1199.1
		z"/>
	<path class="st3" d="M1786.2,1179.3c5,0,9,3,9,6.7c0,3.7-4,6.7-9,6.7s-9-3-9-6.7S1781.2,1179.3,1786.2,1179.3z"/>
	<path class="st3" d="M804.6,1037.7c7.5,0,13.6,4.5,13.6,10.1s-6.1,10.1-13.6,10.1s-13.6-4.5-13.6-10.1S797.1,1037.7,804.6,1037.7z"
		/>
	<path class="st3" d="M1057.1,1076.1c8.1,0,14.7,4.9,14.7,10.9c0,6-6.6,10.9-14.7,10.9c-8.1,0-14.7-4.9-14.7-10.9
		C1042.4,1081,1049,1076.1,1057.1,1076.1z"/>
	<path class="st3" d="M358.3,1190.9c3.2,0,5.7,1.9,5.7,4.3c0,2.3-2.6,4.3-5.7,4.3c-3.2,0-5.7-1.9-5.7-4.3
		C352.6,1192.8,355.2,1190.9,358.3,1190.9z"/>
	<path class="st3" d="M2411,982.5c7.5,0,13.6,4.5,13.6,10.1s-6.1,10.1-13.6,10.1c-7.5,0-13.6-4.5-13.6-10.1S2403.5,982.5,2411,982.5
		z"/>
	
		<ellipse transform="matrix(0.9396 -0.3422 0.3422 0.9396 -279.8246 994.8569)" class="st3" cx="2679.7" cy="1290.5" rx="13.7" ry="10.3"/>
	<path class="st3" d="M2155.5,836.2c6.3,0,11.3,3.8,11.3,8.4s-5.1,8.4-11.3,8.4s-11.3-3.8-11.3-8.4S2149.3,836.2,2155.5,836.2z"/>
	<path class="st3" d="M1724,535.1c9.5,0,17.2,5.7,17.2,12.8s-7.7,12.8-17.2,12.8c-9.5,0-17.2-5.7-17.2-12.8S1714.4,535.1,1724,535.1
		z"/>
	<path class="st3" d="M251,1125.8c4.6,0,8.4,2.8,8.4,6.2s-3.8,6.2-8.4,6.2c-4.6,0-8.4-2.8-8.4-6.2S246.4,1125.8,251,1125.8z"/>
	<path class="st3" d="M214.8,1368.6"/>
	<path class="st3" d="M1069.4,941c8.6,0,15.5,5.2,15.5,11.5c0,6.4-7,11.5-15.5,11.5c-8.6,0-15.5-5.2-15.5-11.5
		C1053.9,946.1,1060.8,941,1069.4,941z"/>
	<path class="st3" d="M168.2,1271.4c8.6,0,15.5,5.2,15.5,11.5s-6.9,11.5-15.5,11.5c-8.6,0-15.5-5.2-15.5-11.5
		S159.6,1271.4,168.2,1271.4z"/>
	<path class="st3" d="M2006,647.4c5.7,0,10.3,3.4,10.3,7.6s-4.6,7.6-10.3,7.6c-5.7,0-10.3-3.4-10.3-7.6
		C1995.7,650.8,2000.3,647.4,2006,647.4z"/>
	<path class="st3" d="M473.8,1067.7c10,0,18.1,6,18.1,13.4c0,7.4-8.1,13.4-18.1,13.4c-10,0-18.1-6-18.1-13.4
		C455.7,1073.7,463.8,1067.7,473.8,1067.7z"/>
	<path class="st3" d="M1281.8,1059c7.1,0,12.9,4.3,12.9,9.5c0,5.3-5.8,9.5-12.9,9.5s-12.9-4.3-12.9-9.5
		C1268.9,1063.3,1274.7,1059,1281.8,1059z"/>
	<path class="st3" d="M1418.2,1124.5c7.5,0,13.6,4.5,13.6,10.1c0,5.6-6.1,10.1-13.6,10.1c-7.5,0-13.6-4.5-13.6-10.1
		C1404.7,1129.1,1410.7,1124.5,1418.2,1124.5L1418.2,1124.5z"/>
	<ellipse class="st3" cx="1898.6" cy="1265.4" rx="12" ry="8.9"/>
	<path class="st3" d="M689.7,1157.1c5,0,9,3,9,6.7c0,3.7-4,6.7-9,6.7s-9-3-9-6.7C680.7,1160.1,684.7,1157.1,689.7,1157.1z"/>
	<path class="st3" d="M101.4,1005.8c8.8,0,15.9,5.3,15.9,11.8c0,6.5-7.1,11.8-15.9,11.8c-8.8,0-15.9-5.3-15.9-11.8
		C85.6,1011,92.7,1005.8,101.4,1005.8z"/>
	<path class="st3" d="M2506.9,1039.3c5.5,0,9.9,3.3,9.9,7.3c0,4-4.4,7.3-9.9,7.3c-5.5,0-9.9-3.3-9.9-7.3
		C2497,1042.6,2501.5,1039.3,2506.9,1039.3z"/>
	<path class="st3" d="M1994.8,833.7c5.4,0,9.7,3.2,9.7,7.2s-4.3,7.2-9.7,7.2s-9.7-3.2-9.7-7.2S1989.4,833.7,1994.8,833.7z"/>
	<path class="st3" d="M902.4,804c7.5,0,13.6,4.5,13.6,10.1s-6.1,10.1-13.6,10.1s-13.6-4.5-13.6-10.1S894.9,804,902.4,804z"/>
	<path class="st3" d="M-21,1259.8c8.7,0,15.7,5.2,15.7,11.7s-7.1,11.7-15.7,11.7s-15.7-5.2-15.7-11.7S-29.7,1259.8-21,1259.8z"/>
	<ellipse class="st3" cx="507.7" cy="1346.8" rx="13.8" ry="10.2"/>
	<ellipse class="st3" cx="2723.9" cy="963.8" rx="11.3" ry="8.3"/>
	<path class="st3" d="M1529.1,899.6c8.9,0,16,5.3,16,11.9s-7.2,11.9-16,11.9c-8.9,0-16-5.3-16-11.9S1520.2,899.6,1529.1,899.6z"/>
	<path class="st3" d="M2131.3,830.8c6.6,0,12,4,12,8.9c0,4.9-5.4,8.9-12,8.9s-12-4-12-8.9C2119.3,834.8,2124.7,830.8,2131.3,830.8z"
		/>
	<ellipse class="st3" cx="1076.7" cy="825.7" rx="13.4" ry="9.9"/>
	<path class="st3" d="M1516.2,1404.2c4.8,0,8.6,2.9,8.6,6.4c0,3.5-3.9,6.4-8.6,6.4c-4.8,0-8.6-2.9-8.6-6.4
		C1507.6,1407.1,1511.5,1404.2,1516.2,1404.2z"/>
	<path class="st3" d="M1951.5,1318c2.5,0,4.5,1.5,4.5,3.4c0,1.9-2,3.4-4.5,3.4s-4.5-1.5-4.5-3.4
		C1946.9,1319.5,1948.9,1318,1951.5,1318z"/>
	<path class="st3" d="M1609.3,1365.7c5.8,0,10.6,3.5,10.6,7.8c0,4.3-4.7,7.8-10.6,7.8s-10.6-3.5-10.6-7.8
		C1598.7,1369.2,1603.5,1365.7,1609.3,1365.7z"/>
	<path class="st3" d="M1914.6,1313.8c3.2,0,5.8,1.9,5.8,4.3c0,2.4-2.6,4.3-5.8,4.3s-5.8-1.9-5.8-4.3
		C1908.8,1315.7,1911.4,1313.8,1914.6,1313.8z"/>
	<ellipse class="st3" cx="1469.3" cy="882.8" rx="15" ry="11.1"/>
</g>
</svg>
