<?xml version="1.0" encoding="UTF-8"?>
<svg id="Layer_2" data-name="Layer 2" xmlns="http://www.w3.org/2000/svg" viewBox="0 0 376.64 189.23">
  <defs>
    <style>
      .cls-1 {
        fill: #fff;
      }

      .cls-2 {
        fill: #41a58f;
      }
    </style>
  </defs>
  <g id="Layer_1-2" data-name="Layer 1">
    <path class="cls-1" d="m369.49,58.3C335.32-15.61,266.97,3.05,200.8.13l-19.7,28.46s34.93-.27,34.75-.09c-5.56,5.56-9.8,11.03-13.69,17.35-22.15,35.87-16.18,86.2,14.73,115.25h0c74.23,70.51,189.68-7.67,152.61-102.8Zm-86.86,101.76c-87.08-1.94-87.06-129.64,0-131.56,87.08,1.94,87.06,129.64,0,131.56Z"/>
    <path class="cls-2" d="m198.76,181.5c-6.7-6.71-12.5-13.88-17.37-21.45h-87.05c-18.37,0-33.6-6.29-46.55-19.24-25.72-24.37-25.71-68.72,0-93.09,12.95-12.94,28.17-19.24,46.54-19.24h55.6S169.62,0,169.62,0h-75.29c-25.9,0-48.37,9.29-66.67,27.61C.37,53.65-7.14,96.17,6.98,130.47c8.92,21.97,29.2,42.25,51.17,51.16,22.07,13.33,121.39,4.57,148.28,6.92-2.63-2.23-5.2-4.6-7.67-7.05Z"/>
  </g>
</svg>