<?xml version="1.0" encoding="UTF-8"?>
<svg id="Layer_2" data-name="Layer 2" xmlns="http://www.w3.org/2000/svg" xmlns:xlink="http://www.w3.org/1999/xlink" viewBox="0 0 1262.83 268.67">
  <defs>
    <style>
      .cls-1 {
        fill: url(#linear-gradient-2);
      }

      .cls-2 {
        fill: #fff;
      }

      .cls-3 {
        fill: url(#linear-gradient-17);
      }

      .cls-4 {
        fill: url(#linear-gradient-15);
      }

      .cls-5 {
        fill: url(#linear-gradient-18);
      }

      .cls-6 {
        fill: url(#linear-gradient-14);
      }

      .cls-7, .cls-8 {
        fill: none;
      }

      .cls-7, .cls-9 {
        opacity: .8;
      }

      .cls-10 {
        fill: url(#linear-gradient-6);
      }

      .cls-11 {
        fill: url(#linear-gradient-11);
      }

      .cls-12 {
        fill: url(#linear-gradient-10);
      }

      .cls-13 {
        fill: url(#linear-gradient-16);
      }

      .cls-14 {
        fill: #f1f2f2;
      }

      .cls-15 {
        fill: url(#linear-gradient-5);
      }

      .cls-8 {
        opacity: .75;
      }

      .cls-16 {
        fill: url(#linear-gradient-7);
      }

      .cls-17 {
        fill: url(#linear-gradient-9);
      }

      .cls-18 {
        fill: url(#linear-gradient);
      }

      .cls-9 {
        fill: url(#linear-gradient-3);
      }

      .cls-19 {
        fill: #14ad89;
      }

      .cls-20 {
        fill: url(#linear-gradient-4);
      }

      .cls-21 {
        fill: url(#linear-gradient-8);
      }

      .cls-22 {
        fill: url(#linear-gradient-12);
      }

      .cls-23 {
        fill: url(#linear-gradient-13);
      }
    </style>
    <linearGradient id="linear-gradient" x1="375.88" y1="-12.09" x2="375.88" y2="265.44" gradientUnits="userSpaceOnUse">
      <stop offset="0" stop-color="#525355"/>
      <stop offset=".02" stop-color="#58595b"/>
      <stop offset=".04" stop-color="#6b6c6e"/>
      <stop offset=".07" stop-color="#8a8b8c"/>
      <stop offset=".11" stop-color="#b5b5b6"/>
      <stop offset=".15" stop-color="#ebebec"/>
      <stop offset=".16" stop-color="#fff"/>
      <stop offset=".25" stop-color="#f6f6f7"/>
      <stop offset=".39" stop-color="#e0e0e1"/>
      <stop offset=".52" stop-color="#c5c6c8"/>
      <stop offset=".53" stop-color="#a7a7a9"/>
      <stop offset=".56" stop-color="#787879"/>
      <stop offset=".59" stop-color="#535354"/>
      <stop offset=".62" stop-color="#383839"/>
      <stop offset=".64" stop-color="#282828"/>
      <stop offset=".66" stop-color="#232323"/>
      <stop offset=".83" stop-color="#989898"/>
      <stop offset=".95" stop-color="#e2e2e2"/>
      <stop offset="1" stop-color="#fff"/>
    </linearGradient>
    <linearGradient id="linear-gradient-2" x1="146.93" x2="146.93" y2="265.44" xlink:href="#linear-gradient"/>
    <linearGradient id="linear-gradient-3" x1="377.92" y1="258.9" x2="377.92" y2="4.5" xlink:href="#linear-gradient"/>
    <linearGradient id="linear-gradient-4" x1="143.04" y1="258.9" x2="143.04" y2="4.5" xlink:href="#linear-gradient"/>
    <linearGradient id="linear-gradient-5" x1="619.36" y1="1.8" x2="619.36" y2="241.7" xlink:href="#linear-gradient"/>
    <linearGradient id="linear-gradient-6" x1="1046.06" y1="1.8" x2="1046.06" y2="241.7" xlink:href="#linear-gradient"/>
    <linearGradient id="linear-gradient-7" x1="880.98" y1="1.8" x2="880.98" y2="241.7" xlink:href="#linear-gradient"/>
    <linearGradient id="linear-gradient-8" x1="1203.12" y1="1.8" x2="1203.12" y2="241.7" xlink:href="#linear-gradient"/>
    <linearGradient id="linear-gradient-9" x1="1123.43" y1="1.8" x2="1123.43" y2="241.7" xlink:href="#linear-gradient"/>
    <linearGradient id="linear-gradient-10" x1="966.86" y1="1.8" x2="966.86" y2="241.7" xlink:href="#linear-gradient"/>
    <linearGradient id="linear-gradient-11" x1="749.38" y1="1.8" x2="749.38" y2="241.7" xlink:href="#linear-gradient"/>
    <linearGradient id="linear-gradient-12" x1="604.79" y1="1.8" x2="604.79" y2="241.7" xlink:href="#linear-gradient"/>
    <linearGradient id="linear-gradient-13" x1="1118.62" y1="1.8" x2="1118.62" y2="241.7" xlink:href="#linear-gradient"/>
    <linearGradient id="linear-gradient-14" x1="701.01" y1="1.8" x2="701.01" y2="241.7" xlink:href="#linear-gradient"/>
    <linearGradient id="linear-gradient-15" x1="1216.29" y1="1.8" x2="1216.29" y2="241.7" xlink:href="#linear-gradient"/>
    <linearGradient id="linear-gradient-16" x1="1015.08" y1="1.8" x2="1015.08" y2="241.7" xlink:href="#linear-gradient"/>
    <linearGradient id="linear-gradient-17" x1="909.5" y1="1.8" x2="909.5" y2="241.7" xlink:href="#linear-gradient"/>
    <linearGradient id="linear-gradient-18" x1="803.91" y1="1.8" x2="803.91" y2="241.7" xlink:href="#linear-gradient"/>
  </defs>
  <g id="Layer_9" data-name="Layer 9">
    <g>
      <path class="cls-18" d="m374.78,263.41h-.2c-21.86-1.48-43.16-8.46-61.63-20.19l-.08-.04-.2-.13-.08-.04-11.09-7.95-.12-.1c-4.42-3.52-8.65-7.37-12.57-11.43-23.92-24.71-37.1-57.27-37.1-91.68,0-18.68,3.83-36.72,11.38-53.64,4.54-10.18,10.31-19.68,17.23-28.37h-43.94L270.79,0h112.75c35.76,0,69.23,14.08,94.23,39.64,24.26,24.78,37.62,57.53,37.62,92.21s-13.18,66.97-37.11,91.69c-22.75,23.52-53.22,37.67-85.78,39.86h-.2s-17.53.01-17.53.01Zm8.76-213.58c-45.22,0-82.02,36.79-82.02,82.02,0,42.03,31.46,77.09,73.18,81.55,2.92.31,5.89.47,8.83.47s5.92-.16,8.83-.47c41.72-4.46,73.19-39.52,73.19-81.55,0-45.22-36.79-82.02-82.02-82.02Z"/>
      <path class="cls-1" d="m123.08,263.41h-.2c-32.57-2.2-63.03-16.35-85.78-39.87C13.18,198.82,0,166.26,0,131.85S13.36,64.42,37.62,39.63C62.62,14.08,96.09,0,131.85,0h107.3l-34.42,49.83h-72.87c-45.23,0-82.02,36.79-82.02,82.02,0,36.64,24.61,69.12,59.84,78.99,5.99,1.68,12.45,2.53,19.2,2.53h118.85l1.76,2.8c8.69,13.79,19.41,26.12,31.87,36.66l12.51,10.58H123.08Z"/>
      <path class="cls-9" d="m474.56,42.78c-24.15-24.69-56.48-38.28-91.02-38.28h-110.39l-28.21,40.83h45.16c-9.53,10.27-17.23,21.93-22.92,34.7-7.29,16.34-10.99,33.78-10.99,51.81,0,33.24,12.73,64.69,35.84,88.56,3.78,3.92,7.87,7.63,12.21,11.08l10.66,7.65.17.11c17.91,11.44,38.59,18.23,59.81,19.66h17.33c31.44-2.11,60.87-15.78,82.84-38.5,23.12-23.87,35.84-55.32,35.84-88.56s-12.9-65.13-36.33-89.06Zm-26.6,146.94c-13.8,15.37-33.1,25.79-55.11,28.15-6.15.66-12.47.66-18.62,0-44.02-4.71-77.2-41.69-77.2-86.03,0-47.7,38.81-86.51,86.51-86.51s86.52,38.81,86.52,86.51c0,22.17-8.3,42.5-22.1,57.88Z"/>
      <path class="cls-20" d="m281.57,258.9H123.18c-31.45-2.11-60.87-15.78-82.84-38.5-23.11-23.87-35.84-55.32-35.84-88.56s12.9-65.13,36.33-89.06C64.99,18.09,97.31,4.5,131.85,4.5h98.71l-28.2,40.83h-70.51c-47.71,0-86.53,38.81-86.53,86.51,0,38.65,25.96,72.91,63.13,83.33,6.39,1.78,13.25,2.69,20.41,2.69h116.37l.44.7c8.93,14.18,19.96,26.86,32.77,37.7l3.13,2.64Z"/>
      <g class="cls-7">
        <path class="cls-2" d="m477.78,39.78C452.77,14.22,419.3.15,383.54.15h-112.75l-34.43,49.83h43.94c-6.92,8.69-12.69,18.19-17.23,28.37-7.55,16.92-11.38,34.97-11.38,53.64,0,34.41,13.18,66.97,37.1,91.68,3.92,4.06,8.15,7.91,12.57,11.43l.12.1,11.09,7.95.08.04.2.13.08.04c18.48,11.73,39.78,18.71,61.63,20.17h.2s17.53.01,17.53.01h.2c32.56-2.2,63.03-16.35,85.78-39.87,23.93-24.72,37.11-57.28,37.11-91.69s-13.36-67.43-37.62-92.21Zm-85.4,173.76c-2.92.31-5.89.47-8.83.47s-5.92-.16-8.83-.47c-41.72-4.46-73.18-39.52-73.18-81.55,0-45.22,36.79-82.02,82.02-82.02s82.02,36.79,82.02,82.02c0,42.03-31.46,77.09-73.19,81.55Z"/>
        <path class="cls-19" d="m249.48,216.31l-1.76-2.8h-118.85c-6.75,0-13.21-.85-19.2-2.53-35.23-9.87-59.84-42.35-59.84-78.99,0-45.22,36.79-82.02,82.02-82.02h72.87L239.14.15h-107.3C96.09.15,62.62,14.22,37.62,39.78,13.36,64.56,0,97.31,0,131.99s13.18,66.97,37.11,91.69c22.75,23.52,53.21,37.67,85.78,39.86h.2s170.78.01,170.78.01l-12.51-10.58c-12.46-10.54-23.18-22.87-31.87-36.66Z"/>
      </g>
    </g>
    <g>
      <g id="cos">
        <path class="cls-15" d="m614.86,124.14h68.76l-5.14-10.27h-63.52c-13.63,0-25.41-4.87-35.01-14.47-9.6-9.6-14.47-21.38-14.47-35.01s4.87-25.41,14.47-35.01c9.6-9.6,21.38-14.47,35.01-14.47h59.66V4.63h-59.76c-16.43,0-30.64,5.89-42.26,17.5s-17.5,25.83-17.5,42.26,5.89,30.65,17.5,42.26c11.61,11.61,25.83,17.5,42.26,17.5Z"/>
        <polygon class="cls-10" points="1101.87 113.87 999.91 113.87 999.91 4.63 990.24 4.63 990.24 124.14 1101.87 124.14 1101.87 113.87"/>
        <path class="cls-16" d="m935.57,114.62c6.31-6.31,9.52-14.03,9.52-22.93s-3.2-16.61-9.52-22.93c-6.32-6.32-14.03-9.52-22.93-9.52h-54.2c-6.1,0-11.38-2.18-15.68-6.49-4.31-4.31-6.49-9.58-6.49-15.68s2.18-11.37,6.49-15.68c4.31-4.31,9.58-6.49,15.68-6.49h86.85V4.63h-87.15c-8.9,0-16.61,3.2-22.93,9.52-6.32,6.32-9.52,14.03-9.52,22.93s3.2,16.62,9.52,22.93c6.31,6.32,14.03,9.52,22.93,9.52h54.55c6.1,0,11.37,2.18,15.68,6.49,4.31,4.31,6.49,9.58,6.49,15.68s-2.18,11.38-6.49,15.68c-4.31,4.31-9.58,6.49-15.68,6.49h-90.88l-5.14,10.27h95.97c8.9,0,16.61-3.2,22.93-9.52Z"/>
        <path class="cls-21" d="m1203.12,124.2c16.41,0,30.62-5.88,42.22-17.49,11.6-11.6,17.48-25.81,17.48-42.22s-5.88-30.62-17.49-42.22c-11.6-11.6-25.81-17.49-42.22-17.49s-30.62,5.88-42.22,17.49c-11.6,11.6-17.48,25.81-17.48,42.22s5.88,30.62,17.48,42.22c11.6,11.6,25.81,17.49,42.22,17.49Zm-49.53-59.71c0-13.64,4.87-25.43,14.49-35.04,9.61-9.61,21.4-14.49,35.04-14.49s25.43,4.87,35.04,14.49c9.61,9.61,14.49,21.4,14.49,35.04s-4.87,25.43-14.49,35.04c-9.61,9.61-21.4,14.49-35.04,14.49s-25.43-4.87-35.04-14.49c-9.61-9.61-14.49-21.4-14.49-35.04Z"/>
        <rect class="cls-17" x="1118.3" y="4.63" width="10.27" height="119.51"/>
        <rect class="cls-12" x="961.72" y="4.63" width="10.27" height="119.51"/>
        <path class="cls-11" d="m809.09,64.49c0-16.41-5.88-30.62-17.49-42.22-11.6-11.6-25.81-17.49-42.22-17.49s-30.62,5.88-42.22,17.49c-11.6,11.6-17.49,25.81-17.49,42.22s5.88,30.62,17.49,42.22c11.6,11.6,25.81,17.49,42.22,17.49s30.62-5.88,42.22-17.49c11.6-11.6,17.49-25.81,17.49-42.22Zm-10.18,0c0,13.64-4.87,25.43-14.49,35.04-9.61,9.61-21.4,14.49-35.04,14.49s-25.43-4.87-35.04-14.49c-9.61-9.61-14.49-21.4-14.49-35.04s4.87-25.43,14.49-35.04c9.61-9.61,21.4-14.49,35.04-14.49s25.43,4.87,35.04,14.49c9.61,9.61,14.49,21.4,14.49,35.04Z"/>
      </g>
      <g id="cos2" class="cls-8">
        <path class="cls-19" d="m614.86,124.14h68.76l-5.14-10.27h-63.52c-13.63,0-25.41-4.87-35.01-14.47-9.6-9.6-14.47-21.38-14.47-35.01s4.87-25.41,14.47-35.01c9.6-9.6,21.38-14.47,35.01-14.47h59.66V4.63h-59.76c-16.43,0-30.64,5.89-42.26,17.5s-17.5,25.83-17.5,42.26,5.89,30.65,17.5,42.26c11.61,11.61,25.83,17.5,42.26,17.5Z"/>
        <polygon class="cls-19" points="1101.87 113.87 999.91 113.87 999.91 4.63 990.24 4.63 990.24 124.14 1101.87 124.14 1101.87 113.87"/>
        <path class="cls-19" d="m935.57,114.62c6.31-6.31,9.52-14.03,9.52-22.93s-3.2-16.61-9.52-22.93c-6.32-6.32-14.03-9.52-22.93-9.52h-54.2c-6.1,0-11.38-2.18-15.68-6.49-4.31-4.31-6.49-9.58-6.49-15.68s2.18-11.37,6.49-15.68c4.31-4.31,9.58-6.49,15.68-6.49h86.85V4.63h-87.15c-8.9,0-16.61,3.2-22.93,9.52-6.32,6.32-9.52,14.03-9.52,22.93s3.2,16.62,9.52,22.93c6.31,6.32,14.03,9.52,22.93,9.52h54.55c6.1,0,11.37,2.18,15.68,6.49,4.31,4.31,6.49,9.58,6.49,15.68s-2.18,11.38-6.49,15.68c-4.31,4.31-9.58,6.49-15.68,6.49h-90.88l-5.14,10.27h95.97c8.9,0,16.61-3.2,22.93-9.52Z"/>
        <path class="cls-19" d="m1203.12,124.2c16.41,0,30.62-5.88,42.22-17.49,11.6-11.6,17.48-25.81,17.48-42.22s-5.88-30.62-17.49-42.22c-11.6-11.6-25.81-17.49-42.22-17.49s-30.62,5.88-42.22,17.49c-11.6,11.6-17.48,25.81-17.48,42.22s5.88,30.62,17.48,42.22c11.6,11.6,25.81,17.49,42.22,17.49Zm-49.53-59.71c0-13.64,4.87-25.43,14.49-35.04,9.61-9.61,21.4-14.49,35.04-14.49s25.43,4.87,35.04,14.49c9.61,9.61,14.49,21.4,14.49,35.04s-4.87,25.43-14.49,35.04c-9.61,9.61-21.4,14.49-35.04,14.49s-25.43-4.87-35.04-14.49c-9.61-9.61-14.49-21.4-14.49-35.04Z"/>
        <rect class="cls-19" x="1118.3" y="4.63" width="10.27" height="119.51"/>
        <rect class="cls-19" x="961.72" y="4.63" width="10.27" height="119.51"/>
        <path class="cls-19" d="m809.09,64.49c0-16.41-5.88-30.62-17.49-42.22-11.6-11.6-25.81-17.49-42.22-17.49s-30.62,5.88-42.22,17.49c-11.6,11.6-17.49,25.81-17.49,42.22s5.88,30.62,17.49,42.22c11.6,11.6,25.81,17.49,42.22,17.49s30.62-5.88,42.22-17.49c11.6-11.6,17.49-25.81,17.49-42.22Zm-10.18,0c0,13.64-4.87,25.43-14.49,35.04-9.61,9.61-21.4,14.49-35.04,14.49s-25.43-4.87-35.04-14.49c-9.61-9.61-14.49-21.4-14.49-35.04s4.87-25.43,14.49-35.04c9.61-9.61,21.4-14.49,35.04-14.49s25.43,4.87,35.04,14.49c9.61,9.61,14.49,21.4,14.49,35.04Z"/>
      </g>
    </g>
    <g>
      <g id="con2">
        <path class="cls-22" d="m601.56,251.02c-10.2,0-19.02-3.65-26.21-10.83-7.19-7.19-10.83-16.01-10.83-26.21s3.65-19.02,10.83-26.21c7.19-7.19,16.01-10.83,26.21-10.83h45.14v-8.45h-45.19c-12.42,0-23.18,4.45-31.96,13.23-8.78,8.78-13.24,19.53-13.24,31.96s4.45,23.18,13.24,31.96c8.78,8.78,19.53,13.23,31.96,13.23h51.75l-3.92-7.85h-47.77Z"/>
        <path class="cls-23" d="m1139.32,168.49h-65.93v8.45h65.36c4.51,0,8.42,1.62,11.6,4.8,3.19,3.19,4.8,7.09,4.8,11.61s-1.62,8.42-4.8,11.6c-3.19,3.19-7.09,4.8-11.6,4.8h-65.36v56.06l7.85-4.09v-44.12h57.96c6.73.13,12.58-2.25,17.43-7.09,4.79-4.8,7.23-10.65,7.23-17.41s-2.43-12.62-7.23-17.41c-4.78-4.78-10.6-7.2-17.31-7.2Z"/>
        <path class="cls-6" d="m701.01,168.46c-12.43,0-23.19,4.46-31.98,13.24-8.79,8.79-13.24,19.55-13.24,31.98s4.46,23.19,13.24,31.98c8.79,8.79,19.55,13.24,31.98,13.24s23.19-4.46,31.98-13.24,13.24-19.55,13.24-31.98-4.46-23.19-13.24-31.98c-8.79-8.79-19.55-13.24-31.98-13.24Zm37.11,45.22c0,10.22-3.65,19.05-10.85,26.26-7.2,7.2-16.04,10.85-26.26,10.85s-19.05-3.65-26.26-10.85c-7.2-7.2-10.85-16.04-10.85-26.26s3.65-19.05,10.85-26.26c7.2-7.2,16.04-10.85,26.26-10.85s19.05,3.65,26.26,10.85,10.85,16.04,10.85,26.26Z"/>
        <polygon class="cls-4" points="1171.1 176.33 1212.37 176.33 1212.37 265.58 1220.21 261.48 1220.21 176.33 1261.48 176.33 1261.48 168.49 1171.1 168.49 1171.1 176.33"/>
        <polygon class="cls-13" points="969.61 258.87 1053.92 258.87 1053.92 251.02 977.46 251.02 977.46 217.6 1053.92 217.6 1053.92 209.76 977.46 209.76 977.46 176.33 1056.46 176.33 1060.55 168.49 969.61 168.49 969.61 258.87"/>
        <path class="cls-3" d="m906.22,251.02c-10.2,0-19.02-3.65-26.21-10.83-7.19-7.19-10.83-16.01-10.83-26.21s3.65-19.02,10.83-26.21c7.19-7.19,16.01-10.83,26.21-10.83h45.14v-8.45h-45.19c-12.42,0-23.18,4.45-31.96,13.23-8.78,8.78-13.23,19.53-13.23,31.96s4.45,23.18,13.23,31.96c8.78,8.78,19.53,13.23,31.96,13.23h51.85l-3.92-7.85h-47.88Z"/>
        <polygon class="cls-5" points="840.95 247.93 758.41 158.69 758.41 258.87 766.87 258.87 766.87 179.43 849.4 268.67 849.4 168.49 840.95 168.49 840.95 247.93"/>
      </g>
      <g id="con" class="cls-8">
        <path class="cls-14" d="m601.56,251.02c-10.2,0-19.02-3.65-26.21-10.83-7.19-7.19-10.83-16.01-10.83-26.21s3.65-19.02,10.83-26.21c7.19-7.19,16.01-10.83,26.21-10.83h45.14v-8.45h-45.19c-12.42,0-23.18,4.45-31.96,13.23-8.78,8.78-13.24,19.53-13.24,31.96s4.45,23.18,13.24,31.96c8.78,8.78,19.53,13.23,31.96,13.23h51.75l-3.92-7.85h-47.77Z"/>
        <path class="cls-14" d="m1139.32,168.49h-65.93v8.45h65.36c4.51,0,8.42,1.62,11.6,4.8,3.19,3.19,4.8,7.09,4.8,11.61s-1.62,8.42-4.8,11.6c-3.19,3.19-7.09,4.8-11.6,4.8h-65.36v56.06l7.85-4.09v-44.12h57.96c6.73.13,12.58-2.25,17.43-7.09,4.79-4.8,7.23-10.65,7.23-17.41s-2.43-12.62-7.23-17.41c-4.78-4.78-10.6-7.2-17.31-7.2Z"/>
        <path class="cls-14" d="m701.01,168.46c-12.43,0-23.19,4.46-31.98,13.24-8.79,8.79-13.24,19.55-13.24,31.98s4.46,23.19,13.24,31.98c8.79,8.79,19.55,13.24,31.98,13.24s23.19-4.46,31.98-13.24,13.24-19.55,13.24-31.98-4.46-23.19-13.24-31.98c-8.79-8.79-19.55-13.24-31.98-13.24Zm37.11,45.22c0,10.22-3.65,19.05-10.85,26.26-7.2,7.2-16.04,10.85-26.26,10.85s-19.05-3.65-26.26-10.85c-7.2-7.2-10.85-16.04-10.85-26.26s3.65-19.05,10.85-26.26c7.2-7.2,16.04-10.85,26.26-10.85s19.05,3.65,26.26,10.85,10.85,16.04,10.85,26.26Z"/>
        <polygon class="cls-14" points="1171.1 176.33 1212.37 176.33 1212.37 265.58 1220.21 261.48 1220.21 176.33 1261.48 176.33 1261.48 168.49 1171.1 168.49 1171.1 176.33"/>
        <polygon class="cls-14" points="969.61 258.87 1053.92 258.87 1053.92 251.02 977.46 251.02 977.46 217.6 1053.92 217.6 1053.92 209.76 977.46 209.76 977.46 176.33 1056.46 176.33 1060.55 168.49 969.61 168.49 969.61 258.87"/>
        <path class="cls-14" d="m906.22,251.02c-10.2,0-19.02-3.65-26.21-10.83-7.19-7.19-10.83-16.01-10.83-26.21s3.65-19.02,10.83-26.21c7.19-7.19,16.01-10.83,26.21-10.83h45.14v-8.45h-45.19c-12.42,0-23.18,4.45-31.96,13.23-8.78,8.78-13.23,19.53-13.23,31.96s4.45,23.18,13.23,31.96c8.78,8.78,19.53,13.23,31.96,13.23h51.85l-3.92-7.85h-47.88Z"/>
        <polygon class="cls-14" points="840.95 247.93 758.41 158.69 758.41 258.87 766.87 258.87 766.87 179.43 849.4 268.67 849.4 168.49 840.95 168.49 840.95 247.93"/>
      </g>
    </g>
  </g>
</svg>