<?xml version="1.0" encoding="UTF-8"?>
<svg id="Layer_2" data-name="Layer 2" xmlns="http://www.w3.org/2000/svg" xmlns:xlink="http://www.w3.org/1999/xlink" viewBox="0 0 706.38 361.21">
  <defs>
    <style>
      .cls-1 {
        fill: url(#linear-gradient-2);
      }

      .cls-2 {
        fill: #fff;
      }

      .cls-3 {
        fill: none;
        opacity: .8;
      }

      .cls-4 {
        fill: url(#linear-gradient-3);
      }

      .cls-5 {
        fill: url(#linear-gradient);
      }

      .cls-6 {
        fill: #14ad89;
      }

      .cls-7 {
        fill: url(#linear-gradient-4);
      }
    </style>
    <linearGradient id="linear-gradient" x1="515.16" y1="-16.57" x2="515.16" y2="363.8" gradientUnits="userSpaceOnUse">
      <stop offset="0" stop-color="#525355"/>
      <stop offset=".02" stop-color="#58595b"/>
      <stop offset=".04" stop-color="#6b6c6e"/>
      <stop offset=".07" stop-color="#8a8b8c"/>
      <stop offset=".11" stop-color="#b5b5b6"/>
      <stop offset=".15" stop-color="#ebebec"/>
      <stop offset=".16" stop-color="#fff"/>
      <stop offset=".25" stop-color="#f6f6f7"/>
      <stop offset=".39" stop-color="#e0e0e1"/>
      <stop offset=".52" stop-color="#c5c6c8"/>
      <stop offset=".53" stop-color="#a7a7a9"/>
      <stop offset=".56" stop-color="#787879"/>
      <stop offset=".59" stop-color="#535354"/>
      <stop offset=".62" stop-color="#383839"/>
      <stop offset=".64" stop-color="#282828"/>
      <stop offset=".66" stop-color="#232323"/>
      <stop offset=".83" stop-color="#989898"/>
      <stop offset=".95" stop-color="#e2e2e2"/>
      <stop offset="1" stop-color="#fff"/>
    </linearGradient>
    <linearGradient id="linear-gradient-2" x1="201.37" x2="201.37" y2="363.8" xlink:href="#linear-gradient"/>
    <linearGradient id="linear-gradient-3" x1="517.05" y1="356.84" x2="517.05" y2="4.17" xlink:href="#linear-gradient"/>
    <linearGradient id="linear-gradient-4" x1="197.78" y1="356.84" x2="197.78" y2="4.17" xlink:href="#linear-gradient"/>
  </defs>
  <g id="Layer_9" data-name="Layer 9">
    <g>
      <path class="cls-5" d="m513.65,361.01l-.28-.02c-29.95-2.01-59.15-11.57-84.47-27.65l-.11-.05-.27-.18-.1-.06-15.2-10.89-.16-.13c-6.06-4.83-11.86-10.1-17.23-15.66-32.79-33.87-50.85-78.5-50.85-125.66,0-25.6,5.25-50.33,15.59-73.52,6.22-13.96,14.13-26.98,23.62-38.89h-60.22L371.13,0h154.53c49.01,0,94.88,19.29,129.15,54.32,33.25,33.96,51.56,78.85,51.56,126.38s-18.06,91.79-50.86,125.67c-31.18,32.23-72.94,51.63-117.56,54.62l-.27.02h-24.02Zm12.01-292.72c-61.98,0-112.41,50.43-112.41,112.41,0,57.6,43.12,105.65,100.3,111.77,4,.43,8.07.65,12.11.65s8.11-.22,12.11-.65c57.18-6.12,100.31-54.17,100.31-111.77,0-61.98-50.43-112.41-112.41-112.41Z"/>
      <path class="cls-1" d="m168.69,361.01l-.27-.02c-44.63-3-86.38-22.4-117.56-54.63C18.06,272.49,0,227.87,0,180.7S18.31,88.28,51.56,54.32C85.83,19.29,131.7,0,180.7,0h147.06l-47.18,68.3h-99.87c-61.99,0-112.41,50.43-112.41,112.41,0,50.21,33.73,94.73,82.02,108.26,8.21,2.3,17.06,3.47,26.31,3.47h162.89l2.42,3.84c11.91,18.9,26.6,35.8,43.68,50.24l17.15,14.5h-234.06Z"/>
    </g>
    <g>
      <path class="cls-4" d="m651.84,57.24c-33.47-34.22-78.28-53.07-126.18-53.07h-152.34l-.6.86-38.66,55.96-2.17,3.14h61.2c-11.81,13.39-21.46,28.43-28.73,44.74-10.11,22.66-15.24,46.82-15.24,71.82,0,46.07,17.64,89.67,49.68,122.77,5.22,5.41,10.91,10.58,16.93,15.36l.04.03.04.03,14.61,10.48.04.03.04.03.23.15c24.82,15.85,53.49,25.28,82.92,27.26h.07s.07,0,.07,0h23.89c43.6-2.93,84.39-21.89,114.84-53.38,32.04-33.08,49.68-76.68,49.68-122.77s-17.89-90.29-50.36-123.46Zm-9.6,123.46c0,28.89-10.58,56.59-29.78,77.99-19.2,21.38-45.57,34.85-74.26,37.93-4.12.44-8.35.67-12.55.67s-8.42-.22-12.55-.67c-59.3-6.34-104.02-56.18-104.02-115.92,0-64.27,52.29-116.57,116.57-116.57s116.58,52.29,116.58,116.57Z"/>
      <path class="cls-7" d="m382.91,349.69c-17.42-14.74-32.39-31.97-44.51-51.21l-.6-.96-.59-.94h-160.6c-9.6,0-18.83-1.22-27.44-3.61-50.08-14.04-85.06-60.21-85.06-112.28,0-64.27,52.3-116.57,116.59-116.57h97.69l.6-.86,38.65-55.96,2.17-3.14h-139.1c-47.88,0-92.69,18.85-126.18,53.07C22.06,90.41,4.17,134.25,4.17,180.7s17.64,89.67,49.68,122.77c30.45,31.49,71.24,50.45,114.84,53.37h.07s.07,0,.07,0h222.55l-4.18-3.53-4.29-3.62Z"/>
    </g>
    <g class="cls-3">
      <path class="cls-2" d="m654.82,54.52C620.54,19.49,574.68.2,525.66.2h-154.53l-47.19,68.3h60.22c-9.48,11.91-17.4,24.93-23.62,38.89-10.34,23.19-15.59,47.92-15.59,73.52,0,47.16,18.06,91.79,50.85,125.66,5.38,5.57,11.17,10.84,17.23,15.66l.16.13,15.2,10.89.1.06.27.18.11.05c25.32,16.08,54.52,25.64,84.47,27.65l.28.02h24.02l.27-.02c44.63-3,86.38-22.39,117.56-54.62,32.8-33.88,50.86-78.51,50.86-125.67s-18.31-92.42-51.56-126.38Zm-117.04,238.15c-4,.43-8.08.65-12.11.65s-8.11-.22-12.11-.65c-57.18-6.12-100.3-54.17-100.3-111.77,0-61.98,50.43-112.41,112.41-112.41s112.41,50.43,112.41,112.41c0,57.6-43.12,105.65-100.31,111.77Z"/>
      <path class="cls-6" d="m341.92,296.47l-2.42-3.84h-162.89c-9.25,0-18.1-1.17-26.31-3.47-48.29-13.53-82.02-58.04-82.02-108.26,0-61.98,50.43-112.41,112.41-112.41h99.87L327.76.2h-147.06C131.7.2,85.83,19.49,51.56,54.52,18.31,88.49,0,133.37,0,180.91s18.06,91.79,50.86,125.66c31.18,32.23,72.93,51.63,117.56,54.63l.27.02h234.06l-17.15-14.5c-17.08-14.44-31.78-31.35-43.68-50.24Z"/>
    </g>
  </g>
</svg>