<?xml version="1.0" encoding="UTF-8"?>
<svg id="Layer_2" data-name="Layer 2" xmlns="http://www.w3.org/2000/svg" xmlns:xlink="http://www.w3.org/1999/xlink" viewBox="0 0 515.4 263.55">
  <defs>
    <style>
      .cls-1 {
        fill: url(#linear-gradient-2);
      }

      .cls-2 {
        fill: #fff;
      }

      .cls-3 {
        fill: none;
      }

      .cls-3, .cls-4 {
        opacity: .8;
      }

      .cls-5 {
        fill: url(#linear-gradient);
      }

      .cls-4 {
        fill: url(#linear-gradient-3);
      }

      .cls-6 {
        fill: #14ad89;
      }

      .cls-7 {
        fill: url(#linear-gradient-4);
      }
    </style>
    <linearGradient id="linear-gradient" x1="375.88" y1="-12.09" x2="375.88" y2="265.44" gradientUnits="userSpaceOnUse">
      <stop offset="0" stop-color="#525355"/>
      <stop offset=".02" stop-color="#58595b"/>
      <stop offset=".04" stop-color="#6b6c6e"/>
      <stop offset=".07" stop-color="#8a8b8c"/>
      <stop offset=".11" stop-color="#b5b5b6"/>
      <stop offset=".15" stop-color="#ebebec"/>
      <stop offset=".16" stop-color="#fff"/>
      <stop offset=".25" stop-color="#f6f6f7"/>
      <stop offset=".39" stop-color="#e0e0e1"/>
      <stop offset=".52" stop-color="#c5c6c8"/>
      <stop offset=".53" stop-color="#a7a7a9"/>
      <stop offset=".56" stop-color="#787879"/>
      <stop offset=".59" stop-color="#535354"/>
      <stop offset=".62" stop-color="#383839"/>
      <stop offset=".64" stop-color="#282828"/>
      <stop offset=".66" stop-color="#232323"/>
      <stop offset=".83" stop-color="#989898"/>
      <stop offset=".95" stop-color="#e2e2e2"/>
      <stop offset="1" stop-color="#fff"/>
    </linearGradient>
    <linearGradient id="linear-gradient-2" x1="146.93" x2="146.93" xlink:href="#linear-gradient"/>
    <linearGradient id="linear-gradient-3" x1="377.92" y1="258.9" x2="377.92" y2="4.5" xlink:href="#linear-gradient"/>
    <linearGradient id="linear-gradient-4" x1="143.04" y1="258.9" x2="143.04" y2="4.5" xlink:href="#linear-gradient"/>
  </defs>
  <g id="Layer_9" data-name="Layer 9">
    <path class="cls-5" d="m374.78,263.41h-.2c-21.86-1.48-43.16-8.46-61.63-20.19l-.08-.04-.2-.13-.08-.04-11.09-7.95-.12-.1c-4.42-3.52-8.65-7.37-12.57-11.43-23.92-24.71-37.1-57.27-37.1-91.68,0-18.68,3.83-36.72,11.38-53.64,4.54-10.18,10.31-19.68,17.23-28.37h-43.94L270.79,0h112.75c35.76,0,69.23,14.08,94.23,39.64,24.26,24.78,37.62,57.53,37.62,92.21s-13.18,66.97-37.11,91.69c-22.75,23.52-53.22,37.67-85.78,39.86h-.2s-17.53.01-17.53.01Zm8.76-213.58c-45.22,0-82.02,36.79-82.02,82.02,0,42.03,31.46,77.09,73.18,81.55,2.92.31,5.89.47,8.83.47s5.92-.16,8.83-.47c41.72-4.46,73.19-39.52,73.19-81.55,0-45.22-36.79-82.02-82.02-82.02Z"/>
    <path class="cls-1" d="m123.08,263.41h-.2c-32.57-2.2-63.03-16.35-85.78-39.87C13.18,198.82,0,166.26,0,131.85S13.36,64.42,37.62,39.63C62.62,14.08,96.09,0,131.85,0h107.3l-34.42,49.83h-72.87c-45.23,0-82.02,36.79-82.02,82.02,0,36.64,24.61,69.12,59.84,78.99,5.99,1.68,12.45,2.53,19.2,2.53h118.85l1.76,2.8c8.69,13.79,19.41,26.12,31.87,36.66l12.51,10.58H123.08Z"/>
    <path class="cls-4" d="m474.56,42.78c-24.15-24.69-56.48-38.28-91.02-38.28h-110.39l-28.21,40.83h45.16c-9.53,10.27-17.23,21.93-22.92,34.7-7.29,16.34-10.99,33.78-10.99,51.81,0,33.24,12.73,64.69,35.84,88.56,3.78,3.92,7.87,7.63,12.21,11.08l10.66,7.65.17.11c17.91,11.44,38.59,18.23,59.81,19.66h17.33c31.44-2.11,60.87-15.78,82.84-38.5,23.12-23.87,35.84-55.32,35.84-88.56s-12.9-65.13-36.33-89.06Zm-26.6,146.94c-13.8,15.37-33.1,25.79-55.11,28.15-6.15.66-12.47.66-18.62,0-44.02-4.71-77.2-41.69-77.2-86.03,0-47.7,38.81-86.51,86.51-86.51s86.52,38.81,86.52,86.51c0,22.17-8.3,42.5-22.1,57.88Z"/>
    <path class="cls-7" d="m281.57,258.9H123.18c-31.45-2.11-60.87-15.78-82.84-38.5-23.11-23.87-35.84-55.32-35.84-88.56s12.9-65.13,36.33-89.06C64.99,18.09,97.31,4.5,131.85,4.5h98.71l-28.2,40.83h-70.51c-47.71,0-86.53,38.81-86.53,86.51,0,38.65,25.96,72.91,63.13,83.33,6.39,1.78,13.25,2.69,20.41,2.69h116.37l.44.7c8.93,14.18,19.96,26.86,32.77,37.7l3.13,2.64Z"/>
    <g class="cls-3">
      <path class="cls-2" d="m477.78,39.78C452.77,14.22,419.3.15,383.54.15h-112.75l-34.43,49.83h43.94c-6.92,8.69-12.69,18.19-17.23,28.37-7.55,16.92-11.38,34.97-11.38,53.64,0,34.41,13.18,66.97,37.1,91.68,3.92,4.06,8.15,7.91,12.57,11.43l.12.1,11.09,7.95.08.04.2.13.08.04c18.48,11.73,39.78,18.71,61.63,20.17h.2s17.53.01,17.53.01h.2c32.56-2.2,63.03-16.35,85.78-39.87,23.93-24.72,37.11-57.28,37.11-91.69s-13.36-67.43-37.62-92.21Zm-85.4,173.76c-2.92.31-5.89.47-8.83.47s-5.92-.16-8.83-.47c-41.72-4.46-73.18-39.52-73.18-81.55,0-45.22,36.79-82.02,82.02-82.02s82.02,36.79,82.02,82.02c0,42.03-31.46,77.09-73.19,81.55Z"/>
      <path class="cls-6" d="m249.48,216.31l-1.76-2.8h-118.85c-6.75,0-13.21-.85-19.2-2.53-35.23-9.87-59.84-42.35-59.84-78.99,0-45.22,36.79-82.02,82.02-82.02h72.87L239.14.15h-107.3C96.09.15,62.62,14.22,37.62,39.78,13.36,64.56,0,97.31,0,131.99s13.18,66.97,37.11,91.69c22.75,23.52,53.21,37.67,85.78,39.86h.2s170.78.01,170.78.01l-12.51-10.58c-12.46-10.54-23.18-22.87-31.87-36.66Z"/>
    </g>
  </g>
</svg>