<?xml version="1.0" encoding="UTF-8"?>
<svg id="Layer_2" data-name="Layer 2" xmlns="http://www.w3.org/2000/svg" xmlns:xlink="http://www.w3.org/1999/xlink" viewBox="0 0 894.73 894.73">
  <defs>
    <style>
      .cls-1 {
        fill: url(#linear-gradient-2);
      }

      .cls-2 {
        fill: #fff;
      }

      .cls-3 {
        fill: url(#linear-gradient-17);
      }

      .cls-4 {
        fill: url(#linear-gradient-15);
      }

      .cls-5 {
        fill: url(#linear-gradient-18);
      }

      .cls-6 {
        fill: url(#linear-gradient-14);
      }

      .cls-7 {
        opacity: .8;
      }

      .cls-7, .cls-8 {
        fill: none;
      }

      .cls-9 {
        fill: url(#linear-gradient-6);
      }

      .cls-10 {
        fill: url(#linear-gradient-11);
      }

      .cls-11 {
        fill: url(#linear-gradient-10);
      }

      .cls-12 {
        fill: url(#linear-gradient-16);
      }

      .cls-13 {
        fill: #f1f2f2;
      }

      .cls-14 {
        fill: url(#linear-gradient-5);
      }

      .cls-8 {
        opacity: .75;
      }

      .cls-15 {
        fill: url(#linear-gradient-7);
      }

      .cls-16 {
        fill: url(#linear-gradient-9);
      }

      .cls-17 {
        fill: url(#linear-gradient-3);
      }

      .cls-18 {
        fill: url(#linear-gradient);
      }

      .cls-19 {
        fill: #14ad89;
      }

      .cls-20 {
        fill: url(#linear-gradient-4);
      }

      .cls-21 {
        fill: url(#linear-gradient-8);
      }

      .cls-22 {
        fill: url(#linear-gradient-12);
      }

      .cls-23 {
        fill: url(#linear-gradient-13);
      }
    </style>
    <linearGradient id="linear-gradient" x1="609.34" y1="95.99" x2="609.34" y2="476.36" gradientUnits="userSpaceOnUse">
      <stop offset="0" stop-color="#525355"/>
      <stop offset=".02" stop-color="#58595b"/>
      <stop offset=".04" stop-color="#6b6c6e"/>
      <stop offset=".07" stop-color="#8a8b8c"/>
      <stop offset=".11" stop-color="#b5b5b6"/>
      <stop offset=".15" stop-color="#ebebec"/>
      <stop offset=".16" stop-color="#fff"/>
      <stop offset=".25" stop-color="#f6f6f7"/>
      <stop offset=".39" stop-color="#e0e0e1"/>
      <stop offset=".52" stop-color="#c5c6c8"/>
      <stop offset=".53" stop-color="#a7a7a9"/>
      <stop offset=".56" stop-color="#787879"/>
      <stop offset=".59" stop-color="#535354"/>
      <stop offset=".62" stop-color="#383839"/>
      <stop offset=".64" stop-color="#282828"/>
      <stop offset=".66" stop-color="#232323"/>
      <stop offset=".83" stop-color="#989898"/>
      <stop offset=".95" stop-color="#e2e2e2"/>
      <stop offset="1" stop-color="#fff"/>
    </linearGradient>
    <linearGradient id="linear-gradient-2" x1="295.55" x2="295.55" y2="476.36" xlink:href="#linear-gradient"/>
    <linearGradient id="linear-gradient-3" x1="611.22" y1="469.4" x2="611.22" y2="116.73" xlink:href="#linear-gradient"/>
    <linearGradient id="linear-gradient-4" x1="291.95" y1="469.4" x2="291.95" y2="116.73" xlink:href="#linear-gradient"/>
    <linearGradient id="linear-gradient-5" x1="157.76" y1="515.3" x2="157.76" y2="755.19" xlink:href="#linear-gradient"/>
    <linearGradient id="linear-gradient-6" x1="584.45" y1="515.3" x2="584.45" y2="755.19" xlink:href="#linear-gradient"/>
    <linearGradient id="linear-gradient-7" x1="419.38" y1="515.3" x2="419.38" y2="755.19" xlink:href="#linear-gradient"/>
    <linearGradient id="linear-gradient-8" x1="741.52" y1="515.3" x2="741.52" y2="755.19" xlink:href="#linear-gradient"/>
    <linearGradient id="linear-gradient-9" x1="661.83" y1="515.3" x2="661.83" y2="755.19" xlink:href="#linear-gradient"/>
    <linearGradient id="linear-gradient-10" x1="505.25" y1="515.3" x2="505.25" y2="755.19" xlink:href="#linear-gradient"/>
    <linearGradient id="linear-gradient-11" x1="287.78" y1="515.3" x2="287.78" y2="755.19" xlink:href="#linear-gradient"/>
    <linearGradient id="linear-gradient-12" x1="143.25" y1="515.3" x2="143.25" y2="755.19" xlink:href="#linear-gradient"/>
    <linearGradient id="linear-gradient-13" x1="657.09" y1="515.3" x2="657.09" y2="755.19" xlink:href="#linear-gradient"/>
    <linearGradient id="linear-gradient-14" x1="239.48" y1="515.3" x2="239.48" y2="755.19" xlink:href="#linear-gradient"/>
    <linearGradient id="linear-gradient-15" x1="754.75" y1="515.3" x2="754.75" y2="755.19" xlink:href="#linear-gradient"/>
    <linearGradient id="linear-gradient-16" x1="553.54" y1="515.3" x2="553.54" y2="755.19" xlink:href="#linear-gradient"/>
    <linearGradient id="linear-gradient-17" x1="447.96" y1="515.3" x2="447.96" y2="755.19" xlink:href="#linear-gradient"/>
    <linearGradient id="linear-gradient-18" x1="342.37" y1="515.3" x2="342.37" y2="755.19" xlink:href="#linear-gradient"/>
  </defs>
  <g id="Layer_9" data-name="Layer 9">
    <rect width="894.73" height="894.73"/>
    <g>
      <path class="cls-18" d="m607.83,473.57l-.28-.02c-29.95-2.01-59.15-11.57-84.47-27.65l-.11-.05-.27-.18-.1-.06-15.2-10.89-.16-.13c-6.06-4.83-11.86-10.1-17.23-15.66-32.79-33.87-50.85-78.5-50.85-125.66,0-25.6,5.25-50.33,15.59-73.52,6.22-13.96,14.13-26.98,23.62-38.89h-60.22l47.19-68.3h154.53c49.01,0,94.88,19.29,129.15,54.32,33.25,33.96,51.56,78.85,51.56,126.38s-18.06,91.79-50.86,125.67c-31.18,32.23-72.94,51.63-117.56,54.62l-.27.02h-24.02Zm12.01-292.72c-61.98,0-112.41,50.43-112.41,112.41,0,57.6,43.12,105.65,100.3,111.77,4,.43,8.07.65,12.11.65s8.11-.22,12.11-.65c57.18-6.12,100.31-54.17,100.31-111.77,0-61.98-50.43-112.41-112.41-112.41Z"/>
      <path class="cls-1" d="m262.87,473.57l-.27-.02c-44.63-3-86.38-22.4-117.56-54.63-32.79-33.87-50.86-78.5-50.86-125.66s18.31-92.42,51.56-126.38c34.27-35.03,80.14-54.32,129.14-54.32h147.06l-47.18,68.3h-99.87c-61.99,0-112.41,50.43-112.41,112.41,0,50.21,33.73,94.73,82.02,108.26,8.21,2.3,17.06,3.47,26.31,3.47h162.89l2.42,3.84c11.91,18.9,26.6,35.8,43.68,50.24l17.15,14.5h-234.06Z"/>
    </g>
    <g>
      <path class="cls-17" d="m746.01,169.8c-33.47-34.22-78.28-53.07-126.18-53.07h-152.34l-.6.86-38.66,55.96-2.17,3.14h61.2c-11.81,13.39-21.46,28.43-28.73,44.74-10.11,22.66-15.24,46.82-15.24,71.82,0,46.07,17.64,89.67,49.68,122.77,5.22,5.41,10.91,10.58,16.93,15.36l.04.03.04.03,14.61,10.48.04.03.04.03.23.15c24.82,15.85,53.49,25.28,82.92,27.26h.07s.07,0,.07,0h23.89c43.6-2.93,84.39-21.89,114.84-53.38,32.04-33.08,49.68-76.68,49.68-122.77s-17.89-90.29-50.36-123.46Zm-9.6,123.46c0,28.89-10.58,56.59-29.78,77.99-19.2,21.38-45.57,34.85-74.26,37.93-4.12.44-8.35.67-12.55.67s-8.42-.22-12.55-.67c-59.3-6.34-104.02-56.18-104.02-115.92,0-64.27,52.29-116.57,116.57-116.57s116.58,52.29,116.58,116.57Z"/>
      <path class="cls-20" d="m477.08,462.25c-17.42-14.74-32.39-31.97-44.51-51.21l-.6-.96-.59-.94h-160.6c-9.6,0-18.83-1.22-27.44-3.61-50.08-14.04-85.06-60.21-85.06-112.28,0-64.27,52.3-116.57,116.59-116.57h97.69l.6-.86,38.65-55.96,2.17-3.14h-139.1c-47.88,0-92.69,18.85-126.18,53.07-32.48,33.17-50.36,77.02-50.36,123.46s17.64,89.67,49.68,122.77c30.45,31.49,71.24,50.45,114.84,53.37h.07s.07,0,.07,0h222.55l-4.18-3.53-4.29-3.62Z"/>
    </g>
    <g class="cls-7">
      <path class="cls-2" d="m748.99,167.09c-34.27-35.03-80.14-54.32-129.15-54.32h-154.53l-47.19,68.3h60.22c-9.48,11.91-17.4,24.93-23.62,38.89-10.34,23.19-15.59,47.92-15.59,73.52,0,47.16,18.06,91.79,50.85,125.66,5.38,5.57,11.17,10.84,17.23,15.66l.16.13,15.2,10.89.1.06.27.18.11.05c25.32,16.08,54.52,25.64,84.47,27.65l.28.02h24.02l.27-.02c44.63-3,86.38-22.39,117.56-54.62,32.8-33.88,50.86-78.51,50.86-125.67s-18.31-92.42-51.56-126.38Zm-117.04,238.15c-4,.43-8.08.65-12.11.65s-8.11-.22-12.11-.65c-57.18-6.12-100.3-54.17-100.3-111.77,0-61.98,50.43-112.41,112.41-112.41s112.41,50.43,112.41,112.41c0,57.6-43.12,105.65-100.31,111.77Z"/>
      <path class="cls-19" d="m436.09,409.03l-2.42-3.84h-162.89c-9.25,0-18.1-1.17-26.31-3.47-48.29-13.53-82.02-58.04-82.02-108.26,0-61.98,50.43-112.41,112.41-112.41h99.87l47.18-68.3h-147.06c-49.01,0-94.87,19.29-129.14,54.32-33.25,33.96-51.56,78.85-51.56,126.38s18.06,91.79,50.86,125.66c31.18,32.23,72.93,51.63,117.56,54.63l.27.02h234.06l-17.15-14.5c-17.08-14.44-31.78-31.35-43.68-50.24Z"/>
    </g>
    <g>
      <g id="cos">
        <path class="cls-14" d="m153.26,637.64h68.76l-5.14-10.27h-63.52c-13.63,0-25.41-4.87-35.01-14.47-9.6-9.6-14.47-21.38-14.47-35.01s4.87-25.41,14.47-35.01c9.6-9.6,21.38-14.47,35.01-14.47h59.66v-10.27h-59.76c-16.43,0-30.64,5.89-42.26,17.5-11.61,11.61-17.5,25.83-17.5,42.26s5.89,30.65,17.5,42.26c11.61,11.61,25.83,17.5,42.26,17.5Z"/>
        <polygon class="cls-9" points="640.27 627.36 538.31 627.36 538.31 518.12 528.64 518.12 528.64 637.64 640.27 637.64 640.27 627.36"/>
        <path class="cls-15" d="m473.97,628.12c6.31-6.31,9.52-14.03,9.52-22.93s-3.2-16.61-9.52-22.93c-6.32-6.32-14.03-9.52-22.93-9.52h-54.2c-6.1,0-11.38-2.18-15.68-6.49-4.31-4.31-6.49-9.58-6.49-15.68s2.18-11.37,6.49-15.68c4.31-4.31,9.58-6.49,15.68-6.49h86.85v-10.27h-87.15c-8.9,0-16.61,3.2-22.93,9.52-6.32,6.32-9.52,14.03-9.52,22.93s3.2,16.62,9.52,22.93c6.31,6.32,14.03,9.52,22.93,9.52h54.55c6.1,0,11.37,2.18,15.68,6.49,4.31,4.31,6.49,9.58,6.49,15.68s-2.18,11.38-6.49,15.68c-4.31,4.31-9.58,6.49-15.68,6.49h-90.88l-5.14,10.27h95.97c8.9,0,16.61-3.2,22.93-9.52Z"/>
        <path class="cls-21" d="m741.52,637.69c16.41,0,30.62-5.88,42.22-17.49,11.6-11.6,17.48-25.81,17.48-42.22s-5.88-30.62-17.49-42.22c-11.6-11.6-25.81-17.49-42.22-17.49s-30.62,5.88-42.22,17.49c-11.6,11.6-17.48,25.81-17.48,42.22s5.88,30.62,17.48,42.22c11.6,11.6,25.81,17.49,42.22,17.49Zm-49.53-59.71c0-13.64,4.87-25.43,14.49-35.04,9.61-9.61,21.4-14.49,35.04-14.49s25.43,4.87,35.04,14.49c9.61,9.61,14.49,21.4,14.49,35.04s-4.87,25.43-14.49,35.04c-9.61,9.61-21.4,14.49-35.04,14.49s-25.43-4.87-35.04-14.49c-9.61-9.61-14.49-21.4-14.49-35.04Z"/>
        <rect class="cls-16" x="656.69" y="518.12" width="10.27" height="119.51"/>
        <rect class="cls-11" x="500.12" y="518.12" width="10.27" height="119.51"/>
        <path class="cls-10" d="m347.49,577.99c0-16.41-5.88-30.62-17.49-42.22-11.6-11.6-25.81-17.49-42.22-17.49s-30.62,5.88-42.22,17.49c-11.6,11.6-17.49,25.81-17.49,42.22s5.88,30.62,17.49,42.22c11.6,11.6,25.81,17.49,42.22,17.49s30.62-5.88,42.22-17.49c11.6-11.6,17.49-25.81,17.49-42.22Zm-10.18,0c0,13.64-4.87,25.43-14.49,35.04-9.61,9.61-21.4,14.49-35.04,14.49s-25.43-4.87-35.04-14.49c-9.61-9.61-14.49-21.4-14.49-35.04s4.87-25.43,14.49-35.04c9.61-9.61,21.4-14.49,35.04-14.49s25.43,4.87,35.04,14.49c9.61,9.61,14.49,21.4,14.49,35.04Z"/>
      </g>
      <g id="cos2" class="cls-8">
        <path class="cls-19" d="m153.26,637.64h68.76l-5.14-10.27h-63.52c-13.63,0-25.41-4.87-35.01-14.47-9.6-9.6-14.47-21.38-14.47-35.01s4.87-25.41,14.47-35.01c9.6-9.6,21.38-14.47,35.01-14.47h59.66v-10.27h-59.76c-16.43,0-30.64,5.89-42.26,17.5-11.61,11.61-17.5,25.83-17.5,42.26s5.89,30.65,17.5,42.26c11.61,11.61,25.83,17.5,42.26,17.5Z"/>
        <polygon class="cls-19" points="640.27 627.36 538.31 627.36 538.31 518.12 528.64 518.12 528.64 637.64 640.27 637.64 640.27 627.36"/>
        <path class="cls-19" d="m473.97,628.12c6.31-6.31,9.52-14.03,9.52-22.93s-3.2-16.61-9.52-22.93c-6.32-6.32-14.03-9.52-22.93-9.52h-54.2c-6.1,0-11.38-2.18-15.68-6.49-4.31-4.31-6.49-9.58-6.49-15.68s2.18-11.37,6.49-15.68c4.31-4.31,9.58-6.49,15.68-6.49h86.85v-10.27h-87.15c-8.9,0-16.61,3.2-22.93,9.52-6.32,6.32-9.52,14.03-9.52,22.93s3.2,16.62,9.52,22.93c6.31,6.32,14.03,9.52,22.93,9.52h54.55c6.1,0,11.37,2.18,15.68,6.49,4.31,4.31,6.49,9.58,6.49,15.68s-2.18,11.38-6.49,15.68c-4.31,4.31-9.58,6.49-15.68,6.49h-90.88l-5.14,10.27h95.97c8.9,0,16.61-3.2,22.93-9.52Z"/>
        <path class="cls-19" d="m741.52,637.69c16.41,0,30.62-5.88,42.22-17.49,11.6-11.6,17.48-25.81,17.48-42.22s-5.88-30.62-17.49-42.22c-11.6-11.6-25.81-17.49-42.22-17.49s-30.62,5.88-42.22,17.49c-11.6,11.6-17.48,25.81-17.48,42.22s5.88,30.62,17.48,42.22c11.6,11.6,25.81,17.49,42.22,17.49Zm-49.53-59.71c0-13.64,4.87-25.43,14.49-35.04,9.61-9.61,21.4-14.49,35.04-14.49s25.43,4.87,35.04,14.49c9.61,9.61,14.49,21.4,14.49,35.04s-4.87,25.43-14.49,35.04c-9.61,9.61-21.4,14.49-35.04,14.49s-25.43-4.87-35.04-14.49c-9.61-9.61-14.49-21.4-14.49-35.04Z"/>
        <rect class="cls-19" x="656.69" y="518.12" width="10.27" height="119.51"/>
        <rect class="cls-19" x="500.12" y="518.12" width="10.27" height="119.51"/>
        <path class="cls-19" d="m347.49,577.99c0-16.41-5.88-30.62-17.49-42.22-11.6-11.6-25.81-17.49-42.22-17.49s-30.62,5.88-42.22,17.49c-11.6,11.6-17.49,25.81-17.49,42.22s5.88,30.62,17.49,42.22c11.6,11.6,25.81,17.49,42.22,17.49s30.62-5.88,42.22-17.49c11.6-11.6,17.49-25.81,17.49-42.22Zm-10.18,0c0,13.64-4.87,25.43-14.49,35.04-9.61,9.61-21.4,14.49-35.04,14.49s-25.43-4.87-35.04-14.49c-9.61-9.61-14.49-21.4-14.49-35.04s4.87-25.43,14.49-35.04c9.61-9.61,21.4-14.49,35.04-14.49s25.43,4.87,35.04,14.49c9.61,9.61,14.49,21.4,14.49,35.04Z"/>
      </g>
    </g>
    <g>
      <g id="con2">
        <path class="cls-22" d="m140.02,764.52c-10.2,0-19.02-3.65-26.21-10.83-7.19-7.19-10.83-16.01-10.83-26.21s3.65-19.02,10.83-26.21c7.19-7.19,16.01-10.83,26.21-10.83h45.14v-8.45h-45.19c-12.42,0-23.18,4.45-31.96,13.23-8.78,8.78-13.24,19.53-13.24,31.96s4.45,23.18,13.24,31.96c8.78,8.78,19.53,13.23,31.96,13.23h51.75l-3.92-7.85h-47.77Z"/>
        <path class="cls-23" d="m677.78,681.98h-65.93v8.45h65.36c4.51,0,8.42,1.62,11.6,4.8,3.19,3.19,4.8,7.09,4.8,11.61s-1.62,8.42-4.8,11.6c-3.19,3.19-7.09,4.8-11.6,4.8h-65.36v56.06l7.85-4.09v-44.12h57.96c6.73.13,12.58-2.25,17.43-7.09,4.79-4.8,7.23-10.65,7.23-17.41s-2.43-12.62-7.23-17.41c-4.78-4.78-10.6-7.2-17.31-7.2Z"/>
        <path class="cls-6" d="m239.48,681.96c-12.43,0-23.19,4.46-31.98,13.24-8.79,8.79-13.24,19.55-13.24,31.98s4.46,23.19,13.24,31.98c8.79,8.79,19.55,13.24,31.98,13.24s23.19-4.46,31.98-13.24c8.79-8.79,13.24-19.55,13.24-31.98s-4.46-23.19-13.24-31.98c-8.79-8.79-19.55-13.24-31.98-13.24Zm37.11,45.22c0,10.22-3.65,19.05-10.85,26.26-7.2,7.2-16.04,10.85-26.26,10.85s-19.05-3.65-26.26-10.85c-7.2-7.2-10.85-16.04-10.85-26.26s3.65-19.05,10.85-26.26c7.2-7.2,16.04-10.85,26.26-10.85s19.05,3.65,26.26,10.85c7.2,7.2,10.85,16.04,10.85,26.26Z"/>
        <polygon class="cls-4" points="709.56 689.83 750.83 689.83 750.83 779.07 758.68 774.98 758.68 689.83 799.94 689.83 799.94 681.98 709.56 681.98 709.56 689.83"/>
        <polygon class="cls-12" points="508.07 772.37 592.39 772.37 592.39 764.52 515.92 764.52 515.92 731.1 592.39 731.1 592.39 723.25 515.92 723.25 515.92 689.83 594.92 689.83 599.01 681.98 508.07 681.98 508.07 772.37"/>
        <path class="cls-3" d="m444.68,764.52c-10.2,0-19.02-3.65-26.21-10.83-7.19-7.19-10.83-16.01-10.83-26.21s3.65-19.02,10.83-26.21c7.19-7.19,16.01-10.83,26.21-10.83h45.14v-8.45h-45.19c-12.42,0-23.18,4.45-31.96,13.23-8.78,8.78-13.23,19.53-13.23,31.96s4.45,23.18,13.23,31.96c8.78,8.78,19.53,13.23,31.96,13.23h51.85l-3.92-7.85h-47.88Z"/>
        <polygon class="cls-5" points="379.41 761.42 296.88 672.18 296.88 772.37 305.33 772.37 305.33 692.93 387.87 782.16 387.87 681.98 379.41 681.98 379.41 761.42"/>
      </g>
      <g id="con" class="cls-8">
        <path class="cls-13" d="m140.02,764.52c-10.2,0-19.02-3.65-26.21-10.83-7.19-7.19-10.83-16.01-10.83-26.21s3.65-19.02,10.83-26.21c7.19-7.19,16.01-10.83,26.21-10.83h45.14v-8.45h-45.19c-12.42,0-23.18,4.45-31.96,13.23-8.78,8.78-13.24,19.53-13.24,31.96s4.45,23.18,13.24,31.96c8.78,8.78,19.53,13.23,31.96,13.23h51.75l-3.92-7.85h-47.77Z"/>
        <path class="cls-13" d="m677.78,681.98h-65.93v8.45h65.36c4.51,0,8.42,1.62,11.6,4.8,3.19,3.19,4.8,7.09,4.8,11.61s-1.62,8.42-4.8,11.6c-3.19,3.19-7.09,4.8-11.6,4.8h-65.36v56.06l7.85-4.09v-44.12h57.96c6.73.13,12.58-2.25,17.43-7.09,4.79-4.8,7.23-10.65,7.23-17.41s-2.43-12.62-7.23-17.41c-4.78-4.78-10.6-7.2-17.31-7.2Z"/>
        <path class="cls-13" d="m239.48,681.96c-12.43,0-23.19,4.46-31.98,13.24-8.79,8.79-13.24,19.55-13.24,31.98s4.46,23.19,13.24,31.98c8.79,8.79,19.55,13.24,31.98,13.24s23.19-4.46,31.98-13.24c8.79-8.79,13.24-19.55,13.24-31.98s-4.46-23.19-13.24-31.98c-8.79-8.79-19.55-13.24-31.98-13.24Zm37.11,45.22c0,10.22-3.65,19.05-10.85,26.26-7.2,7.2-16.04,10.85-26.26,10.85s-19.05-3.65-26.26-10.85c-7.2-7.2-10.85-16.04-10.85-26.26s3.65-19.05,10.85-26.26c7.2-7.2,16.04-10.85,26.26-10.85s19.05,3.65,26.26,10.85c7.2,7.2,10.85,16.04,10.85,26.26Z"/>
        <polygon class="cls-13" points="709.56 689.83 750.83 689.83 750.83 779.07 758.68 774.98 758.68 689.83 799.94 689.83 799.94 681.98 709.56 681.98 709.56 689.83"/>
        <polygon class="cls-13" points="508.07 772.37 592.39 772.37 592.39 764.52 515.92 764.52 515.92 731.1 592.39 731.1 592.39 723.25 515.92 723.25 515.92 689.83 594.92 689.83 599.01 681.98 508.07 681.98 508.07 772.37"/>
        <path class="cls-13" d="m444.68,764.52c-10.2,0-19.02-3.65-26.21-10.83-7.19-7.19-10.83-16.01-10.83-26.21s3.65-19.02,10.83-26.21c7.19-7.19,16.01-10.83,26.21-10.83h45.14v-8.45h-45.19c-12.42,0-23.18,4.45-31.96,13.23-8.78,8.78-13.23,19.53-13.23,31.96s4.45,23.18,13.23,31.96c8.78,8.78,19.53,13.23,31.96,13.23h51.85l-3.92-7.85h-47.88Z"/>
        <polygon class="cls-13" points="379.41 761.42 296.88 672.18 296.88 772.37 305.33 772.37 305.33 692.93 387.87 782.16 387.87 681.98 379.41 681.98 379.41 761.42"/>
      </g>
    </g>
  </g>
</svg>