<?xml version="1.0" encoding="UTF-8"?>
<svg id="Layer_2" data-name="Layer 2" xmlns="http://www.w3.org/2000/svg" xmlns:xlink="http://www.w3.org/1999/xlink" viewBox="0 0 919.98 855.47">
  <defs>
    <style>
      .cls-1 {
        fill: url(#linear-gradient-2);
      }

      .cls-2 {
        fill: url(#linear-gradient-11);
      }

      .cls-2, .cls-3, .cls-4, .cls-5, .cls-6, .cls-7, .cls-8, .cls-9, .cls-10, .cls-11, .cls-12, .cls-13, .cls-14, .cls-15 {
        stroke: #666766;
        stroke-miterlimit: 10;
      }

      .cls-2, .cls-4, .cls-6, .cls-11, .cls-12, .cls-13, .cls-14 {
        stroke-width: .75px;
      }

      .cls-3 {
        fill: url(#linear-gradient-18);
      }

      .cls-3, .cls-5, .cls-7, .cls-8, .cls-9, .cls-10, .cls-15 {
        stroke-width: .5px;
      }

      .cls-4 {
        fill: url(#linear-gradient-6);
      }

      .cls-5 {
        fill: url(#linear-gradient-12);
      }

      .cls-6 {
        fill: url(#linear-gradient-8);
      }

      .cls-7 {
        fill: url(#linear-gradient-17);
      }

      .cls-8 {
        fill: url(#linear-gradient-14);
      }

      .cls-9 {
        fill: url(#linear-gradient-15);
      }

      .cls-10 {
        fill: url(#linear-gradient-13);
      }

      .cls-11 {
        fill: url(#linear-gradient-9);
      }

      .cls-12 {
        fill: url(#linear-gradient-7);
      }

      .cls-16 {
        fill: url(#linear-gradient-3);
      }

      .cls-13 {
        fill: url(#linear-gradient-5);
      }

      .cls-17 {
        fill: url(#linear-gradient);
      }

      .cls-14 {
        fill: url(#linear-gradient-10);
      }

      .cls-15 {
        fill: url(#linear-gradient-16);
      }

      .cls-18 {
        fill: url(#linear-gradient-4);
      }
    </style>
    <linearGradient id="linear-gradient" x1="675.07" y1="486.63" x2="675.07" y2="-3.59" gradientUnits="userSpaceOnUse">
      <stop offset=".1" stop-color="#231f20"/>
      <stop offset=".11" stop-color="#2a2728"/>
      <stop offset=".12" stop-color="#403d3e"/>
      <stop offset=".14" stop-color="#646263"/>
      <stop offset=".16" stop-color="#959496"/>
      <stop offset=".18" stop-color="#c5c6c8"/>
      <stop offset=".24" stop-color="#bfbfc1"/>
      <stop offset=".31" stop-color="#aeaeb0"/>
      <stop offset=".4" stop-color="#929193"/>
      <stop offset=".49" stop-color="#6b696b"/>
      <stop offset=".59" stop-color="#3a3738"/>
      <stop offset=".63" stop-color="#231f20"/>
      <stop offset=".95" stop-color="#231f20"/>
      <stop offset=".95" stop-color="#2e2a2b"/>
      <stop offset=".97" stop-color="#514c4c"/>
      <stop offset=".99" stop-color="#666161"/>
      <stop offset="1" stop-color="#6e6969"/>
    </linearGradient>
    <linearGradient id="linear-gradient-2" x1="677.79" y1="-14.8" x2="677.79" y2="462.78" gradientUnits="userSpaceOnUse">
      <stop offset="0" stop-color="#525355"/>
      <stop offset=".01" stop-color="#58595b"/>
      <stop offset=".03" stop-color="#6b6c6e"/>
      <stop offset=".06" stop-color="#8a8b8c"/>
      <stop offset=".08" stop-color="#b5b5b6"/>
      <stop offset=".11" stop-color="#ebebec"/>
      <stop offset=".12" stop-color="#fff"/>
      <stop offset=".22" stop-color="#f6f6f7"/>
      <stop offset=".37" stop-color="#e0e0e1"/>
      <stop offset=".52" stop-color="#c5c6c8"/>
      <stop offset=".53" stop-color="#a7a7a9"/>
      <stop offset=".55" stop-color="#787879"/>
      <stop offset=".57" stop-color="#535354"/>
      <stop offset=".59" stop-color="#383839"/>
      <stop offset=".6" stop-color="#282828"/>
      <stop offset=".62" stop-color="#232323"/>
      <stop offset=".67" stop-color="#414242"/>
      <stop offset=".78" stop-color="#727476"/>
      <stop offset=".86" stop-color="#919396"/>
      <stop offset=".9" stop-color="#9d9fa2"/>
      <stop offset=".99" stop-color="#fff"/>
    </linearGradient>
    <linearGradient id="linear-gradient-3" x1="255.92" y1="486.63" x2="255.92" y2="-3.59" xlink:href="#linear-gradient"/>
    <linearGradient id="linear-gradient-4" x1="250.73" y1="-14.8" x2="250.73" y2="462.78" xlink:href="#linear-gradient-2"/>
    <linearGradient id="linear-gradient-5" x1="83.25" y1="495.48" x2="83.25" y2="669.65" gradientUnits="userSpaceOnUse">
      <stop offset=".01" stop-color="#191e1e"/>
      <stop offset=".16" stop-color="#cfd3d2"/>
      <stop offset=".25" stop-color="#f2f9f8"/>
      <stop offset=".32" stop-color="#c0c4c3"/>
      <stop offset=".45" stop-color="#676765"/>
      <stop offset=".51" stop-color="#444240"/>
      <stop offset=".55" stop-color="#494745"/>
      <stop offset=".59" stop-color="#585654"/>
      <stop offset=".64" stop-color="#706f6d"/>
      <stop offset=".69" stop-color="#929190"/>
      <stop offset=".75" stop-color="#bfbebd"/>
      <stop offset=".8" stop-color="#f4f4f3"/>
      <stop offset=".81" stop-color="#fff"/>
      <stop offset=".83" stop-color="#dddfdf"/>
      <stop offset=".88" stop-color="#a8abab"/>
      <stop offset=".91" stop-color="#7d8181"/>
      <stop offset=".95" stop-color="#5f6464"/>
      <stop offset=".98" stop-color="#4c5252"/>
      <stop offset="1" stop-color="#464c4c"/>
    </linearGradient>
    <linearGradient id="linear-gradient-6" x1="252.71" y1="495.48" x2="252.71" y2="669.65" xlink:href="#linear-gradient-5"/>
    <linearGradient id="linear-gradient-7" x1="424.17" y1="495.48" x2="424.17" y2="669.65" xlink:href="#linear-gradient-5"/>
    <linearGradient id="linear-gradient-8" x1="535.5" y1="495.48" x2="535.5" y2="669.65" xlink:href="#linear-gradient-5"/>
    <linearGradient id="linear-gradient-9" x1="638.36" y1="495.48" x2="638.36" y2="669.65" xlink:href="#linear-gradient-5"/>
    <linearGradient id="linear-gradient-10" x1="739.22" y1="495.48" x2="739.22" y2="669.65" xlink:href="#linear-gradient-5"/>
    <linearGradient id="linear-gradient-11" x1="843.08" y1="495.48" x2="843.08" y2="669.65" xlink:href="#linear-gradient-5"/>
    <linearGradient id="linear-gradient-12" x1="63.09" y1="716.94" x2="64.46" y2="856.59" xlink:href="#linear-gradient-5"/>
    <linearGradient id="linear-gradient-13" x1="189.08" y1="715.68" x2="190.46" y2="855.33" xlink:href="#linear-gradient-5"/>
    <linearGradient id="linear-gradient-14" x1="322.91" y1="714.38" x2="324.29" y2="854.03" xlink:href="#linear-gradient-5"/>
    <linearGradient id="linear-gradient-15" x1="459.58" y1="713.05" x2="460.95" y2="852.69" xlink:href="#linear-gradient-5"/>
    <linearGradient id="linear-gradient-16" x1="597.69" y1="711.74" x2="599.07" y2="851.29" xlink:href="#linear-gradient-5"/>
    <linearGradient id="linear-gradient-17" x1="732.21" y1="710.37" x2="733.59" y2="850.01" xlink:href="#linear-gradient-5"/>
    <linearGradient id="linear-gradient-18" x1="859.76" y1="709.09" x2="861.14" y2="848.74" xlink:href="#linear-gradient-5"/>
  </defs>
  <g id="Layer_3_copy" data-name="Layer 3 copy">
    <g>
      <path class="cls-17" d="m671.06,465.28h-.2c-38.76-2.62-76.54-15.03-109.26-35.9l-.15-.08-19.77-14.17-.12-.1c-7.82-6.23-15.29-13.02-22.21-20.18-42.27-43.65-65.54-101.17-65.54-161.96,0-32.99,6.76-64.87,20.09-94.75,9.4-21.09,21.8-40.53,36.95-57.94h-80.32l41.79-60.48.02-.02L485.94,0h200.76C749.87,0,808.99,24.87,853.16,70.01c42.85,43.77,66.45,101.62,66.45,162.89s-23.28,118.3-65.55,161.96c-40.19,41.54-94,66.54-151.52,70.4h-.2s-31.28.01-31.28.01Zm15.64-385.07c-84.19,0-152.69,68.5-152.69,152.69,0,78.24,58.57,143.51,136.25,151.82,5.43.58,10.96.88,16.44.88s11.01-.29,16.44-.88c77.68-8.31,136.26-73.58,136.26-151.82,0-84.19-68.5-152.69-152.7-152.69Z"/>
      <path class="cls-1" d="m848.87,74.21c-41.18-42.09-98.63-68.21-162.17-68.21h-197.61l-12.14,17.58-.02.02-34.97,50.61h82.58c.75-.78,1.51-1.54,2.28-2.31l-1.59,2.31h-.69c-18.74,19.14-34.12,41.59-45.17,66.38-12.58,28.2-19.57,59.44-19.57,92.31,0,61.32,24.33,116.96,63.86,157.79,6.77,7.01,14,13.58,21.63,19.66l19.23,13.78s.03.02.05.03c31.19,19.95,67.58,32.49,106.69,35.12h30.88c57.82-3.88,109.71-29.42,147.61-68.59,39.53-40.83,63.86-96.47,63.86-157.79s-24.69-117.78-64.74-158.69Zm-145.09,316.48c-5.61.6-11.31.91-17.08.91s-11.47-.31-17.08-.91c-79.61-8.52-141.61-75.91-141.61-157.79,0-87.64,71.05-158.69,158.69-158.69s158.7,71.05,158.7,158.69c0,81.88-62,149.27-141.62,157.79Z"/>
    </g>
    <g>
      <path class="cls-16" d="m217.26,465.28h-.2c-57.52-3.87-111.33-28.88-151.51-70.42C23.28,351.2,0,293.68,0,232.9S23.6,113.79,66.45,70.01C110.62,24.86,169.74,0,232.9,0h184.27l-39.7,57.46-15.71,22.75h-128.86c-84.2,0-152.7,68.5-152.7,152.69,0,68.21,45.81,128.68,111.41,147.05,11.22,3.14,23.3,4.74,35.91,4.74h211.62l1.77,2.8c15.93,25.27,35.58,47.89,58.43,67.21l12.51,10.58H217.26Z"/>
      <path class="cls-18" d="m495.46,459.28H217.46c-57.82-3.88-109.71-29.42-147.6-68.59C30.33,349.86,6,294.22,6,232.9S30.69,115.12,70.74,74.21C111.92,32.12,169.36,6,232.9,6h172.83l-33.2,48.05-13.92,20.16h-125.71c-87.65,0-158.7,71.05-158.7,158.69,0,72.78,48.99,134.12,115.79,152.83,12.2,3.42,24.85,4.96,37.53,4.96h208.31c16.27,25.82,36.42,48.96,59.63,68.59Z"/>
    </g>
    <path class="cls-13" d="m77.79,515.55h76.53v10.93h-76.53c-18.15,0-33.62,6.4-46.41,19.19-12.79,12.79-19.19,28.26-19.19,46.41s6.4,33.62,19.19,46.41c12.79,12.79,28.26,19.19,46.41,19.19h82l5.47,10.93h-87.46c-21.14,0-39.18-7.47-54.12-22.41-14.94-14.94-22.41-32.98-22.41-54.12s7.47-39.18,22.41-54.12c14.94-14.94,32.98-22.41,54.12-22.41Z"/>
    <path class="cls-4" d="m306.83,537.96c14.94,14.94,22.41,32.98,22.41,54.12s-7.47,39.18-22.41,54.12c-14.94,14.94-32.98,22.41-54.12,22.41s-39.18-7.47-54.12-22.41c-14.94-14.94-22.41-32.98-22.41-54.12s7.47-39.18,22.41-54.12c14.94-14.94,32.98-22.41,54.12-22.41s39.18,7.47,54.12,22.41Zm-54.12-11.48c-18.15,0-33.62,6.4-46.41,19.19-12.79,12.79-19.19,28.26-19.19,46.41s6.4,33.62,19.19,46.41c12.79,12.79,28.26,19.19,46.41,19.19s33.62-6.4,46.41-19.19c12.79-12.79,19.19-28.26,19.19-46.41s-6.4-33.62-19.19-46.41c-12.79-12.79-28.26-19.19-46.41-19.19Z"/>
    <path class="cls-12" d="m394.1,515.55h112.06v10.93h-112.06c-8.31,0-15.4,2.93-21.27,8.8-5.87,5.87-8.8,12.96-8.8,21.26s2.93,15.4,8.8,21.27c5.87,5.87,12.96,8.8,21.27,8.8h71.06c11.3,0,20.95,4.01,28.97,12.03,8.02,8.02,12.03,17.68,12.03,28.97s-4.01,20.96-12.03,28.97-17.68,12.03-28.97,12.03h-122.99l5.47-10.93h117.53c8.31,0,15.4-2.93,21.27-8.8,5.87-5.87,8.8-12.96,8.8-21.27s-2.93-15.4-8.8-21.26c-5.87-5.87-12.96-8.8-21.27-8.8h-71.06c-11.3,0-20.96-4.01-28.97-12.03-8.02-8.02-12.03-17.67-12.03-28.97s4.01-20.95,12.03-28.97,17.67-12.03,28.97-12.03Z"/>
    <path class="cls-6" d="m530.03,515.55h10.93v153.06h-10.93v-153.06Z"/>
    <path class="cls-11" d="m566.83,515.55h10.93v142.13h132.13v10.93h-143.06v-153.06Z"/>
    <path class="cls-14" d="m733.75,515.55h10.93v153.06h-10.93v-153.06Z"/>
    <path class="cls-2" d="m897.2,537.96c14.94,14.94,22.41,32.98,22.41,54.12s-7.47,39.18-22.41,54.12c-14.94,14.94-32.98,22.41-54.12,22.41s-39.18-7.47-54.12-22.41c-14.94-14.94-22.41-32.98-22.41-54.12s7.47-39.18,22.41-54.12c14.94-14.94,32.98-22.41,54.12-22.41s39.17,7.47,54.12,22.41Zm-54.12-11.48c-18.15,0-33.62,6.4-46.41,19.19-12.79,12.79-19.19,28.26-19.19,46.41s6.4,33.62,19.19,46.41c12.79,12.79,28.26,19.19,46.41,19.19s33.62-6.4,46.41-19.19c12.79-12.79,19.19-28.26,19.19-46.41s-6.4-33.62-19.19-46.41c-12.79-12.79-28.26-19.19-46.41-19.19Z"/>
    <path class="cls-5" d="m59.93,728.51h57.68v8.24h-57.68c-13.68,0-25.34,4.82-34.98,14.46-9.64,9.64-14.46,21.3-14.46,34.98s4.82,25.34,14.46,34.98c9.64,9.64,21.3,14.46,34.98,14.46h61.8l4.12,8.24H59.93c-15.93,0-29.53-5.63-40.79-16.89-11.26-11.26-16.89-24.86-16.89-40.79s5.63-29.53,16.89-40.79c11.26-11.26,24.86-16.89,40.79-16.89Z"/>
    <path class="cls-10" d="m230.57,745.4c11.26,11.26,16.89,24.86,16.89,40.79s-5.63,29.53-16.89,40.79c-11.26,11.26-24.86,16.89-40.79,16.89s-29.53-5.63-40.79-16.89c-11.26-11.26-16.89-24.86-16.89-40.79s5.63-29.53,16.89-40.79c11.26-11.26,24.86-16.89,40.79-16.89s29.53,5.63,40.79,16.89Zm-40.79-8.65c-13.68,0-25.34,4.82-34.98,14.46-9.64,9.64-14.46,21.3-14.46,34.98s4.82,25.34,14.46,34.98c9.64,9.64,21.3,14.46,34.98,14.46s25.34-4.82,34.98-14.46c9.64-9.64,14.46-21.3,14.46-34.98s-4.82-25.34-14.46-34.98c-9.64-9.64-21.3-14.46-34.98-14.46Z"/>
    <path class="cls-8" d="m274.18,738.65v105.23h-8.24v-126.32l107.12,116.19v-105.23h8.24v126.32l-107.12-116.19Z"/>
    <path class="cls-9" d="m456.46,728.51h57.68v8.24h-57.68c-13.68,0-25.34,4.82-34.98,14.46-9.64,9.64-14.46,21.3-14.46,34.98s4.82,25.34,14.46,34.98c9.64,9.64,21.3,14.46,34.98,14.46h61.8l4.12,8.24h-65.92c-15.93,0-29.53-5.63-40.79-16.89-11.26-11.26-16.89-24.86-16.89-40.79s5.63-29.53,16.89-40.79c11.26-11.26,24.86-16.89,40.79-16.89Z"/>
    <path class="cls-15" d="m656.23,728.51l-4.12,8.24h-103.24v45.32h99.12v8.24h-99.12v45.32h99.12v8.24h-107.36v-115.36h115.6Z"/>
    <path class="cls-7" d="m759.93,736.75h-84.46v-8.24h84.46c8.51,0,15.79,3.02,21.84,9.06,6.04,6.04,9.06,13.32,9.06,21.84s-3.02,15.79-9.06,21.84-13.32,9.06-21.84,9.06h-76.22v57.68l-8.24,4.12v-70.04h84.46c6.26,0,11.6-2.21,16.03-6.63,4.42-4.42,6.63-9.76,6.63-16.03s-2.21-11.6-6.63-16.03c-4.42-4.42-9.77-6.63-16.03-6.63Z"/>
    <path class="cls-3" d="m917.68,728.51v8.24h-53.56v111.24l-8.24,4.12v-115.36h-53.56v-8.24h115.36Z"/>
  </g>
</svg>