<?xml version="1.0" encoding="UTF-8"?>
<svg id="Layer_2" data-name="Layer 2" xmlns="http://www.w3.org/2000/svg" xmlns:xlink="http://www.w3.org/1999/xlink" viewBox="0 0 2400 2400">
  <defs>
    <style>
      .cls-1 {
        fill: url(#linear-gradient-2);
      }

      .cls-2 {
        fill: url(#linear-gradient-11);
      }

      .cls-2, .cls-3, .cls-4, .cls-5, .cls-6, .cls-7, .cls-8, .cls-9, .cls-10, .cls-11, .cls-12, .cls-13, .cls-14, .cls-15 {
        stroke: #666766;
        stroke-miterlimit: 10;
      }

      .cls-2, .cls-4, .cls-6, .cls-11, .cls-12, .cls-13, .cls-14 {
        stroke-width: .75px;
      }

      .cls-3 {
        fill: url(#linear-gradient-18);
      }

      .cls-3, .cls-5, .cls-7, .cls-8, .cls-9, .cls-10, .cls-15 {
        stroke-width: .5px;
      }

      .cls-4 {
        fill: url(#linear-gradient-6);
      }

      .cls-5 {
        fill: url(#linear-gradient-12);
      }

      .cls-6 {
        fill: url(#linear-gradient-8);
      }

      .cls-7 {
        fill: url(#linear-gradient-17);
      }

      .cls-8 {
        fill: url(#linear-gradient-14);
      }

      .cls-9 {
        fill: url(#linear-gradient-15);
      }

      .cls-10 {
        fill: url(#linear-gradient-13);
      }

      .cls-11 {
        fill: url(#linear-gradient-9);
      }

      .cls-12 {
        fill: url(#linear-gradient-7);
      }

      .cls-16 {
        fill: url(#linear-gradient-3);
      }

      .cls-13 {
        fill: url(#linear-gradient-5);
      }

      .cls-17 {
        fill: url(#linear-gradient);
      }

      .cls-14 {
        fill: url(#linear-gradient-10);
      }

      .cls-15 {
        fill: url(#linear-gradient-16);
      }

      .cls-18 {
        fill: url(#linear-gradient-4);
      }

      .cls-19 {
        fill: #222429;
      }
    </style>
    <linearGradient id="linear-gradient" x1="1725.53" y1="1327.17" x2="1725.53" y2="154.63" gradientUnits="userSpaceOnUse">
      <stop offset=".1" stop-color="#231f20"/>
      <stop offset=".11" stop-color="#2a2728"/>
      <stop offset=".12" stop-color="#403d3e"/>
      <stop offset=".14" stop-color="#646263"/>
      <stop offset=".16" stop-color="#959496"/>
      <stop offset=".18" stop-color="#c5c6c8"/>
      <stop offset=".24" stop-color="#bfbfc1"/>
      <stop offset=".31" stop-color="#aeaeb0"/>
      <stop offset=".4" stop-color="#929193"/>
      <stop offset=".49" stop-color="#6b696b"/>
      <stop offset=".59" stop-color="#3a3738"/>
      <stop offset=".63" stop-color="#231f20"/>
      <stop offset=".95" stop-color="#231f20"/>
      <stop offset=".95" stop-color="#2e2a2b"/>
      <stop offset=".97" stop-color="#514c4c"/>
      <stop offset=".99" stop-color="#666161"/>
      <stop offset="1" stop-color="#6e6969"/>
    </linearGradient>
    <linearGradient id="linear-gradient-2" x1="1728.25" y1="118.7" x2="1728.25" y2="1278.59" gradientUnits="userSpaceOnUse">
      <stop offset="0" stop-color="#525355"/>
      <stop offset=".01" stop-color="#58595b"/>
      <stop offset=".03" stop-color="#6b6c6e"/>
      <stop offset=".06" stop-color="#8a8b8c"/>
      <stop offset=".08" stop-color="#b5b5b6"/>
      <stop offset=".11" stop-color="#ebebec"/>
      <stop offset=".12" stop-color="#fff"/>
      <stop offset=".22" stop-color="#f6f6f7"/>
      <stop offset=".37" stop-color="#e0e0e1"/>
      <stop offset=".52" stop-color="#c5c6c8"/>
      <stop offset=".53" stop-color="#a7a7a9"/>
      <stop offset=".55" stop-color="#787879"/>
      <stop offset=".57" stop-color="#535354"/>
      <stop offset=".59" stop-color="#383839"/>
      <stop offset=".6" stop-color="#282828"/>
      <stop offset=".62" stop-color="#232323"/>
      <stop offset=".67" stop-color="#414242"/>
      <stop offset=".78" stop-color="#727476"/>
      <stop offset=".86" stop-color="#919396"/>
      <stop offset=".9" stop-color="#9d9fa2"/>
      <stop offset=".99" stop-color="#fff"/>
    </linearGradient>
    <linearGradient id="linear-gradient-3" x1="696.25" x2="696.25" xlink:href="#linear-gradient"/>
    <linearGradient id="linear-gradient-4" x1="691.06" y1="118.7" x2="691.06" y2="1278.59" xlink:href="#linear-gradient-2"/>
    <linearGradient id="linear-gradient-5" x1="284.31" y1="1358.02" x2="284.31" y2="1781.04" gradientUnits="userSpaceOnUse">
      <stop offset=".01" stop-color="#191e1e"/>
      <stop offset=".16" stop-color="#cfd3d2"/>
      <stop offset=".25" stop-color="#f2f9f8"/>
      <stop offset=".32" stop-color="#c0c4c3"/>
      <stop offset=".45" stop-color="#676765"/>
      <stop offset=".51" stop-color="#444240"/>
      <stop offset=".55" stop-color="#494745"/>
      <stop offset=".59" stop-color="#585654"/>
      <stop offset=".64" stop-color="#706f6d"/>
      <stop offset=".69" stop-color="#929190"/>
      <stop offset=".75" stop-color="#bfbebd"/>
      <stop offset=".8" stop-color="#f4f4f3"/>
      <stop offset=".81" stop-color="#fff"/>
      <stop offset=".83" stop-color="#dddfdf"/>
      <stop offset=".88" stop-color="#a8abab"/>
      <stop offset=".91" stop-color="#7d8181"/>
      <stop offset=".95" stop-color="#5f6464"/>
      <stop offset=".98" stop-color="#4c5252"/>
      <stop offset="1" stop-color="#464c4c"/>
    </linearGradient>
    <linearGradient id="linear-gradient-6" x1="695.87" y1="1358.02" x2="695.87" y2="1781.04" xlink:href="#linear-gradient-5"/>
    <linearGradient id="linear-gradient-7" x1="1112.29" y1="1358.02" x2="1112.29" y2="1781.04" xlink:href="#linear-gradient-5"/>
    <linearGradient id="linear-gradient-8" x1="1382.67" y1="1358.02" x2="1382.67" y2="1781.04" xlink:href="#linear-gradient-5"/>
    <linearGradient id="linear-gradient-9" x1="1632.49" y1="1358.02" x2="1632.49" y2="1781.04" xlink:href="#linear-gradient-5"/>
    <linearGradient id="linear-gradient-10" x1="1877.46" y1="1358.02" x2="1877.46" y2="1781.04" xlink:href="#linear-gradient-5"/>
    <linearGradient id="linear-gradient-11" x1="2129.71" y1="1358.02" x2="2129.71" y2="1781.04" xlink:href="#linear-gradient-5"/>
    <linearGradient id="linear-gradient-12" x1="235.33" y1="1895.89" x2="238.67" y2="2235.04" xlink:href="#linear-gradient-5"/>
    <linearGradient id="linear-gradient-13" x1="541.34" y1="1892.82" x2="544.68" y2="2231.98" xlink:href="#linear-gradient-5"/>
    <linearGradient id="linear-gradient-14" x1="866.37" y1="1889.67" x2="869.71" y2="2228.82" xlink:href="#linear-gradient-5"/>
    <linearGradient id="linear-gradient-15" x1="1198.29" y1="1886.42" x2="1201.63" y2="2225.58" xlink:href="#linear-gradient-5"/>
    <linearGradient id="linear-gradient-16" x1="1533.74" y1="1883.24" x2="1537.08" y2="2222.16" xlink:href="#linear-gradient-5"/>
    <linearGradient id="linear-gradient-17" x1="1860.44" y1="1879.92" x2="1863.78" y2="2219.08" xlink:href="#linear-gradient-5"/>
    <linearGradient id="linear-gradient-18" x1="2170.22" y1="1876.82" x2="2173.57" y2="2215.98" xlink:href="#linear-gradient-5"/>
  </defs>
  <g id="Layer_8" data-name="Layer 8">
    <rect class="cls-19" width="2400" height="2400"/>
  </g>
  <g id="Layer_3_copy" data-name="Layer 3 copy">
    <g>
      <g>
        <path class="cls-17" d="m1712.2,1276.1h-.2c-92.84-6.26-183.32-36.01-261.68-86.07l-.07-.03-.08-.05-.12-.06-47.21-33.83-.12-.1c-18.69-14.89-36.55-31.13-53.11-48.27-101.1-104.42-156.78-242.01-156.78-387.39,0-78.91,16.17-155.16,48.05-226.64,25.08-56.27,59.08-107.6,101.16-152.77h-197.98l91.74-132.77.05-.05,30.96-44.84h483.08c76.26,0,150.17,15.13,219.66,44.98,67.13,28.83,127.18,70.04,178.49,122.48,49.9,50.97,89.04,110.05,116.34,175.59,28.27,67.86,42.6,139.87,42.6,214.02,0,145.39-55.68,282.97-156.79,387.4-96.14,99.36-224.85,159.17-362.41,168.4h-.2s-75.4.01-75.4.01Zm37.7-935.22c-209.21,0-379.41,170.2-379.41,379.41,0,194.42,145.55,356.6,338.57,377.26,13.5,1.44,27.24,2.18,40.84,2.18s27.34-.73,40.84-2.18c193.03-20.66,338.59-182.84,338.59-377.26,0-209.21-170.21-379.41-379.44-379.41Z"/>
        <path class="cls-1" d="m2143.77,334.88c-100.01-102.22-239.54-165.66-393.86-165.66h-479.94l-29.48,42.7-.05.05-84.93,122.92h200.56c1.82-1.89,3.67-3.74,5.54-5.61l-3.86,5.61h-1.68c-45.51,46.49-82.87,101.01-109.71,161.22-30.55,68.49-47.53,144.36-47.53,224.19,0,148.93,59.09,284.06,155.1,383.23,16.44,17.03,34,32.98,52.53,47.75l46.7,33.47s.07.05.12.07c75.75,48.45,164.13,78.91,259.12,85.3h75c140.43-9.42,266.45-71.45,358.5-166.59,96.01-99.16,155.1-234.3,155.1-383.23s-59.96-286.05-157.23-385.41Zm-352.38,768.64c-13.63,1.46-27.47,2.21-41.48,2.21s-27.86-.75-41.48-2.21c-193.35-20.69-343.93-184.36-343.93-383.23,0-212.85,172.56-385.41,385.41-385.41s385.44,172.56,385.44,385.41c0,198.86-150.58,362.53-343.95,383.23Z"/>
      </g>
      <g>
        <path class="cls-16" d="m610.06,1276.1h-.2c-137.57-9.25-266.27-69.05-362.39-168.41-101.1-104.43-156.78-242.01-156.78-387.4,0-74.15,14.33-146.16,42.6-214.02,27.3-65.54,66.45-124.62,116.34-175.59,51.31-52.44,111.35-93.65,178.47-122.48,69.49-29.85,143.39-44.98,219.65-44.98h431.19l-87.14,126.11-35.6,51.55h-308.46c-209.22,0-379.44,170.2-379.44,379.41,0,169.48,113.84,319.74,276.85,365.4,28,7.84,58.12,11.82,89.52,11.82h509.24l1.77,2.8c39.15,62.13,87.47,117.71,143.62,165.2l12.51,10.58h-691.77Z"/>
        <path class="cls-18" d="m1285.44,1270.1h-675.18c-140.43-9.42-266.45-71.45-358.48-166.59-96.01-99.16-155.1-234.3-155.1-383.23s59.96-286.05,157.23-385.41c100.01-102.22,239.52-165.66,393.84-165.66h419.75l-80.63,116.7-33.81,48.96h-305.31c-212.88,0-385.44,172.56-385.44,385.41,0,176.77,118.98,325.73,281.23,371.18,29.64,8.3,60.36,12.05,91.14,12.05h505.93c39.52,62.71,88.45,118.91,144.82,166.59Z"/>
      </g>
      <path class="cls-13" d="m271.03,1406.75h185.87v26.55h-185.87c-44.08,0-81.65,15.53-112.71,46.6-31.07,31.07-46.6,68.64-46.6,112.71s15.53,81.65,46.6,112.71c31.07,31.07,68.64,46.6,112.71,46.6h199.14l13.28,26.55h-212.42c-51.34,0-95.15-18.14-131.43-54.43-36.29-36.29-54.43-80.1-54.43-131.44s18.14-95.15,54.43-131.44c36.29-36.28,80.1-54.43,131.43-54.43Z"/>
      <path class="cls-4" d="m827.31,1461.18c36.29,36.29,54.43,80.1,54.43,131.44s-18.15,95.15-54.43,131.44c-36.29,36.29-80.1,54.43-131.43,54.43s-95.15-18.14-131.43-54.43c-36.29-36.29-54.43-80.1-54.43-131.44s18.14-95.15,54.43-131.44c36.29-36.28,80.1-54.43,131.43-54.43s95.15,18.15,131.43,54.43Zm-131.43-27.88c-44.08,0-81.65,15.53-112.71,46.6-31.07,31.07-46.6,68.64-46.6,112.71s15.53,81.65,46.6,112.71c31.07,31.07,68.64,46.6,112.71,46.6s81.65-15.53,112.71-46.6c31.07-31.07,46.6-68.64,46.6-112.71s-15.53-81.65-46.6-112.71c-31.07-31.07-68.64-46.6-112.71-46.6Z"/>
      <path class="cls-12" d="m1039.27,1406.75h272.16v26.55h-272.16c-20.18,0-37.4,7.13-51.65,21.37-14.25,14.25-21.37,31.46-21.37,51.64s7.12,37.4,21.37,51.65c14.25,14.25,31.47,21.37,51.65,21.37h172.59c27.44,0,50.89,9.74,70.37,29.21,19.47,19.47,29.21,42.93,29.21,70.36s-9.74,50.89-29.21,70.37-42.93,29.21-70.37,29.21h-298.71l13.28-26.55h285.44c20.18,0,37.39-7.12,51.65-21.37,14.25-14.25,21.37-31.47,21.37-51.65s-7.13-37.39-21.37-51.64c-14.25-14.25-31.47-21.37-51.65-21.37h-172.59c-27.44,0-50.89-9.73-70.37-29.21-19.47-19.47-29.21-42.92-29.21-70.37s9.73-50.89,29.21-70.36c19.47-19.47,42.92-29.21,70.37-29.21Z"/>
      <path class="cls-6" d="m1369.4,1406.75h26.55v371.74h-26.55v-371.74Z"/>
      <path class="cls-11" d="m1458.77,1406.75h26.55v345.18h320.9v26.55h-347.45v-371.74Z"/>
      <path class="cls-14" d="m1864.18,1406.75h26.55v371.74h-26.55v-371.74Z"/>
      <path class="cls-2" d="m2261.14,1461.18c36.28,36.29,54.43,80.1,54.43,131.44s-18.15,95.15-54.43,131.44c-36.29,36.29-80.1,54.43-131.44,54.43s-95.15-18.14-131.44-54.43c-36.29-36.29-54.43-80.1-54.43-131.44s18.14-95.15,54.43-131.44c36.29-36.28,80.1-54.43,131.44-54.43s95.14,18.15,131.44,54.43Zm-131.44-27.88c-44.08,0-81.65,15.53-112.71,46.6-31.07,31.07-46.6,68.64-46.6,112.71s15.53,81.65,46.6,112.71c31.07,31.07,68.64,46.6,112.71,46.6s81.65-15.53,112.71-46.6c31.07-31.07,46.6-68.64,46.6-112.71s-15.53-81.65-46.6-112.71c-31.07-31.07-68.64-46.6-112.71-46.6Z"/>
      <path class="cls-5" d="m227.67,1923.98h140.09v20.01h-140.09c-33.22,0-61.54,11.71-84.96,35.12-23.42,23.41-35.12,51.73-35.12,84.96s11.71,61.54,35.12,84.96c23.41,23.42,51.73,35.12,84.96,35.12h150.1l10.01,20.01h-160.1c-38.69,0-71.72-13.67-99.06-41.03-27.35-27.35-41.03-60.37-41.03-99.07s13.67-71.71,41.03-99.07c27.35-27.35,60.37-41.03,99.06-41.03Z"/>
      <path class="cls-10" d="m642.09,1965.01c27.35,27.35,41.03,60.37,41.03,99.07s-13.68,71.72-41.03,99.07c-27.35,27.35-60.37,41.03-99.06,41.03s-71.72-13.67-99.06-41.03c-27.35-27.35-41.03-60.37-41.03-99.07s13.67-71.71,41.03-99.07c27.35-27.35,60.37-41.03,99.06-41.03s71.71,13.68,99.06,41.03Zm-99.06-21.01c-33.22,0-61.54,11.71-84.96,35.12-23.42,23.41-35.12,51.73-35.12,84.96s11.71,61.54,35.12,84.96c23.41,23.42,51.73,35.12,84.96,35.12s61.54-11.71,84.96-35.12c23.42-23.41,35.12-51.73,35.12-84.96s-11.71-61.54-35.12-84.96c-23.41-23.42-51.73-35.12-84.96-35.12Z"/>
      <path class="cls-8" d="m748.01,1948.6v255.57h-20.01v-306.8l260.17,282.18v-255.57h20.01v306.8l-260.17-282.18Z"/>
      <path class="cls-9" d="m1190.73,1923.98h140.09v20.01h-140.09c-33.22,0-61.54,11.71-84.96,35.12-23.42,23.41-35.12,51.73-35.12,84.96s11.71,61.54,35.12,84.96c23.41,23.42,51.73,35.12,84.96,35.12h150.1l10.01,20.01h-160.1c-38.69,0-71.72-13.67-99.07-41.03-27.35-27.35-41.03-60.37-41.03-99.07s13.67-71.71,41.03-99.07c27.35-27.35,60.37-41.03,99.07-41.03Z"/>
      <path class="cls-15" d="m1675.9,1923.98l-10.01,20.01h-250.75v110.07h240.74v20.01h-240.74v110.07h240.74v20.01h-260.75v-280.18h280.77Z"/>
      <path class="cls-7" d="m1927.76,1944h-205.13v-20.01h205.13c20.68,0,38.36,7.34,53.04,22.01,14.68,14.68,22.01,32.36,22.01,53.04s-7.34,38.36-22.01,53.03c-14.68,14.68-32.36,22.01-53.04,22.01h-185.12v140.09l-20.01,10.01v-170.11h205.13c15.21,0,28.18-5.37,38.93-16.11,10.74-10.74,16.11-23.72,16.11-38.92s-5.37-28.18-16.11-38.93c-10.74-10.74-23.72-16.11-38.93-16.11Z"/>
      <path class="cls-3" d="m2310.88,1923.98v20.01h-130.09v270.18l-20.01,10.01v-280.18h-130.09v-20.01h280.18Z"/>
    </g>
  </g>
</svg>