<?xml version="1.0" encoding="UTF-8"?>
<svg id="Layer_2" data-name="Layer 2" xmlns="http://www.w3.org/2000/svg" xmlns:xlink="http://www.w3.org/1999/xlink" viewBox="0 0 2073.57 441.68">
  <defs>
    <style>
      .cls-1 {
        fill: url(#linear-gradient-7);
      }

      .cls-1, .cls-2, .cls-3, .cls-4, .cls-5, .cls-6, .cls-7, .cls-8, .cls-9, .cls-10, .cls-11, .cls-12, .cls-13, .cls-14 {
        stroke: #828282;
        stroke-miterlimit: 10;
      }

      .cls-1, .cls-2, .cls-3, .cls-5, .cls-9, .cls-12, .cls-14 {
        stroke-width: .5px;
      }

      .cls-15 {
        fill: url(#linear-gradient-2);
      }

      .cls-2 {
        fill: url(#linear-gradient-9);
      }

      .cls-3 {
        fill: url(#linear-gradient-8);
      }

      .cls-4 {
        fill: url(#linear-gradient-12);
      }

      .cls-5 {
        fill: url(#linear-gradient-11);
      }

      .cls-6 {
        fill: url(#linear-gradient-15);
      }

      .cls-7 {
        fill: url(#linear-gradient-13);
      }

      .cls-8 {
        fill: url(#linear-gradient-14);
      }

      .cls-9 {
        fill: url(#linear-gradient-10);
      }

      .cls-10 {
        fill: url(#linear-gradient-17);
      }

      .cls-11 {
        fill: url(#linear-gradient-16);
      }

      .cls-12 {
        fill: url(#linear-gradient-6);
      }

      .cls-16 {
        fill: url(#linear-gradient-3);
      }

      .cls-13 {
        fill: url(#linear-gradient-18);
      }

      .cls-14 {
        fill: url(#linear-gradient-5);
      }

      .cls-17 {
        fill: url(#linear-gradient);
      }

      .cls-18 {
        fill: url(#linear-gradient-4);
      }
    </style>
    <linearGradient id="linear-gradient" x1="640.08" y1="461.95" x2="640.08" y2="-3.41" gradientUnits="userSpaceOnUse">
      <stop offset=".1" stop-color="#231f20"/>
      <stop offset=".11" stop-color="#2a2728"/>
      <stop offset=".12" stop-color="#403d3e"/>
      <stop offset=".14" stop-color="#646263"/>
      <stop offset=".16" stop-color="#959496"/>
      <stop offset=".18" stop-color="#c5c6c8"/>
      <stop offset=".24" stop-color="#bfbfc1"/>
      <stop offset=".31" stop-color="#aeaeb0"/>
      <stop offset=".4" stop-color="#929193"/>
      <stop offset=".49" stop-color="#6b696b"/>
      <stop offset=".59" stop-color="#3a3738"/>
      <stop offset=".63" stop-color="#231f20"/>
      <stop offset=".95" stop-color="#231f20"/>
      <stop offset=".95" stop-color="#2e2a2b"/>
      <stop offset=".97" stop-color="#514c4c"/>
      <stop offset=".99" stop-color="#666161"/>
      <stop offset="1" stop-color="#6e6969"/>
    </linearGradient>
    <linearGradient id="linear-gradient-2" x1="642.8" y1="-13.72" x2="642.8" y2="438.99" gradientUnits="userSpaceOnUse">
      <stop offset="0" stop-color="#525355"/>
      <stop offset=".01" stop-color="#58595b"/>
      <stop offset=".03" stop-color="#6b6c6e"/>
      <stop offset=".06" stop-color="#8a8b8c"/>
      <stop offset=".08" stop-color="#b5b5b6"/>
      <stop offset=".11" stop-color="#ebebec"/>
      <stop offset=".12" stop-color="#fff"/>
      <stop offset=".22" stop-color="#f6f6f7"/>
      <stop offset=".37" stop-color="#e0e0e1"/>
      <stop offset=".52" stop-color="#c5c6c8"/>
      <stop offset=".53" stop-color="#a7a7a9"/>
      <stop offset=".55" stop-color="#787879"/>
      <stop offset=".57" stop-color="#535354"/>
      <stop offset=".59" stop-color="#383839"/>
      <stop offset=".6" stop-color="#282828"/>
      <stop offset=".62" stop-color="#232323"/>
      <stop offset=".67" stop-color="#414242"/>
      <stop offset=".78" stop-color="#727476"/>
      <stop offset=".86" stop-color="#919396"/>
      <stop offset=".9" stop-color="#9d9fa2"/>
      <stop offset=".99" stop-color="#fff"/>
    </linearGradient>
    <linearGradient id="linear-gradient-3" x1="243.18" y1="461.95" x2="243.18" y2="-3.41" gradientUnits="userSpaceOnUse">
      <stop offset=".1" stop-color="#231f20"/>
      <stop offset=".11" stop-color="#2a2728"/>
      <stop offset=".12" stop-color="#403d3e"/>
      <stop offset=".14" stop-color="#646263"/>
      <stop offset=".16" stop-color="#959496"/>
      <stop offset=".18" stop-color="#c5c6c8"/>
      <stop offset=".24" stop-color="#bfbfc1"/>
      <stop offset=".31" stop-color="#aeaeb0"/>
      <stop offset=".4" stop-color="#929193"/>
      <stop offset=".49" stop-color="#6b696b"/>
      <stop offset=".59" stop-color="#3a3738"/>
      <stop offset=".63" stop-color="#231f20"/>
      <stop offset=".95" stop-color="#231f20"/>
      <stop offset=".95" stop-color="#2e2a2b"/>
      <stop offset=".97" stop-color="#514c4c"/>
      <stop offset=".99" stop-color="#666161"/>
      <stop offset="1" stop-color="#6e6969"/>
    </linearGradient>
    <linearGradient id="linear-gradient-4" x1="237.99" y1="-13.72" x2="237.99" y2="438.99" xlink:href="#linear-gradient-2"/>
    <linearGradient id="linear-gradient-5" x1="1014.15" y1="264.29" x2="1014.15" y2="9.4" gradientUnits="userSpaceOnUse">
      <stop offset=".05" stop-color="#655d5e"/>
      <stop offset=".13" stop-color="#5c5556"/>
      <stop offset=".2" stop-color="#524b4c"/>
      <stop offset=".26" stop-color="#6f696a"/>
      <stop offset=".38" stop-color="#bab7b7"/>
      <stop offset=".49" stop-color="#fff"/>
      <stop offset=".59" stop-color="#d9d8d8"/>
      <stop offset=".72" stop-color="#aba8a8"/>
      <stop offset=".84" stop-color="#898585"/>
      <stop offset=".94" stop-color="#757070"/>
      <stop offset="1" stop-color="#6e6969"/>
    </linearGradient>
    <linearGradient id="linear-gradient-6" x1="1228.75" y1="264.29" x2="1228.75" y2="9.4" xlink:href="#linear-gradient-5"/>
    <linearGradient id="linear-gradient-7" x1="1445.89" y1="264.29" x2="1445.89" y2="9.4" xlink:href="#linear-gradient-5"/>
    <linearGradient id="linear-gradient-8" x1="1586.88" y1="264.29" x2="1586.88" y2="9.4" xlink:href="#linear-gradient-5"/>
    <linearGradient id="linear-gradient-9" x1="1717.14" y1="264.29" x2="1717.14" y2="9.4" xlink:href="#linear-gradient-5"/>
    <linearGradient id="linear-gradient-10" x1="1844.87" y1="264.29" x2="1844.87" y2="9.4" xlink:href="#linear-gradient-5"/>
    <linearGradient id="linear-gradient-11" x1="1976.4" y1="264.29" x2="1976.4" y2="9.4" xlink:href="#linear-gradient-5"/>
    <linearGradient id="linear-gradient-12" x1="989.84" y1="195.5" x2="989.84" y2="419.96" xlink:href="#linear-gradient-5"/>
    <linearGradient id="linear-gradient-13" x1="1149.06" y1="195.5" x2="1149.06" y2="419.96" xlink:href="#linear-gradient-5"/>
    <linearGradient id="linear-gradient-14" x1="1318.56" y1="195.5" x2="1318.56" y2="419.96" xlink:href="#linear-gradient-5"/>
    <linearGradient id="linear-gradient-15" x1="1492.01" y1="195.5" x2="1492.01" y2="419.96" xlink:href="#linear-gradient-5"/>
    <linearGradient id="linear-gradient-16" x1="1666.57" y1="195.5" x2="1666.57" y2="419.96" xlink:href="#linear-gradient-5"/>
    <linearGradient id="linear-gradient-17" x1="1837.19" y1="195.5" x2="1837.19" y2="419.96" xlink:href="#linear-gradient-5"/>
    <linearGradient id="linear-gradient-18" x1="1997.82" y1="195.5" x2="1997.82" y2="419.96" xlink:href="#linear-gradient-5"/>
  </defs>
  <g id="logo-long">
    <g id="CO">
      <g>
        <path class="cls-17" d="m636.42,441.68h-.2c-36.8-2.49-72.66-14.27-103.73-34.08l-.18-.1-18.72-13.41-.12-.1c-7.42-5.91-14.51-12.36-21.08-19.16-40.12-41.44-62.22-96.04-62.22-153.74,0-31.32,6.42-61.58,19.07-89.95,8.83-19.81,20.45-38.09,34.62-54.48h-76.05l39.97-57.84.02-.02,12.98-18.8h190.47c59.96,0,116.08,23.6,158.01,66.46,40.68,41.55,63.08,96.46,63.08,154.62s-22.1,112.3-62.22,153.75c-38.15,39.43-89.24,63.17-143.83,66.83h-.2s-29.67.01-29.67.01Zm14.84-365.02c-79.64,0-144.43,64.79-144.43,144.43,0,74.01,55.4,135.75,128.88,143.61,5.14.55,10.37.83,15.55.83s10.41-.28,15.55-.83c73.48-7.86,128.88-69.6,128.88-143.61,0-79.64-64.79-144.43-144.44-144.43Z"/>
        <path class="cls-15" d="m804.98,70.66c-39.04-39.9-93.49-64.66-153.73-64.66h-187.32l-11.51,16.66-.02.02-33.15,47.97h78.28c.71-.74,1.43-1.46,2.16-2.19l-1.51,2.19h-.65c-17.76,18.14-32.34,39.42-42.82,62.92-11.92,26.73-18.55,56.34-18.55,87.5,0,58.13,23.06,110.87,60.53,149.57,6.42,6.64,13.27,12.87,20.5,18.64l18.23,13.06s.03.02.05.03c29.57,18.91,64.06,30.8,101.13,33.29h29.27c54.81-3.68,104-27.89,139.92-65.02,37.47-38.7,60.53-91.45,60.53-149.57s-23.4-111.65-61.37-150.43Zm-137.53,300c-5.32.57-10.72.86-16.19.86s-10.87-.29-16.19-.86c-75.46-8.08-134.24-71.96-134.24-149.57,0-83.08,67.35-150.43,150.43-150.43s150.44,67.35,150.44,150.43c0,77.62-58.77,141.5-134.25,149.57Z"/>
      </g>
      <g>
        <path class="cls-16" d="m206.25,441.68h-.2c-54.6-3.68-105.68-27.41-143.82-66.85C22.1,333.39,0,278.79,0,221.08S22.4,108.01,63.08,66.46C105.01,23.6,161.13,0,221.08,0h175.27l-37.97,54.96-14.98,21.7h-122.31c-79.64,0-144.44,64.79-144.44,144.43,0,64.52,43.33,121.71,105.38,139.1,10.61,2.97,22.03,4.48,33.95,4.48h200.77l1.77,2.8c15.08,23.93,33.69,45.34,55.32,63.64l12.51,10.58H206.25Z"/>
        <path class="cls-18" d="m469.97,435.68H206.45c-54.81-3.68-104-27.89-139.91-65.02C29.06,331.95,6,279.21,6,221.09s23.4-111.65,61.37-150.43C106.4,30.76,160.85,6,221.08,6h163.83l-31.47,45.55-13.2,19.11h-119.16c-83.09,0-150.44,67.35-150.44,150.43,0,68.99,46.44,127.13,109.76,144.87,11.57,3.24,23.56,4.7,35.57,4.7h197.46c15.42,24.48,34.52,46.41,56.52,65.02Z"/>
      </g>
    </g>
    <g>
      <path class="cls-14" d="m1007.23,199.84h110.76l-6.92-13.85h-103.84c-22.98,0-42.57-8.1-58.77-24.3-16.2-16.2-24.3-35.79-24.3-58.77s8.1-42.57,24.3-58.77c16.2-16.2,35.79-24.3,58.77-24.3h96.92V6h-96.92c-26.77,0-49.61,9.46-68.53,28.38-18.92,18.92-28.38,41.77-28.38,68.54s9.46,49.61,28.38,68.54c18.92,18.92,41.77,28.38,68.53,28.38Z"/>
      <path class="cls-12" d="m1325.67,102.92c0-26.77-9.46-49.61-28.38-68.54-18.92-18.92-41.77-28.38-68.53-28.38s-49.61,9.46-68.53,28.38c-18.92,18.92-28.38,41.77-28.38,68.54s9.46,49.61,28.38,68.54c18.92,18.92,41.77,28.38,68.53,28.38s49.61-9.46,68.53-28.38c18.92-18.92,28.38-41.77,28.38-68.54Zm-96.92,83.07c-22.98,0-42.57-8.1-58.77-24.3-16.2-16.2-24.3-35.79-24.3-58.77s8.1-42.57,24.3-58.77c16.2-16.2,35.79-24.3,58.77-24.3s42.57,8.1,58.77,24.3c16.2,16.2,24.3,35.79,24.3,58.77s-8.1,42.57-24.3,58.77c-16.2,16.2-35.79,24.3-58.77,24.3Z"/>
      <path class="cls-1" d="m1534.5,184.61c10.15-10.15,15.23-22.38,15.23-36.69s-5.08-26.54-15.23-36.69c-10.15-10.15-22.38-15.23-36.69-15.23h-89.99c-10.52,0-19.5-3.72-26.93-11.15-7.43-7.43-11.15-16.41-11.15-26.93s3.72-19.5,11.15-26.93c7.43-7.43,16.41-11.15,26.93-11.15h141.91V6h-141.91c-14.31,0-26.54,5.08-36.69,15.23-10.15,10.15-15.23,22.38-15.23,36.69s5.08,26.54,15.23,36.69c10.15,10.15,22.38,15.23,36.69,15.23h89.99c10.52,0,19.5,3.72,26.93,11.15,7.43,7.43,11.15,16.41,11.15,26.93s-3.72,19.5-11.15,26.93c-7.43,7.43-16.41,11.15-26.93,11.15h-148.84l-6.92,13.85h155.76c14.31,0,26.54-5.08,36.69-15.23Z"/>
      <rect class="cls-3" x="1579.95" y="6" width="13.85" height="193.83"/>
      <polygon class="cls-2" points="1807.73 185.99 1640.4 185.99 1640.4 6 1626.56 6 1626.56 199.84 1807.73 199.84 1807.73 185.99"/>
      <rect class="cls-9" x="1837.95" y="6" width="13.85" height="193.83"/>
      <path class="cls-5" d="m1976.4,199.84c26.77,0,49.61-9.46,68.54-28.38,18.92-18.92,28.38-41.77,28.38-68.54s-9.46-49.61-28.38-68.54c-18.92-18.92-41.77-28.38-68.54-28.38s-49.61,9.46-68.54,28.38c-18.92,18.92-28.38,41.77-28.38,68.54s9.46,49.61,28.38,68.54c18.92,18.92,41.77,28.38,68.54,28.38Zm-58.77-155.69c16.2-16.2,35.79-24.3,58.77-24.3s42.57,8.1,58.77,24.3c16.2,16.2,24.3,35.79,24.3,58.77s-8.1,42.57-24.3,58.77c-16.2,16.2-35.79,24.3-58.77,24.3s-42.57-8.1-58.77-24.3c-16.2-16.2-24.3-35.79-24.3-58.77s8.1-42.57,24.3-58.77Z"/>
    </g>
    <g>
      <path class="cls-4" d="m984.62,411.36c-17.32,0-32.09-6.1-44.3-18.31-12.21-12.21-18.31-26.98-18.31-44.3s6.1-32.09,18.31-44.3c12.21-12.21,26.98-18.31,44.3-18.31h73.05v-10.44h-73.05c-20.18,0-37.4,7.13-51.66,21.39-14.26,14.26-21.39,31.48-21.39,51.66s7.13,37.4,21.39,51.66c14.26,14.26,31.48,21.39,51.66,21.39h83.48l-5.22-10.44h-78.27Z"/>
      <path class="cls-7" d="m1149.06,275.7c-20.18,0-37.4,7.13-51.66,21.39-14.26,14.26-21.39,31.48-21.39,51.66s7.13,37.4,21.39,51.66c14.26,14.26,31.48,21.39,51.66,21.39s37.39-7.13,51.66-21.39c14.26-14.26,21.39-31.48,21.39-51.66s-7.13-37.39-21.39-51.66c-14.26-14.26-31.48-21.39-51.66-21.39Zm44.3,117.35c-12.21,12.21-26.98,18.31-44.3,18.31s-32.09-6.1-44.3-18.31c-12.21-12.21-18.31-26.98-18.31-44.3s6.1-32.09,18.31-44.3c12.21-12.21,26.98-18.31,44.3-18.31s32.09,6.1,44.3,18.31c12.21,12.21,18.31,26.98,18.31,44.3s-6.1,32.09-18.31,44.3Z"/>
      <polygon class="cls-8" points="1381.17 408.96 1245.51 261.82 1245.51 421.8 1255.94 421.8 1255.94 288.54 1391.6 435.68 1391.6 275.7 1381.17 275.7 1381.17 408.96"/>
      <path class="cls-6" d="m1486.79,411.36c-17.32,0-32.09-6.1-44.3-18.31-12.21-12.21-18.31-26.98-18.31-44.3s6.1-32.09,18.31-44.3c12.21-12.21,26.98-18.31,44.3-18.31h73.05v-10.44h-73.05c-20.18,0-37.4,7.13-51.66,21.39-14.26,14.26-21.39,31.48-21.39,51.66s7.13,37.4,21.39,51.66c14.26,14.26,31.48,21.39,51.66,21.39h83.48l-5.22-10.44h-78.27Z"/>
      <polygon class="cls-11" points="1593.37 421.8 1729.34 421.8 1729.34 411.36 1603.81 411.36 1603.81 353.97 1729.34 353.97 1729.34 343.53 1603.81 343.53 1603.81 286.14 1734.56 286.14 1739.77 275.7 1593.37 275.7 1593.37 421.8"/>
      <path class="cls-10" d="m1871.1,275.7h-106.96v10.44h106.96c7.93,0,14.7,2.8,20.3,8.4,5.6,5.6,8.4,12.37,8.4,20.3s-2.8,14.7-8.4,20.3c-5.6,5.6-12.37,8.4-20.3,8.4h-106.96v88.7l10.44-5.22v-73.05h96.53c10.78,0,20-3.83,27.65-11.48,7.65-7.65,11.48-16.87,11.48-27.65s-3.83-20-11.48-27.65c-7.65-7.65-16.87-11.48-27.65-11.48Z"/>
      <polygon class="cls-13" points="1924.78 286.14 1992.61 286.14 1992.61 432.23 2003.04 427.02 2003.04 286.14 2070.87 286.14 2070.87 275.7 1924.78 275.7 1924.78 286.14"/>
    </g>
  </g>
</svg>