<?xml version="1.0" encoding="UTF-8"?>
<svg id="Layer_2" data-name="Layer 2" xmlns="http://www.w3.org/2000/svg" xmlns:xlink="http://www.w3.org/1999/xlink" viewBox="0 0 857.38 177.71">
  <defs>
    <style>
      .cls-1 {
        fill: url(#linear-gradient-2);
      }

      .cls-2 {
        fill: #fff;
      }

      .cls-3 {
        fill: url(#linear-gradient-17);
      }

      .cls-4 {
        fill: url(#linear-gradient-15);
      }

      .cls-5 {
        fill: url(#linear-gradient-18);
      }

      .cls-6 {
        fill: url(#linear-gradient-14);
      }

      .cls-7 {
        opacity: .8;
      }

      .cls-7, .cls-8 {
        fill: none;
      }

      .cls-9 {
        fill: url(#linear-gradient-6);
      }

      .cls-10 {
        fill: url(#linear-gradient-11);
      }

      .cls-11 {
        fill: url(#linear-gradient-10);
      }

      .cls-12 {
        fill: url(#linear-gradient-16);
      }

      .cls-13 {
        fill: #f1f2f2;
      }

      .cls-14 {
        fill: url(#linear-gradient-5);
      }

      .cls-8 {
        opacity: .75;
      }

      .cls-15 {
        fill: url(#linear-gradient-7);
      }

      .cls-16 {
        fill: url(#linear-gradient-9);
      }

      .cls-17 {
        fill: url(#linear-gradient-3);
      }

      .cls-18 {
        fill: url(#linear-gradient);
      }

      .cls-19 {
        fill: #14ad89;
      }

      .cls-20 {
        fill: url(#linear-gradient-4);
      }

      .cls-21 {
        fill: url(#linear-gradient-8);
      }

      .cls-22 {
        fill: url(#linear-gradient-12);
      }

      .cls-23 {
        fill: url(#linear-gradient-13);
      }
    </style>
    <linearGradient id="linear-gradient" x1="253.45" y1="-8.15" x2="253.45" y2="178.98" gradientUnits="userSpaceOnUse">
      <stop offset="0" stop-color="#525355"/>
      <stop offset=".02" stop-color="#58595b"/>
      <stop offset=".04" stop-color="#6b6c6e"/>
      <stop offset=".07" stop-color="#8a8b8c"/>
      <stop offset=".11" stop-color="#b5b5b6"/>
      <stop offset=".15" stop-color="#ebebec"/>
      <stop offset=".16" stop-color="#fff"/>
      <stop offset=".25" stop-color="#f6f6f7"/>
      <stop offset=".39" stop-color="#e0e0e1"/>
      <stop offset=".52" stop-color="#c5c6c8"/>
      <stop offset=".53" stop-color="#a7a7a9"/>
      <stop offset=".56" stop-color="#787879"/>
      <stop offset=".59" stop-color="#535354"/>
      <stop offset=".62" stop-color="#383839"/>
      <stop offset=".64" stop-color="#282828"/>
      <stop offset=".66" stop-color="#232323"/>
      <stop offset=".83" stop-color="#989898"/>
      <stop offset=".95" stop-color="#e2e2e2"/>
      <stop offset="1" stop-color="#fff"/>
    </linearGradient>
    <linearGradient id="linear-gradient-2" x1="99.07" x2="99.07" xlink:href="#linear-gradient"/>
    <linearGradient id="linear-gradient-3" x1="254.38" y1="175.56" x2="254.38" y2="2.05" xlink:href="#linear-gradient"/>
    <linearGradient id="linear-gradient-4" x1="97.3" y1="175.56" x2="97.3" y2="2.05" xlink:href="#linear-gradient"/>
    <linearGradient id="linear-gradient-5" x1="424.3" y1="-1.9" x2="424.3" y2="159.56" xlink:href="#linear-gradient"/>
    <linearGradient id="linear-gradient-6" x1="711.48" y1="-1.9" x2="711.48" y2="159.56" xlink:href="#linear-gradient"/>
    <linearGradient id="linear-gradient-7" x1="600.38" y1="-1.9" x2="600.38" y2="159.56" xlink:href="#linear-gradient"/>
    <linearGradient id="linear-gradient-8" x1="817.19" y1="-1.9" x2="817.19" y2="159.56" xlink:href="#linear-gradient"/>
    <linearGradient id="linear-gradient-9" x1="763.56" y1="-1.9" x2="763.56" y2="159.56" xlink:href="#linear-gradient"/>
    <linearGradient id="linear-gradient-10" x1="658.18" y1="-1.9" x2="658.18" y2="159.56" xlink:href="#linear-gradient"/>
    <linearGradient id="linear-gradient-11" x1="511.81" y1="-1.9" x2="511.81" y2="159.56" xlink:href="#linear-gradient"/>
    <linearGradient id="linear-gradient-12" x1="414.54" y1="-1.9" x2="414.54" y2="159.56" xlink:href="#linear-gradient"/>
    <linearGradient id="linear-gradient-13" x1="760.36" y1="-1.9" x2="760.36" y2="159.56" xlink:href="#linear-gradient"/>
    <linearGradient id="linear-gradient-14" x1="479.3" y1="-1.9" x2="479.3" y2="159.56" xlink:href="#linear-gradient"/>
    <linearGradient id="linear-gradient-15" x1="826.1" y1="-1.9" x2="826.1" y2="159.56" xlink:href="#linear-gradient"/>
    <linearGradient id="linear-gradient-16" x1="690.68" y1="-1.9" x2="690.68" y2="159.56" xlink:href="#linear-gradient"/>
    <linearGradient id="linear-gradient-17" x1="619.62" y1="-1.9" x2="619.62" y2="159.56" xlink:href="#linear-gradient"/>
    <linearGradient id="linear-gradient-18" x1="548.55" y1="-1.9" x2="548.55" y2="159.56" xlink:href="#linear-gradient"/>
  </defs>
  <g id="Layer_9" data-name="Layer 9">
    <g>
      <path class="cls-18" d="m252.71,177.61h-.14c-14.74-1-29.1-5.7-41.56-13.61l-.06-.03-.13-.09-.05-.03-7.48-5.36-.08-.06c-2.98-2.38-5.83-4.97-8.48-7.71-16.13-16.66-25.02-38.62-25.02-61.82,0-12.59,2.58-24.76,7.67-36.17,3.06-6.87,6.95-13.27,11.62-19.13h-29.63L182.59,0h76.03c24.11,0,46.68,9.49,63.54,26.73,16.36,16.71,25.37,38.79,25.37,62.18s-8.89,45.16-25.02,61.83c-15.34,15.86-35.88,25.4-57.84,26.87h-.13s-11.82,0-11.82,0Zm5.91-144.01c-30.49,0-55.3,24.81-55.3,55.3,0,28.34,21.21,51.98,49.34,54.99,1.97.21,3.97.32,5.96.32s3.99-.11,5.96-.32c28.13-3.01,49.35-26.65,49.35-54.99,0-30.49-24.81-55.3-55.31-55.3Z"/>
      <path class="cls-1" d="m82.99,177.61h-.13c-21.96-1.48-42.5-11.03-57.84-26.88C8.89,134.06,0,112.11,0,88.9S9.01,43.43,25.37,26.73C42.23,9.49,64.79,0,88.9,0h72.35l-23.21,33.6h-49.14c-30.5,0-55.31,24.81-55.31,55.3,0,24.7,16.59,46.6,40.35,53.26,4.04,1.13,8.39,1.7,12.94,1.7h80.14l1.19,1.89c5.86,9.3,13.09,17.61,21.49,24.72l8.44,7.13h-115.15Z"/>
    </g>
    <g>
      <path class="cls-17" d="m320.69,28.16c-16.47-16.84-38.51-26.11-62.08-26.11h-74.95l-.29.42-19.02,27.53-1.07,1.54h30.11c-5.81,6.59-10.56,13.99-14.14,22.01-4.97,11.15-7.5,23.04-7.5,35.34,0,22.67,8.68,44.12,24.44,60.4,2.57,2.66,5.37,5.21,8.33,7.56l.02.02h.02s7.19,5.17,7.19,5.17h.02s.02.03.02.03l.11.07c12.21,7.8,26.32,12.44,40.8,13.41h.03s.03,0,.03,0h11.75c21.45-1.44,41.52-10.77,56.5-26.26,15.76-16.27,24.44-37.72,24.44-60.4s-8.8-44.42-24.78-60.74Zm-4.72,60.74c0,14.21-5.2,27.84-14.65,38.37-9.45,10.52-22.42,17.15-36.53,18.66-2.03.22-4.11.33-6.17.33s-4.14-.11-6.17-.33c-29.18-3.12-51.18-27.64-51.18-57.03,0-31.62,25.73-57.35,57.35-57.35s57.36,25.73,57.36,57.35Z"/>
      <path class="cls-20" d="m188.38,172.04c-8.57-7.25-15.94-15.73-21.9-25.19l-.3-.47-.29-.46h-79.01c-4.72,0-9.26-.6-13.5-1.78-24.64-6.91-41.85-29.62-41.85-55.24,0-31.62,25.73-57.35,57.36-57.35h48.06l.29-.42,19.01-27.53,1.07-1.54h-68.43c-23.56,0-45.6,9.27-62.08,26.11C10.85,44.48,2.05,66.05,2.05,88.9s8.68,44.12,24.44,60.4c14.98,15.49,35.05,24.82,56.5,26.26h.03s.03,0,.03,0h109.49l-2.06-1.74-2.11-1.78Z"/>
    </g>
    <g class="cls-7">
      <path class="cls-2" d="m322.16,26.82C305.3,9.59,282.73.1,258.62.1h-76.03l-23.22,33.6h29.63c-4.67,5.86-8.56,12.26-11.62,19.13-5.09,11.41-7.67,23.58-7.67,36.17,0,23.2,8.89,45.16,25.02,61.82,2.64,2.74,5.5,5.33,8.48,7.71l.08.06,7.48,5.36.05.03.13.09.06.03c12.46,7.91,26.82,12.61,41.56,13.6h.14s11.82,0,11.82,0h.13c21.96-1.48,42.5-11.03,57.84-26.88,16.14-16.67,25.02-38.62,25.02-61.83s-9.01-45.47-25.37-62.18Zm-57.58,117.17c-1.97.21-3.97.32-5.96.32s-3.99-.11-5.96-.32c-28.13-3.01-49.34-26.65-49.34-54.99,0-30.49,24.81-55.3,55.3-55.3s55.31,24.81,55.31,55.3c0,28.34-21.21,51.98-49.35,54.99Z"/>
      <path class="cls-19" d="m168.22,145.86l-1.19-1.89h-80.14c-4.55,0-8.91-.57-12.94-1.7-23.76-6.66-40.35-28.56-40.35-53.26,0-30.49,24.81-55.3,55.31-55.3h49.14L161.25.1h-72.35C64.79.1,42.23,9.59,25.37,26.82,9.01,43.53,0,65.61,0,89s8.89,45.16,25.02,61.82c15.34,15.86,35.88,25.4,57.84,26.88h.13s115.15,0,115.15,0l-8.44-7.13c-8.4-7.11-15.63-15.42-21.49-24.72Z"/>
    </g>
    <g>
      <g id="cos">
        <path class="cls-14" d="m421.27,80.44h46.28l-3.46-6.92h-42.75c-9.17,0-17.1-3.28-23.56-9.74-6.46-6.46-9.74-14.39-9.74-23.56s3.28-17.1,9.74-23.56c6.46-6.46,14.39-9.74,23.56-9.74h40.15V0h-40.22c-11.06,0-20.63,3.96-28.44,11.78-7.82,7.82-11.78,17.38-11.78,28.44s3.96,20.63,11.78,28.44c7.81,7.81,17.38,11.78,28.44,11.78Z"/>
        <polygon class="cls-9" points="749.04 73.52 680.42 73.52 680.42 0 673.92 0 673.92 80.44 749.04 80.44 749.04 73.52"/>
        <path class="cls-15" d="m637.12,74.03c4.25-4.25,6.41-9.44,6.41-15.43s-2.16-11.18-6.41-15.43c-4.25-4.25-9.44-6.41-15.43-6.41h-36.48c-4.11,0-7.66-1.47-10.56-4.37-2.9-2.9-4.37-6.45-4.37-10.56s1.47-7.66,4.37-10.55c2.9-2.9,6.45-4.37,10.56-4.37h58.45V0h-58.65c-5.99,0-11.18,2.16-15.43,6.41-4.25,4.25-6.41,9.44-6.41,15.43s2.16,11.18,6.41,15.43c4.25,4.25,9.44,6.41,15.43,6.41h36.71c4.1,0,7.66,1.47,10.56,4.37,2.9,2.9,4.37,6.45,4.37,10.55s-1.47,7.66-4.37,10.56c-2.9,2.9-6.45,4.37-10.56,4.37h-61.16l-3.46,6.92h64.59c5.99,0,11.18-2.16,15.43-6.41Z"/>
        <path class="cls-21" d="m817.19,80.48c11.05,0,20.61-3.96,28.42-11.77,7.81-7.81,11.77-17.37,11.77-28.42s-3.96-20.61-11.77-28.42c-7.81-7.81-17.37-11.77-28.42-11.77s-20.61,3.96-28.42,11.77c-7.81,7.81-11.77,17.37-11.77,28.42s3.96,20.61,11.77,28.42c7.81,7.81,17.37,11.77,28.42,11.77Zm-33.33-40.19c0-9.18,3.28-17.11,9.75-23.58,6.47-6.47,14.4-9.75,23.58-9.75s17.11,3.28,23.58,9.75c6.47,6.47,9.75,14.4,9.75,23.58s-3.28,17.11-9.75,23.58c-6.47,6.47-14.4,9.75-23.58,9.75s-17.11-3.28-23.58-9.75c-6.47-6.47-9.75-14.4-9.75-23.58Z"/>
        <rect class="cls-16" x="760.1" width="6.92" height="80.44"/>
        <rect class="cls-11" x="654.72" width="6.92" height="80.44"/>
        <path class="cls-10" d="m551.99,40.29c0-11.05-3.96-20.61-11.77-28.42-7.81-7.81-17.37-11.77-28.42-11.77s-20.61,3.96-28.42,11.77c-7.81,7.81-11.77,17.37-11.77,28.42s3.96,20.61,11.77,28.42c7.81,7.81,17.37,11.77,28.42,11.77s20.61-3.96,28.42-11.77c7.81-7.81,11.77-17.37,11.77-28.42Zm-6.85,0c0,9.18-3.28,17.11-9.75,23.58-6.47,6.47-14.4,9.75-23.58,9.75s-17.11-3.28-23.58-9.75c-6.47-6.47-9.75-14.4-9.75-23.58s3.28-17.11,9.75-23.58c6.47-6.47,14.4-9.75,23.58-9.75s17.11,3.28,23.58,9.75c6.47,6.47,9.75,14.4,9.75,23.58Z"/>
      </g>
      <g id="cos2" class="cls-8">
        <path class="cls-19" d="m421.27,80.44h46.28l-3.46-6.92h-42.75c-9.17,0-17.1-3.28-23.56-9.74-6.46-6.46-9.74-14.39-9.74-23.56s3.28-17.1,9.74-23.56c6.46-6.46,14.39-9.74,23.56-9.74h40.15V0h-40.22c-11.06,0-20.63,3.96-28.44,11.78-7.82,7.82-11.78,17.38-11.78,28.44s3.96,20.63,11.78,28.44c7.81,7.81,17.38,11.78,28.44,11.78Z"/>
        <polygon class="cls-19" points="749.04 73.52 680.42 73.52 680.42 0 673.92 0 673.92 80.44 749.04 80.44 749.04 73.52"/>
        <path class="cls-19" d="m637.12,74.03c4.25-4.25,6.41-9.44,6.41-15.43s-2.16-11.18-6.41-15.43c-4.25-4.25-9.44-6.41-15.43-6.41h-36.48c-4.11,0-7.66-1.47-10.56-4.37-2.9-2.9-4.37-6.45-4.37-10.56s1.47-7.66,4.37-10.55c2.9-2.9,6.45-4.37,10.56-4.37h58.45V0h-58.65c-5.99,0-11.18,2.16-15.43,6.41-4.25,4.25-6.41,9.44-6.41,15.43s2.16,11.18,6.41,15.43c4.25,4.25,9.44,6.41,15.43,6.41h36.71c4.1,0,7.66,1.47,10.56,4.37,2.9,2.9,4.37,6.45,4.37,10.55s-1.47,7.66-4.37,10.56c-2.9,2.9-6.45,4.37-10.56,4.37h-61.16l-3.46,6.92h64.59c5.99,0,11.18-2.16,15.43-6.41Z"/>
        <path class="cls-19" d="m817.19,80.48c11.05,0,20.61-3.96,28.42-11.77,7.81-7.81,11.77-17.37,11.77-28.42s-3.96-20.61-11.77-28.42c-7.81-7.81-17.37-11.77-28.42-11.77s-20.61,3.96-28.42,11.77c-7.81,7.81-11.77,17.37-11.77,28.42s3.96,20.61,11.77,28.42c7.81,7.81,17.37,11.77,28.42,11.77Zm-33.33-40.19c0-9.18,3.28-17.11,9.75-23.58,6.47-6.47,14.4-9.75,23.58-9.75s17.11,3.28,23.58,9.75c6.47,6.47,9.75,14.4,9.75,23.58s-3.28,17.11-9.75,23.58c-6.47,6.47-14.4,9.75-23.58,9.75s-17.11-3.28-23.58-9.75c-6.47-6.47-9.75-14.4-9.75-23.58Z"/>
        <rect class="cls-19" x="760.1" width="6.92" height="80.44"/>
        <rect class="cls-19" x="654.72" width="6.92" height="80.44"/>
        <path class="cls-19" d="m551.99,40.29c0-11.05-3.96-20.61-11.77-28.42-7.81-7.81-17.37-11.77-28.42-11.77s-20.61,3.96-28.42,11.77c-7.81,7.81-11.77,17.37-11.77,28.42s3.96,20.61,11.77,28.42c7.81,7.81,17.37,11.77,28.42,11.77s20.61-3.96,28.42-11.77c7.81-7.81,11.77-17.37,11.77-28.42Zm-6.85,0c0,9.18-3.28,17.11-9.75,23.58-6.47,6.47-14.4,9.75-23.58,9.75s-17.11-3.28-23.58-9.75c-6.47-6.47-9.75-14.4-9.75-23.58s3.28-17.11,9.75-23.58c6.47-6.47,14.4-9.75,23.58-9.75s17.11,3.28,23.58,9.75c6.47,6.47,9.75,14.4,9.75,23.58Z"/>
      </g>
    </g>
    <g>
      <g id="con2">
        <path class="cls-22" d="m412.36,165.83c-6.87,0-12.8-2.45-17.64-7.29-4.84-4.84-7.29-10.77-7.29-17.64s2.45-12.8,7.29-17.64c4.84-4.84,10.77-7.29,17.64-7.29h30.38v-5.69h-30.42c-8.36,0-15.6,3-21.51,8.91-5.91,5.91-8.91,13.15-8.91,21.51s3,15.6,8.91,21.51c5.91,5.91,13.15,8.91,21.51,8.91h34.83l-2.64-5.28h-32.15Z"/>
        <path class="cls-23" d="m774.29,110.28h-44.37v5.69h43.99c3.04,0,5.67,1.09,7.81,3.23,2.14,2.15,3.23,4.77,3.23,7.81s-1.09,5.67-3.23,7.81c-2.15,2.14-4.77,3.23-7.81,3.23h-43.99v37.73l5.28-2.76v-29.69h39.01c4.53.09,8.47-1.51,11.73-4.77,3.23-3.23,4.86-7.17,4.86-11.72s-1.64-8.49-4.86-11.72c-3.22-3.22-7.14-4.85-11.65-4.85Z"/>
        <path class="cls-6" d="m479.3,110.27c-8.37,0-15.61,3-21.52,8.91-5.91,5.91-8.91,13.16-8.91,21.52s3,15.61,8.91,21.52c5.91,5.91,13.15,8.91,21.52,8.91s15.61-3,21.52-8.91c5.91-5.91,8.91-13.16,8.91-21.52s-3-15.61-8.91-21.52c-5.92-5.91-13.16-8.91-21.52-8.91Zm24.98,30.44c0,6.88-2.46,12.82-7.31,17.67-4.85,4.85-10.79,7.31-17.67,7.31s-12.82-2.46-17.67-7.31c-4.85-4.85-7.31-10.79-7.31-17.67s2.46-12.82,7.31-17.67c4.85-4.85,10.79-7.31,17.67-7.31s12.82,2.46,17.67,7.31c4.85,4.85,7.31,10.79,7.31,17.67Z"/>
        <polygon class="cls-4" points="795.68 115.56 823.46 115.56 823.46 175.63 828.74 172.87 828.74 115.56 856.51 115.56 856.51 110.28 795.68 110.28 795.68 115.56"/>
        <polygon class="cls-12" points="660.07 171.12 716.82 171.12 716.82 165.83 665.36 165.83 665.36 143.34 716.82 143.34 716.82 138.06 665.36 138.06 665.36 115.56 718.52 115.56 721.28 110.28 660.07 110.28 660.07 171.12"/>
        <path class="cls-3" d="m617.41,165.83c-6.87,0-12.8-2.45-17.64-7.29-4.84-4.84-7.29-10.77-7.29-17.64s2.45-12.8,7.29-17.64c4.84-4.84,10.77-7.29,17.64-7.29h30.38v-5.69h-30.42c-8.36,0-15.6,3-21.51,8.91-5.91,5.91-8.91,13.15-8.91,21.51s3,15.6,8.91,21.51c5.91,5.91,13.15,8.91,21.51,8.91h34.9l-2.64-5.28h-32.22Z"/>
        <polygon class="cls-5" points="573.48 163.75 517.93 103.69 517.93 171.12 523.62 171.12 523.62 117.65 579.17 177.71 579.17 110.28 573.48 110.28 573.48 163.75"/>
      </g>
      <g id="con" class="cls-8">
        <path class="cls-13" d="m412.36,165.83c-6.87,0-12.8-2.45-17.64-7.29-4.84-4.84-7.29-10.77-7.29-17.64s2.45-12.8,7.29-17.64c4.84-4.84,10.77-7.29,17.64-7.29h30.38v-5.69h-30.42c-8.36,0-15.6,3-21.51,8.91-5.91,5.91-8.91,13.15-8.91,21.51s3,15.6,8.91,21.51c5.91,5.91,13.15,8.91,21.51,8.91h34.83l-2.64-5.28h-32.15Z"/>
        <path class="cls-13" d="m774.29,110.28h-44.37v5.69h43.99c3.04,0,5.67,1.09,7.81,3.23,2.14,2.15,3.23,4.77,3.23,7.81s-1.09,5.67-3.23,7.81c-2.15,2.14-4.77,3.23-7.81,3.23h-43.99v37.73l5.28-2.76v-29.69h39.01c4.53.09,8.47-1.51,11.73-4.77,3.23-3.23,4.86-7.17,4.86-11.72s-1.64-8.49-4.86-11.72c-3.22-3.22-7.14-4.85-11.65-4.85Z"/>
        <path class="cls-13" d="m479.3,110.27c-8.37,0-15.61,3-21.52,8.91-5.91,5.91-8.91,13.16-8.91,21.52s3,15.61,8.91,21.52c5.91,5.91,13.15,8.91,21.52,8.91s15.61-3,21.52-8.91c5.91-5.91,8.91-13.16,8.91-21.52s-3-15.61-8.91-21.52c-5.92-5.91-13.16-8.91-21.52-8.91Zm24.98,30.44c0,6.88-2.46,12.82-7.31,17.67-4.85,4.85-10.79,7.31-17.67,7.31s-12.82-2.46-17.67-7.31c-4.85-4.85-7.31-10.79-7.31-17.67s2.46-12.82,7.31-17.67c4.85-4.85,10.79-7.31,17.67-7.31s12.82,2.46,17.67,7.31c4.85,4.85,7.31,10.79,7.31,17.67Z"/>
        <polygon class="cls-13" points="795.68 115.56 823.46 115.56 823.46 175.63 828.74 172.87 828.74 115.56 856.51 115.56 856.51 110.28 795.68 110.28 795.68 115.56"/>
        <polygon class="cls-13" points="660.07 171.12 716.82 171.12 716.82 165.83 665.36 165.83 665.36 143.34 716.82 143.34 716.82 138.06 665.36 138.06 665.36 115.56 718.52 115.56 721.28 110.28 660.07 110.28 660.07 171.12"/>
        <path class="cls-13" d="m617.41,165.83c-6.87,0-12.8-2.45-17.64-7.29-4.84-4.84-7.29-10.77-7.29-17.64s2.45-12.8,7.29-17.64c4.84-4.84,10.77-7.29,17.64-7.29h30.38v-5.69h-30.42c-8.36,0-15.6,3-21.51,8.91-5.91,5.91-8.91,13.15-8.91,21.51s3,15.6,8.91,21.51c5.91,5.91,13.15,8.91,21.51,8.91h34.9l-2.64-5.28h-32.22Z"/>
        <polygon class="cls-13" points="573.48 163.75 517.93 103.69 517.93 171.12 523.62 171.12 523.62 117.65 579.17 177.71 579.17 110.28 573.48 110.28 573.48 163.75"/>
      </g>
    </g>
  </g>
</svg>