<?xml version="1.0" encoding="UTF-8"?>
<svg id="Layer_2" data-name="Layer 2" xmlns="http://www.w3.org/2000/svg" xmlns:xlink="http://www.w3.org/1999/xlink" viewBox="0 0 707.72 669.6">
  <defs>
    <style>
      .cls-1 {
        fill: url(#linear-gradient-2);
      }

      .cls-2 {
        fill: #fff;
      }

      .cls-3 {
        fill: url(#linear-gradient-17);
      }

      .cls-4 {
        fill: url(#linear-gradient-15);
      }

      .cls-5 {
        fill: url(#linear-gradient-18);
      }

      .cls-6 {
        fill: url(#linear-gradient-14);
      }

      .cls-7, .cls-8 {
        fill: none;
      }

      .cls-7, .cls-9 {
        opacity: .8;
      }

      .cls-10 {
        fill: url(#linear-gradient-6);
      }

      .cls-11 {
        fill: url(#linear-gradient-11);
      }

      .cls-12 {
        fill: url(#linear-gradient-10);
      }

      .cls-13 {
        fill: url(#linear-gradient-16);
      }

      .cls-14 {
        fill: #f1f2f2;
      }

      .cls-15 {
        fill: url(#linear-gradient-5);
      }

      .cls-8 {
        opacity: .75;
      }

      .cls-16 {
        fill: url(#linear-gradient-7);
      }

      .cls-17 {
        fill: url(#linear-gradient-9);
      }

      .cls-18 {
        fill: url(#linear-gradient);
      }

      .cls-9 {
        fill: url(#linear-gradient-3);
      }

      .cls-19 {
        fill: #14ad89;
      }

      .cls-20 {
        fill: url(#linear-gradient-4);
      }

      .cls-21 {
        fill: url(#linear-gradient-8);
      }

      .cls-22 {
        fill: url(#linear-gradient-12);
      }

      .cls-23 {
        fill: url(#linear-gradient-13);
      }
    </style>
    <linearGradient id="linear-gradient" x1="515.84" y1="-16.57" x2="515.84" y2="363.8" gradientUnits="userSpaceOnUse">
      <stop offset="0" stop-color="#525355"/>
      <stop offset=".02" stop-color="#58595b"/>
      <stop offset=".04" stop-color="#6b6c6e"/>
      <stop offset=".07" stop-color="#8a8b8c"/>
      <stop offset=".11" stop-color="#b5b5b6"/>
      <stop offset=".15" stop-color="#ebebec"/>
      <stop offset=".16" stop-color="#fff"/>
      <stop offset=".25" stop-color="#f6f6f7"/>
      <stop offset=".39" stop-color="#e0e0e1"/>
      <stop offset=".52" stop-color="#c5c6c8"/>
      <stop offset=".53" stop-color="#a7a7a9"/>
      <stop offset=".56" stop-color="#787879"/>
      <stop offset=".59" stop-color="#535354"/>
      <stop offset=".62" stop-color="#383839"/>
      <stop offset=".64" stop-color="#282828"/>
      <stop offset=".66" stop-color="#232323"/>
      <stop offset=".83" stop-color="#989898"/>
      <stop offset=".95" stop-color="#e2e2e2"/>
      <stop offset="1" stop-color="#fff"/>
    </linearGradient>
    <linearGradient id="linear-gradient-2" x1="202.05" x2="202.05" y2="363.8" xlink:href="#linear-gradient"/>
    <linearGradient id="linear-gradient-3" x1="518.63" y1="354.84" x2="518.63" y2="6.17" xlink:href="#linear-gradient"/>
    <linearGradient id="linear-gradient-4" x1="196.71" y1="354.84" x2="196.71" y2="6.17" xlink:href="#linear-gradient"/>
    <linearGradient id="linear-gradient-5" x1="64.26" y1="402.74" x2="64.26" y2="642.63" xlink:href="#linear-gradient"/>
    <linearGradient id="linear-gradient-6" x1="490.95" y1="402.74" x2="490.95" y2="642.63" xlink:href="#linear-gradient"/>
    <linearGradient id="linear-gradient-7" x1="325.88" y1="402.74" x2="325.88" y2="642.63" xlink:href="#linear-gradient"/>
    <linearGradient id="linear-gradient-8" x1="648.02" y1="402.74" x2="648.02" y2="642.63" xlink:href="#linear-gradient"/>
    <linearGradient id="linear-gradient-9" x1="568.33" y1="402.74" x2="568.33" y2="642.63" xlink:href="#linear-gradient"/>
    <linearGradient id="linear-gradient-10" x1="411.75" y1="402.74" x2="411.75" y2="642.63" xlink:href="#linear-gradient"/>
    <linearGradient id="linear-gradient-11" x1="194.28" y1="402.74" x2="194.28" y2="642.63" xlink:href="#linear-gradient"/>
    <linearGradient id="linear-gradient-12" x1="49.75" y1="402.74" x2="49.75" y2="642.63" xlink:href="#linear-gradient"/>
    <linearGradient id="linear-gradient-13" x1="563.58" y1="402.74" x2="563.58" y2="642.63" xlink:href="#linear-gradient"/>
    <linearGradient id="linear-gradient-14" x1="145.98" y1="402.74" x2="145.98" y2="642.63" xlink:href="#linear-gradient"/>
    <linearGradient id="linear-gradient-15" x1="661.25" y1="402.74" x2="661.25" y2="642.63" xlink:href="#linear-gradient"/>
    <linearGradient id="linear-gradient-16" x1="460.04" y1="402.74" x2="460.04" y2="642.63" xlink:href="#linear-gradient"/>
    <linearGradient id="linear-gradient-17" x1="354.46" y1="402.74" x2="354.46" y2="642.63" xlink:href="#linear-gradient"/>
    <linearGradient id="linear-gradient-18" x1="248.87" y1="402.74" x2="248.87" y2="642.63" xlink:href="#linear-gradient"/>
  </defs>
  <g id="Layer_9" data-name="Layer 9">
    <g>
      <path class="cls-18" d="m514.33,361.01l-.28-.02c-29.95-2.01-59.15-11.57-84.47-27.65l-.11-.05-.27-.18-.1-.06-15.2-10.89-.16-.13c-6.06-4.83-11.86-10.1-17.23-15.66-32.79-33.87-50.85-78.5-50.85-125.66,0-25.6,5.25-50.33,15.59-73.52,6.22-13.96,14.13-26.98,23.62-38.89h-60.22L371.81,0h154.53c49.01,0,94.88,19.29,129.15,54.32,33.25,33.96,51.56,78.85,51.56,126.38s-18.06,91.79-50.86,125.67c-31.18,32.23-72.94,51.63-117.56,54.62l-.27.02h-24.02Zm12.01-292.72c-61.98,0-112.41,50.43-112.41,112.41,0,57.6,43.12,105.65,100.3,111.77,4,.43,8.07.65,12.11.65s8.11-.22,12.11-.65c57.18-6.12,100.31-54.17,100.31-111.77,0-61.98-50.43-112.41-112.41-112.41Z"/>
      <path class="cls-1" d="m169.37,361.01l-.27-.02c-44.63-3-86.38-22.4-117.56-54.63C18.74,272.49.67,227.87.67,180.7S18.99,88.28,52.23,54.32C86.5,19.29,132.37,0,181.38,0h147.06l-47.18,68.3h-99.87c-61.99,0-112.41,50.43-112.41,112.41,0,50.21,33.73,94.73,82.02,108.26,8.21,2.3,17.06,3.47,26.31,3.47h162.89l2.42,3.84c11.91,18.9,26.6,35.8,43.68,50.24l17.15,14.5h-234.06Z"/>
      <path class="cls-9" d="m651.08,58.64c-33.1-33.84-77.41-52.46-124.75-52.46h-151.29l-38.66,55.96h61.89c-13.06,14.08-23.61,30.06-31.41,47.56-9.99,22.39-15.06,46.3-15.06,71.01,0,45.56,17.45,88.66,49.12,121.38,5.18,5.37,10.79,10.46,16.73,15.19l14.61,10.48.23.15c24.55,15.68,52.89,24.99,81.97,26.95h23.75c43.09-2.89,83.43-21.63,113.54-52.77,31.69-32.72,49.12-75.82,49.12-121.38s-17.68-89.26-49.79-122.06Zm-36.46,201.39c-18.91,21.07-45.37,35.35-75.53,38.58-8.43.9-17.09.9-25.52,0-60.33-6.46-105.81-57.14-105.81-117.91,0-65.38,53.19-118.57,118.57-118.57s118.58,53.19,118.58,118.57c0,30.38-11.38,58.25-30.29,79.33Z"/>
      <path class="cls-20" d="m386.58,354.84h-217.08c-43.1-2.89-83.43-21.63-113.54-52.77C24.29,269.36,6.84,226.25,6.84,180.7S24.52,91.43,56.64,58.64C89.75,24.8,134.04,6.17,181.38,6.17h135.29l-38.65,55.96h-96.64c-65.39,0-118.59,53.19-118.59,118.57,0,52.97,35.58,99.93,86.52,114.21,8.76,2.44,18.16,3.69,27.97,3.69h159.49l.6.96c12.24,19.43,27.36,36.81,44.91,51.67l4.29,3.62Z"/>
      <g class="cls-7">
        <path class="cls-2" d="m655.49,54.52C621.22,19.49,575.35.2,526.34.2h-154.53l-47.19,68.3h60.22c-9.48,11.91-17.4,24.93-23.62,38.89-10.34,23.19-15.59,47.92-15.59,73.52,0,47.16,18.06,91.79,50.85,125.66,5.38,5.57,11.17,10.84,17.23,15.66l.16.13,15.2,10.89.1.06.27.18.11.05c25.32,16.08,54.52,25.64,84.47,27.65l.28.02h24.02l.27-.02c44.63-3,86.38-22.39,117.56-54.62,32.8-33.88,50.86-78.51,50.86-125.67s-18.31-92.42-51.56-126.38Zm-117.04,238.15c-4,.43-8.08.65-12.11.65s-8.11-.22-12.11-.65c-57.18-6.12-100.3-54.17-100.3-111.77,0-61.98,50.43-112.41,112.41-112.41s112.41,50.43,112.41,112.41c0,57.6-43.12,105.65-100.31,111.77Z"/>
        <path class="cls-19" d="m342.59,296.47l-2.42-3.84h-162.89c-9.25,0-18.1-1.17-26.31-3.47-48.29-13.53-82.02-58.04-82.02-108.26,0-61.98,50.43-112.41,112.41-112.41h99.87L328.43.2h-147.06C132.37.2,86.5,19.49,52.23,54.52,18.99,88.49.67,133.37.67,180.91s18.06,91.79,50.86,125.66c31.18,32.23,72.93,51.63,117.56,54.63l.27.02h234.06l-17.15-14.5c-17.08-14.44-31.78-31.35-43.68-50.24Z"/>
      </g>
    </g>
    <g>
      <g id="cos">
        <path class="cls-15" d="m59.76,525.08h68.76l-5.14-10.27h-63.52c-13.63,0-25.41-4.87-35.01-14.47-9.6-9.6-14.47-21.38-14.47-35.01s4.87-25.41,14.47-35.01c9.6-9.6,21.38-14.47,35.01-14.47h59.66v-10.27h-59.76c-16.43,0-30.64,5.89-42.26,17.5S0,448.89,0,465.32s5.89,30.65,17.5,42.26c11.61,11.61,25.83,17.5,42.26,17.5Z"/>
        <polygon class="cls-10" points="546.76 514.8 444.81 514.8 444.81 405.56 435.14 405.56 435.14 525.08 546.76 525.08 546.76 514.8"/>
        <path class="cls-16" d="m380.47,515.56c6.31-6.31,9.52-14.03,9.52-22.93s-3.2-16.61-9.52-22.93c-6.32-6.32-14.03-9.52-22.93-9.52h-54.2c-6.1,0-11.38-2.18-15.68-6.49-4.31-4.31-6.49-9.58-6.49-15.68s2.18-11.37,6.49-15.68c4.31-4.31,9.58-6.49,15.68-6.49h86.85v-10.27h-87.15c-8.9,0-16.61,3.2-22.93,9.52-6.32,6.32-9.52,14.03-9.52,22.93s3.2,16.62,9.52,22.93c6.31,6.32,14.03,9.52,22.93,9.52h54.55c6.1,0,11.37,2.18,15.68,6.49,4.31,4.31,6.49,9.58,6.49,15.68s-2.18,11.38-6.49,15.68c-4.31,4.31-9.58,6.49-15.68,6.49h-90.88l-5.14,10.27h95.97c8.9,0,16.61-3.2,22.93-9.52Z"/>
        <path class="cls-21" d="m648.02,525.13c16.41,0,30.62-5.88,42.22-17.49,11.6-11.6,17.48-25.81,17.48-42.22s-5.88-30.62-17.49-42.22c-11.6-11.6-25.81-17.49-42.22-17.49s-30.62,5.88-42.22,17.49c-11.6,11.6-17.48,25.81-17.48,42.22s5.88,30.62,17.48,42.22c11.6,11.6,25.81,17.49,42.22,17.49Zm-49.53-59.71c0-13.64,4.87-25.43,14.49-35.04,9.61-9.61,21.4-14.49,35.04-14.49s25.43,4.87,35.04,14.49c9.61,9.61,14.49,21.4,14.49,35.04s-4.87,25.43-14.49,35.04c-9.61,9.61-21.4,14.49-35.04,14.49s-25.43-4.87-35.04-14.49c-9.61-9.61-14.49-21.4-14.49-35.04Z"/>
        <rect class="cls-17" x="563.19" y="405.56" width="10.27" height="119.51"/>
        <rect class="cls-12" x="406.62" y="405.56" width="10.27" height="119.51"/>
        <path class="cls-11" d="m253.98,465.42c0-16.41-5.88-30.62-17.49-42.22-11.6-11.6-25.81-17.49-42.22-17.49s-30.62,5.88-42.22,17.49c-11.6,11.6-17.49,25.81-17.49,42.22s5.88,30.62,17.49,42.22c11.6,11.6,25.81,17.49,42.22,17.49s30.62-5.88,42.22-17.49c11.6-11.6,17.49-25.81,17.49-42.22Zm-10.18,0c0,13.64-4.87,25.43-14.49,35.04-9.61,9.61-21.4,14.49-35.04,14.49s-25.43-4.87-35.04-14.49c-9.61-9.61-14.49-21.4-14.49-35.04s4.87-25.43,14.49-35.04c9.61-9.61,21.4-14.49,35.04-14.49s25.43,4.87,35.04,14.49c9.61,9.61,14.49,21.4,14.49,35.04Z"/>
      </g>
      <g id="cos2" class="cls-8">
        <path class="cls-19" d="m59.76,525.08h68.76l-5.14-10.27h-63.52c-13.63,0-25.41-4.87-35.01-14.47-9.6-9.6-14.47-21.38-14.47-35.01s4.87-25.41,14.47-35.01c9.6-9.6,21.38-14.47,35.01-14.47h59.66v-10.27h-59.76c-16.43,0-30.64,5.89-42.26,17.5S0,448.89,0,465.32s5.89,30.65,17.5,42.26c11.61,11.61,25.83,17.5,42.26,17.5Z"/>
        <polygon class="cls-19" points="546.76 514.8 444.81 514.8 444.81 405.56 435.14 405.56 435.14 525.08 546.76 525.08 546.76 514.8"/>
        <path class="cls-19" d="m380.47,515.56c6.31-6.31,9.52-14.03,9.52-22.93s-3.2-16.61-9.52-22.93c-6.32-6.32-14.03-9.52-22.93-9.52h-54.2c-6.1,0-11.38-2.18-15.68-6.49-4.31-4.31-6.49-9.58-6.49-15.68s2.18-11.37,6.49-15.68c4.31-4.31,9.58-6.49,15.68-6.49h86.85v-10.27h-87.15c-8.9,0-16.61,3.2-22.93,9.52-6.32,6.32-9.52,14.03-9.52,22.93s3.2,16.62,9.52,22.93c6.31,6.32,14.03,9.52,22.93,9.52h54.55c6.1,0,11.37,2.18,15.68,6.49,4.31,4.31,6.49,9.58,6.49,15.68s-2.18,11.38-6.49,15.68c-4.31,4.31-9.58,6.49-15.68,6.49h-90.88l-5.14,10.27h95.97c8.9,0,16.61-3.2,22.93-9.52Z"/>
        <path class="cls-19" d="m648.02,525.13c16.41,0,30.62-5.88,42.22-17.49,11.6-11.6,17.48-25.81,17.48-42.22s-5.88-30.62-17.49-42.22c-11.6-11.6-25.81-17.49-42.22-17.49s-30.62,5.88-42.22,17.49c-11.6,11.6-17.48,25.81-17.48,42.22s5.88,30.62,17.48,42.22c11.6,11.6,25.81,17.49,42.22,17.49Zm-49.53-59.71c0-13.64,4.87-25.43,14.49-35.04,9.61-9.61,21.4-14.49,35.04-14.49s25.43,4.87,35.04,14.49c9.61,9.61,14.49,21.4,14.49,35.04s-4.87,25.43-14.49,35.04c-9.61,9.61-21.4,14.49-35.04,14.49s-25.43-4.87-35.04-14.49c-9.61-9.61-14.49-21.4-14.49-35.04Z"/>
        <rect class="cls-19" x="563.19" y="405.56" width="10.27" height="119.51"/>
        <rect class="cls-19" x="406.62" y="405.56" width="10.27" height="119.51"/>
        <path class="cls-19" d="m253.98,465.42c0-16.41-5.88-30.62-17.49-42.22-11.6-11.6-25.81-17.49-42.22-17.49s-30.62,5.88-42.22,17.49c-11.6,11.6-17.49,25.81-17.49,42.22s5.88,30.62,17.49,42.22c11.6,11.6,25.81,17.49,42.22,17.49s30.62-5.88,42.22-17.49c11.6-11.6,17.49-25.81,17.49-42.22Zm-10.18,0c0,13.64-4.87,25.43-14.49,35.04-9.61,9.61-21.4,14.49-35.04,14.49s-25.43-4.87-35.04-14.49c-9.61-9.61-14.49-21.4-14.49-35.04s4.87-25.43,14.49-35.04c9.61-9.61,21.4-14.49,35.04-14.49s25.43,4.87,35.04,14.49c9.61,9.61,14.49,21.4,14.49,35.04Z"/>
      </g>
    </g>
    <g>
      <g id="con2">
        <path class="cls-22" d="m46.52,651.96c-10.2,0-19.02-3.65-26.21-10.83-7.19-7.19-10.83-16.01-10.83-26.21s3.65-19.02,10.83-26.21c7.19-7.19,16.01-10.83,26.21-10.83h45.14v-8.45h-45.19c-12.42,0-23.18,4.45-31.96,13.23-8.78,8.78-13.24,19.53-13.24,31.96s4.45,23.18,13.24,31.96c8.78,8.78,19.53,13.23,31.96,13.23h51.75l-3.92-7.85h-47.77Z"/>
        <path class="cls-23" d="m584.28,569.42h-65.93v8.45h65.36c4.51,0,8.42,1.62,11.6,4.8,3.19,3.19,4.8,7.09,4.8,11.61s-1.62,8.42-4.8,11.6c-3.19,3.19-7.09,4.8-11.6,4.8h-65.36v56.06l7.85-4.09v-44.12h57.96c6.73.13,12.58-2.25,17.43-7.09,4.79-4.8,7.23-10.65,7.23-17.41s-2.43-12.62-7.23-17.41c-4.78-4.78-10.6-7.2-17.31-7.2Z"/>
        <path class="cls-6" d="m145.98,569.4c-12.43,0-23.19,4.46-31.98,13.24-8.79,8.79-13.24,19.55-13.24,31.98s4.46,23.19,13.24,31.98c8.79,8.79,19.55,13.24,31.98,13.24s23.19-4.46,31.98-13.24,13.24-19.55,13.24-31.98-4.46-23.19-13.24-31.98c-8.79-8.79-19.55-13.24-31.98-13.24Zm37.11,45.22c0,10.22-3.65,19.05-10.85,26.26-7.2,7.2-16.04,10.85-26.26,10.85s-19.05-3.65-26.26-10.85c-7.2-7.2-10.85-16.04-10.85-26.26s3.65-19.05,10.85-26.26c7.2-7.2,16.04-10.85,26.26-10.85s19.05,3.65,26.26,10.85,10.85,16.04,10.85,26.26Z"/>
        <polygon class="cls-4" points="616.06 577.27 657.33 577.27 657.33 666.51 665.18 662.42 665.18 577.27 706.44 577.27 706.44 569.42 616.06 569.42 616.06 577.27"/>
        <polygon class="cls-13" points="414.57 659.81 498.89 659.81 498.89 651.96 422.42 651.96 422.42 618.54 498.89 618.54 498.89 610.69 422.42 610.69 422.42 577.27 501.42 577.27 505.51 569.42 414.57 569.42 414.57 659.81"/>
        <path class="cls-3" d="m351.18,651.96c-10.2,0-19.02-3.65-26.21-10.83-7.19-7.19-10.83-16.01-10.83-26.21s3.65-19.02,10.83-26.21c7.19-7.19,16.01-10.83,26.21-10.83h45.14v-8.45h-45.19c-12.42,0-23.18,4.45-31.96,13.23-8.78,8.78-13.23,19.53-13.23,31.96s4.45,23.18,13.23,31.96c8.78,8.78,19.53,13.23,31.96,13.23h51.85l-3.92-7.85h-47.88Z"/>
        <polygon class="cls-5" points="285.91 648.86 203.38 559.62 203.38 659.81 211.83 659.81 211.83 580.37 294.37 669.6 294.37 569.42 285.91 569.42 285.91 648.86"/>
      </g>
      <g id="con" class="cls-8">
        <path class="cls-14" d="m46.52,651.96c-10.2,0-19.02-3.65-26.21-10.83-7.19-7.19-10.83-16.01-10.83-26.21s3.65-19.02,10.83-26.21c7.19-7.19,16.01-10.83,26.21-10.83h45.14v-8.45h-45.19c-12.42,0-23.18,4.45-31.96,13.23-8.78,8.78-13.24,19.53-13.24,31.96s4.45,23.18,13.24,31.96c8.78,8.78,19.53,13.23,31.96,13.23h51.75l-3.92-7.85h-47.77Z"/>
        <path class="cls-14" d="m584.28,569.42h-65.93v8.45h65.36c4.51,0,8.42,1.62,11.6,4.8,3.19,3.19,4.8,7.09,4.8,11.61s-1.62,8.42-4.8,11.6c-3.19,3.19-7.09,4.8-11.6,4.8h-65.36v56.06l7.85-4.09v-44.12h57.96c6.73.13,12.58-2.25,17.43-7.09,4.79-4.8,7.23-10.65,7.23-17.41s-2.43-12.62-7.23-17.41c-4.78-4.78-10.6-7.2-17.31-7.2Z"/>
        <path class="cls-14" d="m145.98,569.4c-12.43,0-23.19,4.46-31.98,13.24-8.79,8.79-13.24,19.55-13.24,31.98s4.46,23.19,13.24,31.98c8.79,8.79,19.55,13.24,31.98,13.24s23.19-4.46,31.98-13.24,13.24-19.55,13.24-31.98-4.46-23.19-13.24-31.98c-8.79-8.79-19.55-13.24-31.98-13.24Zm37.11,45.22c0,10.22-3.65,19.05-10.85,26.26-7.2,7.2-16.04,10.85-26.26,10.85s-19.05-3.65-26.26-10.85c-7.2-7.2-10.85-16.04-10.85-26.26s3.65-19.05,10.85-26.26c7.2-7.2,16.04-10.85,26.26-10.85s19.05,3.65,26.26,10.85,10.85,16.04,10.85,26.26Z"/>
        <polygon class="cls-14" points="616.06 577.27 657.33 577.27 657.33 666.51 665.18 662.42 665.18 577.27 706.44 577.27 706.44 569.42 616.06 569.42 616.06 577.27"/>
        <polygon class="cls-14" points="414.57 659.81 498.89 659.81 498.89 651.96 422.42 651.96 422.42 618.54 498.89 618.54 498.89 610.69 422.42 610.69 422.42 577.27 501.42 577.27 505.51 569.42 414.57 569.42 414.57 659.81"/>
        <path class="cls-14" d="m351.18,651.96c-10.2,0-19.02-3.65-26.21-10.83-7.19-7.19-10.83-16.01-10.83-26.21s3.65-19.02,10.83-26.21c7.19-7.19,16.01-10.83,26.21-10.83h45.14v-8.45h-45.19c-12.42,0-23.18,4.45-31.96,13.23-8.78,8.78-13.23,19.53-13.23,31.96s4.45,23.18,13.23,31.96c8.78,8.78,19.53,13.23,31.96,13.23h51.85l-3.92-7.85h-47.88Z"/>
        <polygon class="cls-14" points="285.91 648.86 203.38 559.62 203.38 659.81 211.83 659.81 211.83 580.37 294.37 669.6 294.37 569.42 285.91 569.42 285.91 648.86"/>
      </g>
    </g>
  </g>
</svg>