<?xml version="1.0" encoding="UTF-8"?>
<svg id="Layer_2" data-name="Layer 2" xmlns="http://www.w3.org/2000/svg" xmlns:xlink="http://www.w3.org/1999/xlink" viewBox="0 0 2074.2 441.68">
  <defs>
    <style>
      .cls-1 {
        fill: url(#linear-gradient-2);
      }

      .cls-2 {
        fill: url(#linear-gradient-5);
        stroke: url(#linear-gradient-6);
        stroke-miterlimit: 10;
        stroke-width: 1.75px;
      }

      .cls-3 {
        fill: url(#linear-gradient-3);
      }

      .cls-4 {
        fill: url(#linear-gradient);
      }

      .cls-5 {
        fill: url(#linear-gradient-4);
      }
    </style>
    <linearGradient id="linear-gradient" x1="640.08" y1="461.95" x2="640.08" y2="-3.41" gradientUnits="userSpaceOnUse">
      <stop offset=".1" stop-color="#231f20"/>
      <stop offset=".11" stop-color="#2a2728"/>
      <stop offset=".12" stop-color="#403d3e"/>
      <stop offset=".14" stop-color="#646263"/>
      <stop offset=".16" stop-color="#959496"/>
      <stop offset=".18" stop-color="#c5c6c8"/>
      <stop offset=".24" stop-color="#bfbfc1"/>
      <stop offset=".31" stop-color="#aeaeb0"/>
      <stop offset=".4" stop-color="#929193"/>
      <stop offset=".49" stop-color="#6b696b"/>
      <stop offset=".59" stop-color="#3a3738"/>
      <stop offset=".63" stop-color="#231f20"/>
      <stop offset=".95" stop-color="#231f20"/>
      <stop offset=".95" stop-color="#2e2a2b"/>
      <stop offset=".97" stop-color="#514c4c"/>
      <stop offset=".99" stop-color="#666161"/>
      <stop offset="1" stop-color="#6e6969"/>
    </linearGradient>
    <linearGradient id="linear-gradient-2" x1="642.8" y1="-13.72" x2="642.8" y2="438.99" gradientUnits="userSpaceOnUse">
      <stop offset="0" stop-color="#525355"/>
      <stop offset=".01" stop-color="#58595b"/>
      <stop offset=".03" stop-color="#6b6c6e"/>
      <stop offset=".06" stop-color="#8a8b8c"/>
      <stop offset=".08" stop-color="#b5b5b6"/>
      <stop offset=".11" stop-color="#ebebec"/>
      <stop offset=".12" stop-color="#fff"/>
      <stop offset=".22" stop-color="#f6f6f7"/>
      <stop offset=".37" stop-color="#e0e0e1"/>
      <stop offset=".52" stop-color="#c5c6c8"/>
      <stop offset=".53" stop-color="#a7a7a9"/>
      <stop offset=".55" stop-color="#787879"/>
      <stop offset=".57" stop-color="#535354"/>
      <stop offset=".59" stop-color="#383839"/>
      <stop offset=".6" stop-color="#282828"/>
      <stop offset=".62" stop-color="#232323"/>
      <stop offset=".67" stop-color="#414242"/>
      <stop offset=".78" stop-color="#727476"/>
      <stop offset=".86" stop-color="#919396"/>
      <stop offset=".9" stop-color="#9d9fa2"/>
      <stop offset=".99" stop-color="#fff"/>
    </linearGradient>
    <linearGradient id="linear-gradient-3" x1="243.18" y1="461.95" x2="243.18" y2="-3.41" gradientUnits="userSpaceOnUse">
      <stop offset=".1" stop-color="#231f20"/>
      <stop offset=".11" stop-color="#2a2728"/>
      <stop offset=".12" stop-color="#403d3e"/>
      <stop offset=".14" stop-color="#646263"/>
      <stop offset=".16" stop-color="#959496"/>
      <stop offset=".18" stop-color="#c5c6c8"/>
      <stop offset=".24" stop-color="#bfbfc1"/>
      <stop offset=".31" stop-color="#aeaeb0"/>
      <stop offset=".4" stop-color="#929193"/>
      <stop offset=".49" stop-color="#6b696b"/>
      <stop offset=".59" stop-color="#3a3738"/>
      <stop offset=".63" stop-color="#231f20"/>
      <stop offset=".95" stop-color="#231f20"/>
      <stop offset=".95" stop-color="#2e2a2b"/>
      <stop offset=".97" stop-color="#514c4c"/>
      <stop offset=".99" stop-color="#666161"/>
      <stop offset="1" stop-color="#6e6969"/>
    </linearGradient>
    <linearGradient id="linear-gradient-4" x1="237.99" y1="-13.72" x2="237.99" y2="438.99" xlink:href="#linear-gradient-2"/>
    <linearGradient id="linear-gradient-5" x1="1491.71" y1="-19.12" x2="1491.71" y2="455.07" gradientUnits="userSpaceOnUse">
      <stop offset=".03" stop-color="#191e1e"/>
      <stop offset=".05" stop-color="#3e4343"/>
      <stop offset=".08" stop-color="#7c807f"/>
      <stop offset=".1" stop-color="#a9adac"/>
      <stop offset=".12" stop-color="#c4c8c7"/>
      <stop offset=".13" stop-color="#cfd3d2"/>
      <stop offset=".39" stop-color="#f2f9f8"/>
      <stop offset=".43" stop-color="#c0c4c3"/>
      <stop offset=".51" stop-color="#676765"/>
      <stop offset=".54" stop-color="#444240"/>
      <stop offset=".56" stop-color="#494745"/>
      <stop offset=".59" stop-color="#585654"/>
      <stop offset=".61" stop-color="#706f6d"/>
      <stop offset=".64" stop-color="#929190"/>
      <stop offset=".67" stop-color="#bfbebd"/>
      <stop offset=".69" stop-color="#f4f4f3"/>
      <stop offset=".7" stop-color="#fff"/>
      <stop offset=".74" stop-color="#f9f9f9"/>
      <stop offset=".78" stop-color="#e9eaea"/>
      <stop offset=".83" stop-color="#d0d1d1"/>
      <stop offset=".88" stop-color="#acaeae"/>
      <stop offset=".94" stop-color="#7d8282"/>
      <stop offset="1" stop-color="#464c4c"/>
    </linearGradient>
    <linearGradient id="linear-gradient-6" x1="909.22" y1="221.36" x2="2074.2" y2="221.36" gradientUnits="userSpaceOnUse">
      <stop offset="0" stop-color="#fff"/>
      <stop offset="1" stop-color="#231f20"/>
    </linearGradient>
  </defs>
  <g id="logo-long">
    <g id="CO">
      <g>
        <path class="cls-4" d="m636.42,441.68h-.2c-36.8-2.49-72.66-14.27-103.73-34.08l-.18-.1-18.72-13.41-.12-.1c-7.42-5.91-14.51-12.36-21.08-19.16-40.12-41.44-62.22-96.04-62.22-153.74,0-31.32,6.42-61.58,19.07-89.95,8.83-19.81,20.45-38.09,34.62-54.48h-76.05l39.97-57.84.02-.02,12.98-18.8h190.47c59.96,0,116.08,23.6,158.01,66.46,40.68,41.55,63.08,96.46,63.08,154.62s-22.1,112.3-62.22,153.75c-38.15,39.43-89.24,63.17-143.83,66.83h-.2s-29.67.01-29.67.01Zm14.84-365.02c-79.64,0-144.43,64.79-144.43,144.43,0,74.01,55.4,135.75,128.88,143.61,5.14.55,10.37.83,15.55.83s10.41-.28,15.55-.83c73.48-7.86,128.88-69.6,128.88-143.61,0-79.64-64.79-144.43-144.44-144.43Z"/>
        <path class="cls-1" d="m804.98,70.66c-39.04-39.9-93.49-64.66-153.73-64.66h-187.32l-11.51,16.66-.02.02-33.15,47.97h78.28c.71-.74,1.43-1.46,2.16-2.19l-1.51,2.19h-.65c-17.76,18.14-32.34,39.42-42.82,62.92-11.92,26.73-18.55,56.34-18.55,87.5,0,58.13,23.06,110.87,60.53,149.57,6.42,6.64,13.27,12.87,20.5,18.64l18.23,13.06s.03.02.05.03c29.57,18.91,64.06,30.8,101.13,33.29h29.27c54.81-3.68,104-27.89,139.92-65.02,37.47-38.7,60.53-91.45,60.53-149.57s-23.4-111.65-61.37-150.43Zm-137.53,300c-5.32.57-10.72.86-16.19.86s-10.87-.29-16.19-.86c-75.46-8.08-134.24-71.96-134.24-149.57,0-83.08,67.35-150.43,150.43-150.43s150.44,67.35,150.44,150.43c0,77.62-58.77,141.5-134.25,149.57Z"/>
      </g>
      <g>
        <path class="cls-3" d="m206.25,441.68h-.2c-54.6-3.68-105.68-27.41-143.82-66.85C22.1,333.39,0,278.79,0,221.08S22.4,108.01,63.08,66.46C105.01,23.6,161.13,0,221.08,0h175.27l-37.97,54.96-14.98,21.7h-122.31c-79.64,0-144.44,64.79-144.44,144.43,0,64.52,43.33,121.71,105.38,139.1,10.61,2.97,22.03,4.48,33.95,4.48h200.77l1.77,2.8c15.08,23.93,33.69,45.34,55.32,63.64l12.51,10.58H206.25Z"/>
        <path class="cls-5" d="m469.97,435.68H206.45c-54.81-3.68-104-27.89-139.91-65.02C29.06,331.95,6,279.21,6,221.09s23.4-111.65,61.37-150.43C106.4,30.76,160.85,6,221.08,6h163.83l-31.47,45.55-13.2,19.11h-119.16c-83.09,0-150.44,67.35-150.44,150.43,0,68.99,46.44,127.13,109.76,144.87,11.57,3.24,23.56,4.7,35.57,4.7h197.46c15.42,24.48,34.52,46.41,56.52,65.02Z"/>
      </g>
    </g>
    <path class="cls-2" d="m938.51,171.34c-18.94-18.94-28.41-41.8-28.41-68.59s9.47-49.65,28.41-68.59c18.94-18.94,41.8-28.41,68.59-28.41h97v14h-96.83c-22.96,0-42.54,8.09-58.72,24.28-16.19,16.18-24.28,35.76-24.28,58.72s8.09,42.54,24.28,58.72c16.18,16.19,35.76,24.28,58.72,24.28h103.77l7,14h-110.93c-26.79,0-49.66-9.47-68.59-28.41Zm358.78.12c-18.92,18.92-41.77,28.38-68.53,28.38s-49.61-9.46-68.53-28.38c-18.92-18.92-28.38-41.77-28.38-68.54s9.46-49.61,28.38-68.54c18.92-18.92,41.77-28.38,68.53-28.38s49.61,9.46,68.53,28.38c18.92,18.92,28.38,41.77,28.38,68.54s-9.46,49.61-28.38,68.54Zm-9.76-9.76c16.2-16.2,24.3-35.79,24.3-58.77s-8.1-42.57-24.3-58.77c-16.2-16.2-35.79-24.3-58.77-24.3s-42.57,8.1-58.77,24.3c-16.2,16.2-24.3,35.79-24.3,58.77s8.1,42.57,24.3,58.77c16.2,16.2,35.79,24.3,58.77,24.3s42.57-8.1,58.77-24.3Zm246.99,22.8c10.17-10.17,15.25-22.42,15.25-36.75s-5.08-26.58-15.25-36.75c-10.17-10.17-22.42-15.25-36.75-15.25h-89.31c-10.5,0-19.46-3.71-26.88-11.12-7.42-7.42-11.12-16.38-11.12-26.88s3.71-19.46,11.12-26.88c7.41-7.41,16.38-11.12,26.88-11.12h141.64V5.74h-142.13c-14.33,0-26.58,5.08-36.75,15.25-10.17,10.17-15.25,22.42-15.25,36.75s5.08,26.58,15.25,36.75c10.17,10.17,22.42,15.25,36.75,15.25h89.88c10.5,0,19.46,3.71,26.88,11.12,7.41,7.42,11.12,16.37,11.12,26.88s-3.71,19.46-11.12,26.88c-7.42,7.42-16.38,11.12-26.88,11.12h-148.84l-7,14h155.76c14.33,0,26.58-5.08,36.75-15.25Zm59.58-178.75h-14v194h14V5.74Zm214,180h-168V5.74h-13v194h181v-14Zm44-180h-14v194h14V5.74Zm55.77,165.71c-18.92-18.92-28.38-41.77-28.38-68.54s9.46-49.61,28.38-68.54c18.92-18.92,41.77-28.38,68.54-28.38s49.61,9.46,68.54,28.38c18.92,18.92,28.38,41.77,28.38,68.54s-9.46,49.61-28.38,68.54c-18.92,18.92-41.77,28.38-68.54,28.38s-49.61-9.46-68.54-28.38Zm-14.54-68.54c0,22.98,8.1,42.57,24.3,58.77,16.2,16.2,35.79,24.3,58.77,24.3s42.57-8.1,58.77-24.3c16.2-16.2,24.3-35.79,24.3-58.77s-8.1-42.57-24.3-58.77c-16.2-16.2-35.79-24.3-58.77-24.3s-42.57,8.1-58.77,24.3c-16.2,16.2-24.3,35.79-24.3,58.77Zm-908.15,308.83c-17.29,0-32.03-6.09-44.22-18.28-12.19-12.19-18.28-26.93-18.28-44.22s6.09-32.03,18.28-44.22c12.19-12.19,26.93-18.28,44.22-18.28h72.92v-11h-73c-20.16,0-37.37,7.13-51.62,21.38-14.25,14.25-21.38,31.46-21.38,51.62s7.13,37.37,21.38,51.62c14.25,14.25,31.46,21.38,51.62,21.38h82.9l-5-10h-77.81Zm215.53-114.65c14.26,14.26,21.39,31.48,21.39,51.66s-7.13,37.4-21.39,51.66c-14.26,14.26-31.48,21.39-51.66,21.39s-37.4-7.13-51.66-21.39c-14.26-14.26-21.39-31.48-21.39-51.66s7.13-37.39,21.39-51.66c14.26-14.26,31.48-21.39,51.66-21.39s37.39,7.13,51.66,21.39Zm10.96,51.66c0-17.32-6.1-32.09-18.31-44.3-12.21-12.21-26.98-18.31-44.3-18.31s-32.09,6.1-44.3,18.31c-12.21,12.21-18.31,26.98-18.31,44.3s6.1,32.09,18.31,44.3c12.21,12.21,26.98,18.31,44.3,18.31s32.09-6.1,44.3-18.31c12.21-12.21,18.31-26.98,18.31-44.3Zm169.43,60.16l-136-147.04v159.87h11v-133.17l136,147.04v-159.87h-11v133.17Zm106.08,2.83c-17.29,0-32.03-6.09-44.22-18.28-12.19-12.19-18.28-26.93-18.28-44.22s6.09-32.03,18.28-44.22c12.19-12.19,26.93-18.28,44.22-18.28h72.92v-11h-73c-20.16,0-37.37,7.13-51.62,21.38-14.25,14.25-21.38,31.46-21.38,51.62s7.13,37.37,21.38,51.62c14.25,14.25,31.46,21.38,51.62,21.38h83.07l-5-10h-77.98Zm105.92,10h136v-10h-126v-58h126v-10h-126v-58h130.75l5.22-10h-145.97v146Zm278.01-146h-107.01v11h106.23c7.88,0,14.6,2.78,20.16,8.34,5.56,5.56,8.34,12.28,8.34,20.16s-2.78,14.6-8.34,20.16c-5.56,5.56-12.28,8.34-20.16,8.34h-106.23v88.49l10-5.22v-73.27h97.01c10.78.23,20-3.6,27.65-11.25,7.65-7.65,11.48-16.87,11.48-27.65s-3.83-20-11.48-27.65c-7.65-7.65-16.87-11.48-27.65-11.44Zm53.99,10h68v146.1l10-5.22v-140.88h68v-10h-146v10Z"/>
  </g>
</svg>